<?xml version="1.0" standalone="no"?>
<!DOCTYPE svg PUBLIC "-//W3C//DTD SVG 1.1//EN" "http://www.w3.org/Graphics/SVG/1.1/DTD/svg11.dtd" >
<svg xmlns="http://www.w3.org/2000/svg">
<metadata></metadata>
<defs>
<font id="invitation_script_limited_fRg" horiz-adv-x="1073" >
<font-face units-per-em="2048" ascent="1536" descent="-512" />
<missing-glyph horiz-adv-x="231" />
<glyph horiz-adv-x="2048" />
<glyph horiz-adv-x="2048" />
<glyph unicode="&#xd;" horiz-adv-x="2048" />
<glyph unicode=" "  horiz-adv-x="231" />
<glyph unicode="&#x09;" horiz-adv-x="231" />
<glyph unicode="&#xa0;" horiz-adv-x="231" />
<glyph unicode="!" horiz-adv-x="604" d="M-48 15.5q-7 13.5 3 35.5q10 20 31.5 34.5t44.5 14.5q18 0 25 -14t-5 -35q-10 -23 -30.5 -36t-43.5 -13q-18 0 -25 13.5zM104 254l490 895q49 96 95 145t73 49q29 0 11.5 -62t-101.5 -175q-25 -31 -69 -97.5t-98 -150.5t-113.5 -176t-115 -176t-100.5 -151.5t-70 -100.5 h-2z" />
<glyph unicode="&#x22;" horiz-adv-x="325" d="M-156 610q137 25 172 150h93q-37 -63 -108 -104.5t-157 -45.5zM31 610q137 25 172 150h92q-37 -63 -107.5 -104.5t-156.5 -45.5z" />
<glyph unicode="#" horiz-adv-x="1116" d="M180 223v33h107l65 164h-90v33h107l90 219h35l-93 -219h179l90 219h37l-93 -219h99v-33h-111l-67 -164h96v-33h-111l-90 -223h-35l92 223h-180l-90 -223h-35l92 223h-94zM324 256h176l65 164h-176z" />
<glyph unicode="$" horiz-adv-x="1030" d="M40 105.5q-9 82.5 19 166.5q29 86 93.5 151.5t152.5 94.5q39 12 87 12t91 -14t72 -46t27 -87q-2 -57 -37 -105.5t-82 -78.5q37 2 66.5 -2t50.5 -17q29 -14 43 -36.5t15 -49t-6 -53.5t-22 -51q-14 -25 -28.5 -49.5t-21.5 -48t-2 -46t32 -43.5q-39 20 -52.5 44t-11.5 49.5 t16.5 54.5t30.5 57q10 18 22.5 39t16.5 42.5t-4 41t-35 31.5q-25 14 -61.5 17t-81.5 -1q-8 0 -10 6q0 6 6 11q53 31 86 73.5t29 108.5q-2 49 -25.5 78.5t-57.5 43t-75 13.5t-78 -12q-78 -27 -129 -95.5t-70 -146.5q-18 -74 -5.5 -142.5t47 -129t87 -109.5t115.5 -82 q70 -35 146.5 -50t156.5 1q68 16 127.5 53t102.5 95q53 72 57 160.5t-45 178.5q-29 57 -73 105.5t-93 95.5q-41 37 -81 77t-70.5 86t-51 97t-20.5 111q-4 131 84 227q47 53 117.5 87t142.5 30h2l20 86l19 -4l-21 -86q33 -6 64 -19.5t55 -42.5q33 -29 46.5 -67.5t-3.5 -81.5 q-14 -45 -55 -60q-23 -8 -36 2.5t-16 26t5 29.5t28 14h27q27 6 33 29q4 29 -6.5 53.5t-32.5 44.5q-27 25 -58.5 37t-64.5 16q-70 8 -130 -22.5t-97 -89.5q-31 -47 -40 -92t-1 -86q16 -84 75.5 -161t127.5 -155q49 -57 94 -114.5t73 -120.5q47 -102 26 -214t-93 -194 q-43 -53 -101.5 -90t-123.5 -55q-33 -10 -65 -16.5t-62 -10.5l-29 -121l-18 6l28 115q-47 0 -93 7t-89 24q-82 29 -146.5 85t-103.5 129t-48 155.5z" />
<glyph unicode="%" horiz-adv-x="858" d="M184 707q-18 104 84 200q80 78 172 127q60 35 101 35q31 0 51 -22q14 -18 14 -39q4 -43 -33 -109q-20 -35 -45.5 -65.5t-58.5 -67.5q-70 -72 -121 -104q-49 -33 -90 -33q-63 0 -74 78zM203 674q4 -14 16 -27q20 -14 37 -14q41 0 94 41q55 35 129 114q59 59 90 121 q29 57 27 103q0 18 -14 35q-14 16 -37 16q-29 0 -64 -21q-41 -25 -88 -77q-88 -92 -139 -170q-59 -78 -51 -121zM268 -6l471 1198l56 16l-467 -1198zM463 121q-18 104 84 201q82 78 172 127q61 34 100 34q33 0 51 -22q14 -18 15 -39q4 -43 -33 -109q-18 -35 -45 -65.5 t-57 -67.5q-72 -74 -121 -104q-51 -33 -92 -33q-63 0 -74 78zM483 88q4 -14 15 -27q20 -14 37 -14q41 0 96 41q55 35 129 115q57 59 88 121q29 57 26 102q0 18 -14 35q-12 16 -37 16q-29 0 -63 -20q-41 -27 -88 -78q-88 -92 -140 -170q-59 -78 -49 -121z" />
<glyph unicode="&#x26;" horiz-adv-x="1329" d="M35 341q12 101 76 191q57 84 140 133.5t171 92.5q-29 55 -52.5 115.5t-33.5 122t-5 122t34 115.5q29 53 72.5 94t96 64.5t110.5 28.5t116 -9q72 -16 122 -64.5t62 -134.5l2 -24q4 -70 -32.5 -127t-98 -106.5t-141.5 -93.5t-162 -85q4 -10 9 -19t11 -20 q49 -92 106.5 -192.5t119.5 -192.5q20 -27 45 -57q10 16 21.5 33.5t21.5 33.5q-29 8 -57.5 26t-50 42.5t-35 53t-9.5 63.5q4 33 25.5 59.5t49.5 39.5t57.5 8t52.5 -36q31 -41 29.5 -95t-17.5 -101q86 -33 181 -37t190.5 14.5t183.5 57.5t160 94l14 -10q-74 -59 -167 -104.5 t-193.5 -71t-203 -29.5t-194.5 20q-24 -40 -47 -75q53 -66 115.5 -124.5t136.5 -99.5q47 -27 96 -36t92 18q29 16 40.5 48t-5.5 58q-12 23 -35.5 34t-40.5 -11q-4 -4 -7 -11t-7 -12q-12 -16 -27.5 -15t-26.5 11.5t-13.5 26.5t16.5 31q23 16 50.5 18t51.5 -10q37 -20 52 -49 q23 -35 10 -74t-47 -61q-43 -25 -102.5 -24t-112.5 15q-86 25 -155 82.5t-128 124.5q-66 -78 -153 -138t-191 -75q-141 -23 -231.5 23.5t-130 127.5t-27.5 182zM135 352q-8 -76 17.5 -140.5t86 -108.5t162.5 -52q51 -4 101.5 9.5t96.5 40t86 61.5t71 74q-16 23 -32.5 43 t-33.5 43q-66 92 -123 187t-110 189q-13 18 -23 45q-78 -37 -145.5 -102.5t-108.5 -142.5q-37 -70 -45 -146zM428 988.5q29 -99.5 76 -195.5q80 41 157.5 83t138 89t95.5 100t33 117l-2 26q-6 49 -30 87t-59.5 63.5t-78.5 37t-88 7.5q-90 -8 -152.5 -71.5t-89.5 -145.5 q-29 -98 0 -197.5zM755.5 603.5q-10.5 -23.5 0.5 -58.5q10 -35 40.5 -64.5t77.5 -52.5q16 41 17.5 87t-21.5 85q-16 27 -39.5 34t-44 0t-31 -30.5z" />
<glyph unicode="'" horiz-adv-x="256" d="M86 610q137 25 172 150h92q-37 -63 -107.5 -104.5t-156.5 -45.5z" />
<glyph unicode="(" horiz-adv-x="563" d="M242 -143q-115 299 28 665q72 184 206 383t337 420l16 -10q-156 -217 -277.5 -403.5t-189.5 -364.5q-68 -180 -90 -345t-14 -335z" />
<glyph unicode=")" horiz-adv-x="563" d="M188 -133q158 215 279 401.5t188 366.5q68 178 91.5 344t13.5 336l16 10q115 -299 -28 -668q-141 -367 -543 -800z" />
<glyph unicode="*" horiz-adv-x="692" d="M219 872l14 37h132l-134 76l31 25l170 -101l86 197h37l-72 -158l125 92l31 -18l-154 -113h181l-15 -37h-153l139 -79l-31 -23l-157 90l-78 -186h-37l74 174l-144 -109l-33 19l152 114h-164z" />
<glyph unicode="+" horiz-adv-x="442" d="M14 199l15 34h198l86 199h37l-88 -199h199l-15 -34h-198l-82 -199h-37l84 199h-199z" />
<glyph unicode="," horiz-adv-x="137" d="M-121 -29q61 10 98 44t54 87h82q-35 -55 -96.5 -91t-137.5 -40z" />
<glyph unicode="-" horiz-adv-x="395" d="M14 199l15 34h350l-14 -34h-351z" />
<glyph unicode="." horiz-adv-x="153" d="M15.5 15.5q-7.5 13.5 2.5 35.5q10 20 31.5 34.5t44.5 14.5q18 0 25.5 -14t-4.5 -35q-10 -23 -31 -36t-43 -13q-18 0 -25.5 13.5z" />
<glyph unicode="/" horiz-adv-x="466" d="M53 -6l420 1235l57 16l-417 -1235z" />
<glyph unicode="0" horiz-adv-x="962" d="M80 172q-72 229 121 449q156 176 344 288q121 76 211 76q70 0 123 -49q41 -41 49 -90q20 -94 -41 -242q-27 -80 -75 -150.5t-107 -150.5q-133 -164 -234 -235q-104 -72 -199 -72q-141 0 -192 176zM137 96q16 -35 47 -61q47 -31 84 -31q94 0 201 90q113 80 250 258 q111 137 160 273q45 131 26 229q-10 45 -47 82q-39 33 -92 35q-63 0 -133 -45q-84 -59 -168 -174q-168 -209 -258 -385q-106 -172 -70 -271z" />
<glyph unicode="1" horiz-adv-x="909" d="M74 16l700 920l-678 -406l-8 19l758 455l12 -15l-588 -911q-25 -35 -20 -62h-176z" />
<glyph unicode="2" horiz-adv-x="1026" d="M90 14q426 315 565 467q59 76 111.5 138.5t79.5 117.5q68 119 47 172q-18 63 -100 64q-164 0 -344 -215q-96 -119 -84 -172q4 -18 36 -37q16 -18 52 -19q70 0 192 109q66 55 111 111.5t75 105.5l7 -10q-55 -113 -183 -221q-127 -102 -209 -103q-47 0 -75 23 q-35 23 -54 76q-14 49 7 104q18 55 61 104q86 78 193 119q102 41 210 41q55 0 103 -39q45 -41 70 -96q51 -172 -168 -356q-109 -92 -340 -240q-39 -23 -75 -49.5t-65 -40.5l2 -10q104 43 162 43q94 0 115 -70q6 -35 -10 -63q-8 -23 -7 -31q4 -20 39 -21q117 0 322 220 l12 -15q-6 -10 -13 -12t-7 -14q-211 -195 -314 -195q-39 0 -77 16q-37 20 -43 52q-10 25 20 63q8 27 6 41q-4 10 -39 10q-147 0 -375 -182z" />
<glyph unicode="3" horiz-adv-x="1105" d="M68 139q-14 51 6 82q18 37 61 37q66 0 94 -63q2 -23 -10 -48q-12 -16 -39 -16q-35 0 -59 27q-16 14 -19 14q-23 0 -12 -33q43 -123 219 -123q209 0 430 256q125 141 103 215q-10 31 -47 56q-39 16 -80 16q-43 0 -117 -16l-88 -33l-12 14q197 51 303 113q100 57 149 143 q37 92 19 150q-10 27 -43 51q-33 23 -72 23q-150 0 -274 -148q-8 -10 -16.5 -27.5t-16.5 -35.5q-12 -35 -12 -41q4 -23 30 -35q16 -6 45 -6q59 0 172 86q51 43 84 112l8 -2q-55 -109 -122 -164q-76 -59 -148 -59q-86 0 -112 88q-18 74 20 117q47 53 137 91t187 38 q72 0 131 -45q57 -37 82 -101q55 -178 -316 -288v-9q125 -31 162 -135q59 -184 -145 -319q-182 -121 -426 -121q-102 0 -154 31q-80 37 -102 108z" />
<glyph unicode="4" horiz-adv-x="909" d="M18 272q90 102 180.5 208t182.5 222q190 227 237 316l168 -4q-76 -88 -135 -155.5t-100 -107.5t-109.5 -102.5t-165.5 -144.5q-43 -37 -82.5 -77t-84.5 -85v-8q100 31 196 31q106 0 205 -33l195 266h86l-183 -287q45 -12 99 -12q102 0 172 43l4 -10q-106 -68 -224 -68 q-23 0 -77 8l-131 -204q-14 -16 -20.5 -32t-6.5 -32l-156 12q12 20 62 84l147 199q-137 43 -235 43q-94 0 -219 -72z" />
<glyph unicode="5" horiz-adv-x="1067" d="M47 221q25 37 68 37q29 0 53 -14q29 -23 39 -49q4 -27 -6 -48q-20 -16 -47 -16q-25 0 -72 29q-2 8 -6 8q-18 0 -8 -47q14 -43 67 -66q57 -35 115 -35q203 0 403 279q152 190 119 299q-14 39 -55 66q-41 20 -82 20q-88 0 -176 -47q-100 -53 -178 -148l-5 9l377 514 q102 -76 226 -76q109 0 184 53l2 -8q-98 -94 -242 -94q-104 0 -192 49l-238 -315q127 82 250 81q66 0 125 -47q53 -51 74 -125q25 -82 6 -163q-33 -94 -98 -166q-80 -94 -218 -140q-131 -59 -264 -59q-80 0 -141 41q-66 33 -76 88q-16 51 -4 90z" />
<glyph unicode="6" horiz-adv-x="985" d="M66 156q-29 100 20 231q39 135 154 254q135 150 306 256.5t273 106.5q98 0 131 -95q8 -35 -8 -63q-18 -25 -53 -25q-20 0 -47 13q-18 12 -25 40q-10 20 4 35q10 20 35 21q23 0 47 -21q18 12 15 27q-8 16 -37 35q-31 18 -64 18q-96 0 -215 -100q-121 -98 -244 -268 q-266 -410 -227 -543q12 -27 39 -47q33 -27 61 -27q147 0 361 320q88 141 70 198q-27 61 -84 62q-63 0 -156 -60q-94 -57 -135 -110l-6 4q29 31 62.5 67.5t72.5 57.5q90 55 157 55q94 0 134 -117q61 -193 -103 -334q-186 -147 -356 -147q-131 0 -182 156z" />
<glyph unicode="7" horiz-adv-x="991" d="M74 16q211 295 471 543q106 104 178 178t111 109l-3 10q-57 -23 -86 -22q-49 0 -149 40q-113 51 -160 52q-72 0 -155 -54q-78 -55 -134 -139l-18 10l207 261l12 -15l-88 -115q164 115 277 115q35 0 55 -16q20 -2 127 -74q47 -25 84 -25q35 0 63 25q29 23 86 86l9 -12 q-39 -47 -90.5 -110.5t-118.5 -133.5q-174 -184 -318 -379q-143 -203 -194 -334h-166z" />
<glyph unicode="8" horiz-adv-x="942" d="M37 182q-37 135 59 219q100 88 375 142q-82 98 -94 157q-43 133 78 236q86 76 207 76q88 0 152.5 -38t84.5 -100q33 -96 -57 -180q-98 -90 -254 -119q70 -104 98 -174q41 -154 -74 -272q-123 -129 -301 -129q-94 0 -166 45q-74 51 -108 137zM61 172q20 -72 99 -117 q61 -41 149 -41q152 0 234 92q94 100 45 246q-25 76 -80 146q-12 12 -14 16l-7 10q-180 -29 -305 -96q-74 -47 -106 -117q-33 -76 -15 -139zM451 772q14 -43 55 -102q10 -14 43 -49q20 -35 24 -35h2q154 23 240 108q88 84 64 180q-27 61 -80 89q-57 29 -135 28 q-113 0 -177.5 -67.5t-35.5 -151.5z" />
<glyph unicode="9" horiz-adv-x="970" d="M72 25q68 -10 98 -11q113 0 217 80q55 37 115.5 100.5t124.5 155.5q119 158 221 383q51 113 29 166q-6 31 -35 51q-33 23 -66 23q-147 0 -278 -162q-193 -244 -160 -340q8 -27 37 -43q27 -14 57 -14q63 0 174 94q53 49 101.5 102.5t89.5 118.5l8 -12q-20 -37 -63.5 -85 t-100.5 -114q-123 -125 -207 -125q-53 0 -96 37t-62 94q-43 145 91 273q203 195 395 194q119 0 166 -135q43 -141 -54 -332q-39 -59 -87 -124.5t-103 -127.5q-123 -115 -256 -194q-143 -80 -254 -80q-43 0 -100 18z" />
<glyph unicode=":" horiz-adv-x="155" d="M15.5 18.5q-7.5 16.5 2.5 38.5q12 23 36.5 40.5t49.5 17.5q23 0 30 -17.5t-7 -40.5q-10 -23 -33.5 -39t-50.5 -16q-20 0 -27.5 16.5zM163 454.5q-7 16.5 3 39.5q12 23 36.5 40t49.5 17q23 0 30 -17.5t-8 -39.5q-10 -23 -33.5 -39.5t-50.5 -16.5q-20 0 -27 16.5z" />
<glyph unicode=";" horiz-adv-x="147" d="M-57 -33q137 25 172 150h92q-37 -63 -107.5 -104.5t-156.5 -45.5zM243 454.5q-7 16.5 3 39.5q12 23 36.5 40t49.5 17q23 0 30 -17.5t-8 -39.5q-10 -23 -33.5 -39.5t-50.5 -16.5q-20 0 -27 16.5z" />
<glyph unicode="&#x3c;" horiz-adv-x="669" d="M33 215l10 51l532 226l-10 -48l-479 -202l391 -205l-8 -45z" />
<glyph unicode="=" horiz-adv-x="702" d="M113 119l16 41h455l-17 -41h-454zM203 332l16 41h455l-17 -41h-454z" />
<glyph unicode="&#x3e;" horiz-adv-x="653" d="M66 -8l10 47l479 203l-393 204l10 46l434 -224l-10 -51z" />
<glyph unicode="?" horiz-adv-x="604" d="M-2.5 15.5q-7.5 13.5 2.5 35.5q10 20 31.5 34.5t44.5 14.5q18 0 25.5 -14t-5.5 -35q-10 -23 -30.5 -36t-42.5 -13q-18 0 -25.5 13.5zM131 186q0 37 72 123q63 82 180 201q31 27 74 62.5t90 72.5q59 49 98 79t53 46q47 43 85 91t65 97q57 102 57 195q0 57 -49 100 q-43 45 -121 45q-139 0 -282.5 -132t-143.5 -261q0 -49 29 -76q27 -33 70 -32q76 0 165 96q95 92 142 244l12 -37q4 -18 4 -23q0 -125 -98 -229q-96 -104 -209 -105q-68 0 -115 48q-39 39 -39 114q0 47 35 123q35 72 86 131q43 49 86 79t86 50q92 49 182 49q117 0 179 -69 q68 -59 67 -187q0 -86 -43 -176q-43 -92 -119 -162q-33 -25 -80 -58.5t-110 -72.5q-70 -43 -121 -77.5t-78 -51.5q-127 -98 -213 -200q-80 -109 -86 -109l-4 6z" />
<glyph unicode="@" horiz-adv-x="1495" d="M270 664q-6 61 4.5 121.5t36 115.5t66.5 102.5t94 81.5q66 43 148.5 61.5t167.5 13.5t166 -31.5t143 -75.5q16 -14 29.5 -30.5t23.5 -39.5q-31 33 -57 55q-61 47 -138 69.5t-156 22.5t-157 -22.5t-141 -65.5q-92 -63 -147.5 -161.5t-51.5 -216.5q2 -88 39 -158 q39 -76 111.5 -123t150.5 -70q59 -16 127 -20t133.5 8t122.5 43t98 86q43 61 48.5 139t-29.5 148q-14 29 -38 56.5t-52.5 48t-60 29.5t-64.5 -1q-51 -12 -78 -64q-16 -33 -14 -72.5t20 -74.5q2 -6 -2 -10h-10q-61 51 -105 63l-34 -153q-6 -23 -7 -39q0 -18 2 -25 q8 -18 27 -12t29 16q8 6 14 14.5t14 14.5q10 12 21 18q-4 -6 -6 -12t-6 -12q-4 -10 -11.5 -17.5l-15.5 -15.5q-14 -10 -32.5 -19.5t-37.5 -5.5q-23 4 -28.5 22.5t-3.5 35.5q0 12 4 28l37 164q-23 -2 -32 -13t-18 -32q-8 -29 -8 -63.5t-8 -63.5q-16 -72 -88 -78 q-47 -4 -71.5 28t-26.5 77q-2 61 28.5 123.5t79.5 101.5q37 29 82 37t88 -12q10 12 21 10q10 -4 8 -21l-19 -83q20 -4 43 -15.5t45 -27.5q-16 33 -21 69.5t7 71.5q10 35 38 55.5t62 24.5q37 6 74 -6.5t69 -36t57.5 -55t41.5 -62.5q35 -72 30 -154t-52 -147 q-41 -57 -100.5 -90t-126 -45.5t-137.5 -8t-132 20.5q-86 23 -156.5 73t-117.5 128q-45 76 -54 164zM455 549q4 -23 16 -55.5t39 -36.5q31 -4 42 18.5t15 44.5q4 29 7.5 66t17.5 65q20 53 78 60l16 75q-39 16 -81 9t-73 -35q-35 -41 -58 -99.5t-19 -111.5z" />
<glyph unicode="A" d="M86 119q2 23 17.5 30t31 1.5t24.5 -18.5t1 -32q-10 -23 -14.5 -40t22.5 -33q29 -12 59.5 -16.5t59.5 -0.5q88 8 160.5 55.5t132 115t106.5 148.5t86 156q66 127 124 252t124 252q74 145 149.5 264t159.5 183q-143 12 -291 13h-9q-145 0 -308 -34q-166 -41 -301 -143.5 t-201 -265.5q-39 -96 -44 -207q-1 -12 -1 -24q0 -98 37 -185q20 -49 56 -90t80 -66q43 -26 97 -34q15 -2 31 -2q39 0 78 14q61 23 103 68.5t77 107.5q-6 -68 -59 -120t-117 -75q-42 -13 -83 -13q-16 0 -32 2q-56 7 -102.5 34.5t-84.5 69.5t-60 96q-39 91 -39 193q0 11 1 23 q5 114 46 216q66 166 205 271.5t309 146.5q149 35 303 36q12 0 24 1q142 0 289 -17q11 0 21 -4q6 -3 6 -10q0 -4 -2 -11q-55 -125 -111.5 -247.5t-109.5 -249.5q-47 -117 -94.5 -233.5t-86.5 -237.5q-29 -78 -54 -159t-36 -167q-4 -25 -2 -49.5t11.5 -41.5t29 -21.5 t53.5 10.5q35 16 65 42.5t56 57.5q-8 -35 -38.5 -64.5t-69.5 -48.5q-38 -18 -68 -18t-51 19q-37 35 -37 99v13q6 84 32.5 164t55.5 164h-123q-41 -76 -88 -155t-107.5 -145.5t-133 -112.5t-162.5 -54q-13 -1 -30 -1h-18q-28 1 -54.5 9t-50 21.5t-36.5 35.5q-14 28 -14 55v7z M788 479h121q45 117 87 230.5t94 228.5q53 123 111.5 240.5t123.5 232.5q-78 -68 -149.5 -183.5t-143.5 -256.5q-61 -123 -119.5 -246t-124.5 -246z" />
<glyph unicode="B" horiz-adv-x="1398" d="M84 262q16 16 31.5 12t25 -17t9.5 -29.5t-19 -24.5q-18 -10 -32.5 -18.5t-10.5 -28.5q14 -49 50 -79t82 -45.5t96 -17.5q12 0 24 -1q36 0 66 5q70 12 124 41t98 71t79.5 94t66.5 110q55 104 101.5 240.5t97.5 273.5t114.5 261t153.5 204q-57 47 -125.5 69.5t-141.5 25.5 h-24q-62 0 -122 -12q-72 -16 -138 -42q-164 -66 -272.5 -178.5t-143.5 -276.5q-12 -61 -15 -127q-1 -13 -1 -25q0 -53 10 -103q12 -64 41 -122.5t78 -101.5q76 -68 168 -73h12q84 0 150 65q45 47 78 104q-4 -31 -23.5 -61.5t-42.5 -53.5q-35 -37 -82 -59.5t-98 -28.5 q-19 -2 -37 -2q-34 1 -66 7q-52 10 -94 36q-66 41 -104 106q-38 66 -52 142q-10 52 -10 106q0 24 2 49q6 79 31 146q27 80 75 150.5t108.5 131t132 107.5t147.5 78q66 28 144 44q72 15 146 14h13q80 -2 157 -20.5t140 -59.5q88 -54 134 -148q38 -77 37 -162q0 -18 -1 -37 q-6 -59 -31.5 -109t-64.5 -91t-88 -71t-105 -44q82 -12 137.5 -54t85.5 -100q31 -60 35 -130q1 -11 0 -21q0 -59 -18 -117q-20 -59 -60 -111.5t-93 -90.5q-52 -38 -114 -56q-44 -13 -88 -12q-19 0 -38 2q-70 10 -122 52t-67 120q-4 31 5.5 60.5t37.5 47.5q18 12 33.5 4 t22 -22t1 -29.5t-23.5 -19.5q-23 -6 -39 -14.5t-12 -36.5q10 -63 55 -100.5t105 -43.5q17 -2 32 -2q41 0 78 14q51 20 92 58.5t70 89.5t43 102q14 59 14 121v15q-2 70 -28.5 129t-79.5 97q-50 36 -127 36h-8v18q61 6 108 37t82 77t54.5 102.5t25.5 111.5q2 21 2 41 q0 63 -24 117q-32 72 -91 127q-80 -111 -132 -235t-98 -253t-96.5 -259t-125.5 -251q-33 -53 -73 -103t-88 -92t-104.5 -71t-121.5 -41q-36 -6 -73 -6q-15 0 -29 1q-52 3 -98 21.5t-84 51t-58 82.5q-10 28 -10 56q0 31 26 56z" />
<glyph unicode="C" horiz-adv-x="741" d="M14 338q-2 27 -2 55q0 92 25 193q33 131 90 256t128 231.5t138 171.5q41 41 97.5 79t121.5 64q64 26 132 38q37 6 72 7q30 -1 58 -5q62 -10 116 -44t93 -102q15 -32 21 -66q3 -18 3 -36q0 -17 -2 -33q-5 -35 -20.5 -67.5t-40.5 -59.5q-23 -25 -52 -44.5t-64 -21.5 q-27 -4 -52.5 5.5t-37.5 35.5q-8 14 -3 27.5t16 21t24.5 6t23.5 -17.5q29 -45 62.5 -45t66.5 43q38 50 38 110q0 54 -24 105q-24 53 -68 96t-100 64q-39 11 -78 11q-24 0 -48 -4q-62 -11 -120.5 -40t-109.5 -70.5t-90 -87.5q-66 -74 -127 -176t-107.5 -219t-70.5 -239 q-17 -86 -17 -166q0 -34 3 -66q4 -55 21 -112.5t48 -104.5t77 -77.5t112 -35.5q10 -1 20 -1q57 1 109 21q61 24 114.5 65.5t95.5 96t68 115.5q-2 -45 -27.5 -88t-61.5 -80.5t-76 -66.5t-70 -43q-39 -16 -82 -26.5t-86 -10.5q-11 -1 -22 -1q-67 -1 -121 21q-64 24 -109 69.5 t-72 109t-33 139.5z" />
<glyph unicode="D" horiz-adv-x="1230" d="M8 827q12 119 64.5 223.5t133.5 186.5t186.5 135t223.5 72q59 8 118 8q30 0 60 -2q90 -6 172.5 -33.5t156 -77t128.5 -120.5q49 -61 78 -133t41 -148q10 -61 10 -123q0 -15 -1 -31q-3 -78 -21 -153q-23 -100 -70 -195.5t-113.5 -176.5t-150.5 -143.5t-182 -95.5 q-95 -34 -191 -34h-18q-105 4 -205 55q-51 -25 -103.5 -41t-109.5 -20q-21 -2 -43 -2q-2 0 -4 -1q-20 1 -41 5q-23 4 -43.5 13t-34.5 25q-20 23 -12 49.5t35 45.5q30 23 72 25q12 1 24 1q28 0 53 -4q53 -10 106.5 -32.5t100.5 -43.5q94 66 161.5 157t121 194.5t100.5 211 t101.5 206t123 180.5t166.5 135q-47 80 -110.5 138t-137.5 95q-75 38 -160 50q-42 6 -84 6q-44 0 -89 -7q-115 -16 -213.5 -69t-171 -133t-115.5 -182.5t-45 -219.5v-18q0 -114 47 -207q27 -51 70 -89t94 -61.5t107 -29.5q19 -2 38 -2q37 0 74 8q47 10 90 37.5t74 66.5 q30 40 46 88q11 35 11 70q0 14 -2 27q-6 31 -24.5 33t-43.5 -3q-20 -2 -29.5 11.5t-8 30t13.5 28.5t35 6q37 -8 56 -38.5t24 -65.5q0 -104 -57.5 -189.5t-166.5 -136.5q-62 -23 -128 -23q-2 0 -4 -1q-64 1 -122 21q-60 20 -114 58.5t-93 96.5q-37 67 -49 139q-8 48 -8 97 q0 25 2 50zM103 61q-1 -17 13 -33q14 -18 44 -26q18 -4 38 -4q10 0 22 1q32 3 64.5 10t64.5 18.5t57 23.5q-27 10 -55.5 24.5t-58.5 25t-60.5 16.5t-61.5 2q-34 -5 -50 -21q-18 -16 -17 -37zM446 53q86 -36 171 -36q11 1 23 1q96 6 181 45q84 39 156 100.5t129 137.5t97 162 t61 174q22 93 22 186q0 33 -3 65q-10 126 -71 238q-90 -68 -151.5 -158.5t-108.5 -191t-90 -206t-97 -202t-130 -178t-189 -137.5z" />
<glyph unicode="E" horiz-adv-x="956" d="M30 396q-4 30 -5 62q-1 40 7 80q12 72 48 138q37 59 91 108.5t120 79.5q-18 59 -18 119q1 7 1 15q2 68 26 131t63.5 118.5t93.5 98.5q47 39 103 61.5t116 22.5h9q47 0 94 -20q52 -22 90 -58q37 -36 53 -88q6 -21 7 -43q0 -33 -14 -68q-16 -47 -60 -78t-92 -36 q-8 -1 -16 -1q-39 0 -73 22q-41 26 -53 89q-2 14 1 34.5t17 30.5q12 12 26.5 9.5t24.5 -14t12 -26t-12 -26.5q-14 -10 -23.5 -20.5t-9.5 -20.5q6 -29 31 -43t54.5 -16t59 6t48.5 24q29 27 47 75q12 31 12 59q0 16 -4 30q-18 80 -84.5 122t-144.5 42q-55 -4 -106.5 -23.5 t-90.5 -50.5q-49 -41 -81 -95t-46 -114q-10 -47 -11 -96q0 -14 1 -28q4 -64 27 -121q48 14 98.5 14.5t103.5 -14.5q53 -14 85 -46t42 -63q8 -31 2 -56.5t-22 -42.5t-41 -26.5t-51 -9.5q-8 -1 -16 -1q-35 0 -72 14q-45 18 -84 46.5t-69 65.5t-44 76q-141 -66 -192 -182 q-23 -55 -27 -118q-1 -15 -1 -30q0 -48 10 -94q13 -62 42 -119t70 -102q47 -49 107 -85.5t136 -52.5q44 -8 88 -8l60 3q74 10 140.5 37.5t122.5 74.5t97 111h15q-35 -72 -95.5 -128.5t-133.5 -92.5q-74 -34 -156 -50q-50 -9 -98 -10q-31 0 -62 4q-78 10 -148.5 44t-123.5 91 q-51 55 -81.5 122t-40.5 137zM373 872q12 -31 33.5 -62.5t50 -60t61.5 -48t68 -25.5q13 -3 24 -3q32 1 56 21q21 18 20 43q0 14 -6 31q-6 33 -35 60.5t-82 43.5q-46 10 -93.5 10t-96.5 -10z" />
<glyph unicode="F" horiz-adv-x="1103" d="M6 522q4 88 40 169t101 140q80 74 192 102q59 15 117 15q51 0 101 -12q0 92 33 180t100 154q86 78 206 111.5t241 41.5q46 2 92 2l170 -7q131 -11 264 -21q75 -5 155 -11q52 -4 103 -4q28 0 57 1q80 3 157 19.5t144 53.5q18 10 37 22.5t29 26t8 30.5t-24 38 q-14 14 -10.5 29.5t15.5 24.5q11 8 26 8h4q16 -1 26 -21q8 -18 7 -36v-12q-3 -24 -15 -46q-16 -27 -41 -44.5t-49 -33.5q-70 -41 -149 -58.5t-161 -20.5q-27 -1 -54 -1q-54 0 -109 4q-82 6 -158 14q-68 -53 -120 -122.5t-95 -150.5t-77 -171t-64 -182q29 6 62.5 3t51.5 -32 q12 -16 6 -30.5t-18 -20.5t-26.5 -2t-20.5 22q-8 23 -20.5 36t-41.5 5q-43 -135 -107.5 -269t-156.5 -240q-92 -104 -216 -168q-117 -60 -264 -60h-19q-123 6 -239 55t-190 148q-52 67 -78 149q-22 70 -23 148q0 12 1 24zM25 520q-1 -18 -2 -35q-1 -85 33 -158 q40 -87 113 -149.5t168 -96.5t200 -36h10q150 1 256 61q110 62 190 162.5t136.5 226.5t101.5 253q33 94 70.5 180t86 166t107.5 151.5t139 136.5q-128 10 -250 20q-75 6 -151 5q-48 0 -96 -2q-111 -4 -222.5 -35t-197.5 -100q-76 -64 -111 -154q-28 -72 -28 -146 q0 -19 2 -38q100 -31 172.5 -107.5t85.5 -189.5q41 -9 82 -9q20 0 42 2q64 7 117 46q37 27 59 64q22 36 30 76q3 18 4 35q0 22 -6 45q-10 40 -33 75q-29 35 -66 52q-27 13 -56 13q-10 0 -20 -2q-39 -4 -72.5 -25.5t-62.5 -45.5q16 37 49 60t74 28q13 2 26 3q33 0 65 -16 q44 -20 75 -57q29 -37 38 -81q5 -26 5 -50q0 -19 -3 -38q-7 -44 -29.5 -85t-59.5 -74q-53 -47 -122 -63q-35 -8 -70 -7l-68 7q0 -49 -22.5 -93t-60.5 -77q-39 -32 -87 -50q-36 -13 -73 -14q-13 0 -26 2q-59 10 -103 51.5t-48 104.5q-1 9 -1 17q0 51 31 92q-8 -29 -12 -55.5 t-2 -55.5q8 -55 45 -90t92 -45q15 -2 31 -3q25 0 50 7q40 10 72 34.5t53.5 61.5t27.5 84q0 8 1 16.5t1 18.5q-111 31 -172.5 111.5t-71.5 187.5q-68 22 -138 22q-35 1 -71 -5q-108 -16 -190 -87q-66 -57 -99.5 -137t-37.5 -166zM586 881q18 -82 72.5 -144.5t140.5 -91.5 q-18 82 -75.5 142.5t-137.5 93.5z" />
<glyph unicode="G" horiz-adv-x="894" d="M67 366v14q0 67 9 134q10 74 28.5 142.5t38.5 123.5q51 147 135 280.5t203 231.5q80 66 177.5 106t201.5 44h10q79 0 152 -28q78 -30 125 -101q33 -55 39 -117q2 -17 2 -34q0 -45 -12 -90q-17 -60 -51.5 -112.5t-82.5 -87.5q-35 -27 -77.5 -44t-86.5 -23q-24 -3 -48 -3 q-21 0 -42 2q-45 5 -83 25q-78 39 -106 119q-15 44 -15 88q0 37 10 74q12 37 32.5 72t47.5 51q-20 -29 -34.5 -58.5t-27.5 -64.5q-10 -37 -10 -77t11.5 -74.5t36 -63.5t61.5 -47t77 -20h11q35 0 70 10q40 10 77 30.5t66 49.5q37 37 61.5 81.5t34.5 94.5q7 35 7 70 q0 14 -1 28q-4 49 -22 94q-35 74 -96.5 104.5t-133.5 30.5h-9q-93 0 -178 -42q-89 -44 -159 -113q-104 -102 -181 -234.5t-122 -275.5q-16 -53 -30.5 -114.5t-22.5 -127t-8 -131.5t14 -125q23 -92 81 -159.5t159 -75.5v-3q14 23 44.5 65t69.5 86t81 79t81 41 q-72 -47 -133.5 -122t-97.5 -149h7q73 0 144 38q74 40 122 103.5t56 141.5q1 10 1 19q0 68 -50 133q-18 -4 -43.5 -9.5t-51.5 -6.5t-50.5 3t-38.5 19q-10 10 -7 25.5t13 23.5q25 16 50.5 17t50 -7t46 -20.5t35.5 -24.5q55 8 108.5 22.5t106.5 30.5q18 6 13 -16 q-68 -168 -115 -344t-100 -352q-16 -53 -34 -115.5t-40.5 -127.5t-50 -126t-64.5 -111q-35 -47 -83 -74q-46 -25 -92 -25h-3q-47 1 -89 32t-63 100q-17 53 -17 112q0 20 2 40q7 82 31.5 165t62.5 162.5t79 147.5q-113 4 -191.5 64.5t-109.5 166.5q-18 66 -19 139zM280 -467 q-4 -37 -4 -73q0 -45 7 -89q10 -66 41 -93q30 -25 66 -25q2 0 4 1q38 1 77 27.5t64 69.5q57 135 101 276.5t83 282.5t78 279.5t84 267.5q4 10 6 16t6 16q-37 -6 -68 -14q-27 -6 -50 -11t-27 -5q52 -72 52 -144q0 -10 -1 -20q-8 -82 -58.5 -147.5t-132.5 -107.5t-170 -42 q-33 -68 -65.5 -144.5t-57 -157.5t-35.5 -163zM563 496q-5 -8 -5 -13q0 -9 10 -13q16 -9 44 -10h13q22 0 45 2q31 3 45 7q-12 12 -35 20.5t-46 13.5q-17 4 -33 4q-6 0 -11 -1q-21 -2 -27 -10z" />
<glyph unicode="H" horiz-adv-x="1601" d="M26 294q14 72 64 124q36 36 92 58q39 15 78 16q16 0 31 -3q35 -4 65.5 -21t51.5 -44q22 -26 29 -60q3 -14 3 -29q0 -21 -6 -42q-10 -33 -36.5 -57.5t-59.5 -31.5q-13 -3 -25 -3q-21 0 -39 7q-30 11 -49 48h17q18 -27 42.5 -35t49 -1t43 27.5t22.5 51.5q2 10 2 20 q-1 42 -29 79q-34 46 -85 61q-23 8 -48 8q-21 0 -43 -6q-48 -12 -85 -47q-51 -47 -67 -117q-5 -22 -4 -43q0 -47 23 -92q20 -41 55.5 -68.5t77.5 -43t87 -20.5q25 -3 49 -3q19 0 37 2q96 8 168.5 58t119.5 132q27 43 48.5 91t42.5 102q-68 48 -90 120q-14 45 -15 92 q-1 28 5 56q14 76 57 144.5t104 111.5q72 51 154 65q47 102 108.5 192.5t149.5 162.5q-70 20 -147 32.5t-156 14.5h-31q-62 0 -120 -6q-73 -8 -137.5 -32t-120.5 -66t-103 -109q-56 -80 -70 -168q-3 -20 -3 -38q0 -66 36 -122q35 -56 91 -68q20 -4 39 -4q36 0 70 15 q51 23 86 65.5t35 100.5v9q0 43 -33 73q-16 14 -36.5 21t-40 6t-38 -12t-26.5 -36h-16q8 31 29.5 46.5t46 18.5t50 -5.5t46.5 -26.5q20 -20 28.5 -45t8.5 -49q-2 -61 -41 -109.5t-93 -70.5q-38 -17 -79 -17q-18 0 -36 3q-60 11 -108 57q-41 39 -54 91q-9 38 -9 76q0 15 1 29 q5 53 27.5 104.5t55.5 92.5q49 57 113.5 95t136 60.5t146.5 30.5q60 6 119 6h30q86 -2 166.5 -15t152.5 -36v-20q-86 -63 -139.5 -152.5t-91.5 -187.5q16 1 31 2q102 0 196 -58q47 82 101.5 160t123.5 143q43 39 93.5 74t105.5 56.5t115 29.5q24 3 47 3q36 0 73 -7 q68 -14 122 -55t81 -105q21 -48 20 -96q-1 -29 -7 -57q-20 -78 -76 -131q-38 -35 -88 -51q-38 -12 -76 -11q-12 0 -25 1q-51 5 -94 34t-63 84q-12 31 -9.5 61.5t18 56t40 44t55.5 22.5q4 0 7 1t7 1v-18h-6q-58 -8 -76 -55q-8 -21 -9 -42q0 -27 13 -55q14 -33 45 -56 q31 -24 69 -34q26 -7 53 -6q13 0 27 1q42 5 83 34q66 47 86 117q8 29 8 60q0 41 -16 83q-23 59 -73 98t-112 54q-41 9 -79 9q-19 0 -39 -2q-56 -7 -107 -31t-97 -60.5t-85 -77.5q-66 -72 -120 -153t-97 -158q60 -49 76 -125q6 -32 7 -63q-1 -43 -13 -84q-22 -71 -78 -119 q-48 -41 -117 -41q-11 0 -23 1q-6 -37 -8 -73q-1 -18 -1 -35t1 -35q20 -1 42 -1q34 0 70 2q20 1 40 1q40 0 80 -4q60 -6 112.5 -26.5t91.5 -67.5q31 -35 33 -74v-8q-1 -34 -15 -64q-16 -32 -49.5 -57t-76.5 -31q-26 -4 -52 -4h-18q-35 2 -69 13q-102 31 -164 116.5 t-76 188.5q-70 2 -143.5 13t-135.5 44q-23 -47 -45 -92t-49 -84q-57 -80 -140 -135.5t-181 -63.5q-17 -2 -35 -2q-28 0 -58 4q-50 6 -93.5 22.5t-81 46.5t-58.5 73q-23 47 -23 97q0 21 4 43zM664 684q-5 -28 -5 -56q0 -42 12 -82q20 -68 83 -118q47 129 92 272.5t104 278.5 q-74 -16 -133 -57q-57 -41 -98 -104.5t-55 -133.5zM793 401q59 -33 130.5 -43t139.5 -14q-5 41 -5 81t5 79q-53 14 -75 54q-21 37 -21 78v7q2 45 27.5 82t68.5 45v-18q-37 -8 -57.5 -40t-22.5 -71v-7q-1 -35 17 -66q20 -34 65 -46q18 86 52 184.5t93 208.5q-45 43 -100 59 q-44 13 -90 14q-11 0 -23 -1q-59 -145 -104 -300t-100 -286zM1116 326q10 -98 52 -177t143 -108q44 -13 88 -13q22 0 43 3q39 8 68.5 29.5t45.5 51.5q12 23 12 50q0 7 -1 14q-4 35 -33 66q-39 45 -90 62q-52 18 -108 22q-28 2 -56.5 2t-57 -2t-55.5 -2t-51 2zM1128 508 q63 2 103.5 42t56.5 96q10 35 9 72q1 22 -3 46q-10 62 -45 110q-41 -94 -70.5 -184t-50.5 -182z" />
<glyph unicode="I" horiz-adv-x="806" d="M-38 364v6q0 77 28 146q28 72 86.5 130t144.5 87q-8 42 -8 83q0 30 4 60q10 70 38 135.5t72 124t97 105.5q76 66 161 103.5t177 56t187 25t190 6.5q61 0 119.5 1t109.5 5h2v-19q-88 -47 -147.5 -127t-100.5 -166q-61 -125 -104 -266t-94.5 -279.5t-124 -263 t-191.5 -215.5q-74 -56 -164 -80q-60 -16 -118 -16q-30 0 -59 4q-87 12 -159.5 62.5t-113.5 140.5q-31 71 -32 151zM0 379q8 -70 43 -131q39 -70 106.5 -118t146.5 -68q49 -13 99 -14q31 0 62 6q82 12 147 65q70 57 118 135t86 167t66.5 186.5t58.5 192.5t64.5 184t81.5 165 q49 78 110.5 143.5t137.5 124.5q-90 -6 -188 -6q-90 0 -178.5 -10t-171 -35t-158.5 -68t-142 -108q-104 -98 -154 -215q-46 -108 -46 -207v-16q26 5 59 5q20 0 44 -2q60 -5 113.5 -25.5t93.5 -56.5t46 -91q2 -29 -11 -49.5t-37 -34t-50.5 -18.5t-50.5 -5q-49 2 -93.5 23.5 t-81 53.5t-62.5 74t-36 89q-84 -31 -136 -84q-51 -53 -73 -117q-16 -47 -16 -97q0 -19 2 -38zM291 733q4 -45 18.5 -87t41 -74.5t62.5 -54t83 -23.5q6 -1 13 -1q13 0 29 3q24 4 46 14t36 28q12 15 11 36v6q-6 49 -45 81.5t-91.5 51t-108.5 22.5q-22 2 -42 2q-30 0 -53 -4z " />
<glyph unicode="J" horiz-adv-x="686" d="M-78 -310q6 74 31 136q43 115 112.5 221.5t158.5 197.5t193.5 163.5t219.5 119.5q59 164 125 330t158 313q45 70 99 136.5t126 113.5q-39 -4 -82 -4h-90q-98 -2 -189.5 -9t-177.5 -36q-86 -31 -168 -94.5t-139 -147t-81 -180.5q-10 -43 -10 -86q0 -54 17 -108 q25 -82 90.5 -122t143.5 -46q-14 -1 -27 -1q-28 0 -56 5q-42 8 -80 28.5t-68.5 50t-49.5 66.5q-36 76 -36 153q0 31 6 62q20 109 85.5 202t162 160.5t196.5 90.5q92 20 189.5 23.5t191.5 3.5q55 0 106 2t99 6h2v-17q-78 -43 -130.5 -112.5t-91.5 -147.5 q-72 -147 -129 -299.5t-112 -306.5q35 12 69.5 19.5t69.5 21.5q-31 -20 -68.5 -32.5t-76.5 -26.5q-6 -20 -13.5 -40t-15.5 -42q-35 -104 -69.5 -212t-75.5 -214.5t-89.5 -208t-111.5 -193.5q-31 -47 -77 -82.5t-105 -50.5q-27 -7 -56 -7q-26 0 -52 6q-56 13 -91 65 q-34 48 -34 110q0 10 1 20zM-14 -369.5q0 -31.5 8 -58.5q16 -49 58 -62q19 -6 38 -6q24 0 49 9q41 16 79 54t73 91q59 92 106 197.5t86 215t74 221t72 216.5q-229 -98 -384 -282.5t-227 -422.5q-8 -23 -16 -51t-12 -59t-4 -62.5z" />
<glyph unicode="K" horiz-adv-x="1492" d="M57 133q14 16 28.5 20.5t28 -2t25 -17.5t21.5 -25q29 -49 92 -76q37 -14 78 -16h10l72 9q41 10 80.5 28t72.5 40q86 59 144.5 151.5t99.5 203.5q23 61 39 123.5t35 123.5q25 92 54.5 182.5t69.5 175.5t95 161.5t131 142.5q18 16 10 26.5t-31 12.5q-92 6 -190 6 q-123 -2 -238.5 -19.5t-213 -64.5t-172 -128t-113.5 -210q-23 -66 -28 -125q-2 -23 -2 -45q0 -35 5 -68q14 -88 60.5 -145t111.5 -86q76 -33 166 -33h10q96 2 178 33q-35 -29 -82 -41t-98 -12t-101 10t-89 25q-84 33 -143.5 96t-75.5 162q-5 30 -5 62q0 28 4 58q9 64 37 138 q45 119 131.5 196.5t194 123.5t227 66.5t234.5 22.5q33 1 65 1h32q48 -1 95 -5q37 -4 49.5 -23.5t-16.5 -45.5q-68 -68 -113 -133.5t-77.5 -139.5t-58 -161t-52.5 -197q127 154 258 299t289 258q59 43 125.5 85t144.5 52q14 2 29.5 2t27.5 -5q13 -6 20 -18q5 -10 5 -23v-9 q-4 -47 -34.5 -49t-61.5 10q-39 16 -73 16q-30 0 -57 -12q-58 -25 -118 -68q-160 -117 -297 -267t-266 -310q-4 -8 -5 -15.5t-3 -11.5q19 3 38 3q40 0 82 -12q60 -17 101 -62q41 -49 51 -116t12 -135.5t8.5 -135t43.5 -115.5q18 -27 41.5 -38t49 -9t51.5 13t48 30 q39 29 62 55q-6 -18 -18.5 -33.5t-27.5 -32.5q-27 -25 -59.5 -40t-64.5 -18q-7 -1 -14 -1q-26 0 -51 10q-32 12 -56 43q-16 18 -24.5 41t-14.5 47q-10 43 -13.5 99.5t-8.5 115t-15 112.5t-36 93t-72 59q-28 12 -67 12q-24 0 -52 -5q-18 -80 -47 -160t-72 -151.5t-99.5 -133 t-128.5 -104.5q-83 -50 -161 -68q-50 -11 -105 -12q-32 0 -65 4q-39 4 -76 12.5t-72 24.5q-14 6 -26.5 16.5t-20.5 21.5q-7 10 -7 22q0 15 15 32z" />
<glyph unicode="L" horiz-adv-x="1161" d="M16 29q4 27 19.5 46t37 32.5t47 20.5t50.5 9q9 1 18 1q56 0 112 -22q64 -24 126 -44q100 80 166.5 195.5t117 242.5t93.5 257t100 241q45 88 104.5 170t133 143t163.5 94q73 27 158 26q20 0 41 -1q53 -4 104.5 -21.5t86.5 -52.5q25 -24 38 -52q7 -15 7 -31t-6 -34 q-8 -23 -25.5 -25.5t-32 5.5t-20.5 23.5t8 31.5q19 23 19 43q0 9 -4 17q-12 26 -40 44.5t-67 27.5q-32 7 -57 7h-11h-9q-91 1 -166 -37q-79 -40 -143.5 -102.5t-114.5 -141.5t-89 -153q-57 -113 -107.5 -242t-108.5 -253.5t-131 -237.5t-177 -193q63 -18 135 -38.5 t146 -29.5q41 -5 82 -5q32 0 62 3q72 7 136 48q35 20 62.5 51t35.5 72q2 12 2 23q0 36 -24 65q-20 23 -46 29t-53 -9q-23 -16 -19.5 -34.5t13.5 -36.5q12 -20 4 -32.5t-22 -21.5q-16 -6 -32.5 0.5t-23.5 30.5q-4 31 10.5 56.5t37.5 44.5q32 21 68 21h7q40 -2 72 -32 q26 -34 26 -76q0 -15 -3 -30q-8 -45 -36 -79t-63 -63q-88 -62 -200 -76q-46 -6 -90 -6q-62 0 -121 11q-59 12 -119 29.5t-113 33.5q-35 -18 -68.5 -35.5t-69.5 -31t-74 -18.5q-15 -2 -30 -2q-25 0 -51 5q-34 8 -60 34q-22 22 -23 55q0 5 1 10zM42 1q5 -36 60 -52 q25 -8 52 -8q8 0 16 1q35 3 70.5 15t68.5 28.5t62 34.5q-31 10 -70 23.5t-80 22t-80 8.5t-69 -17q-31 -18 -31 -47q0 -5 1 -9z" />
<glyph unicode="M" horiz-adv-x="1990" d="M40 341q-2 21 -2 41q0 60 20 121q26 81 92 146q53 53 121.5 81t144.5 28h8q82 0 159 -38q81 -40 124 -118q30 -53 31 -111q0 -19 -4 -41q-14 -80 -79 -137q-43 -37 -96 -49q29 16 53.5 34.5t46.5 41.5q49 51 49 113q0 57 -38 108q-47 66 -116 107t-148 47q-10 1 -21 1 q-53 0 -106 -18q-64 -20 -113 -61q-68 -57 -86 -129q-10 -37 -10 -74q0 -36 8 -70q18 -72 64 -135t106 -106q92 -67 194 -85q50 -9 99 -8q51 0 102 10q98 20 186.5 77t151.5 147q57 88 97 183.5t73 193.5t63.5 197.5t67.5 197t85 188.5t116 175q-119 12 -243 12t-239 -39 q-111 -35 -172 -119t-77 -198q-5 -31 -6 -61q0 -26 5 -54q9 -56 35 -104q38 -59 94 -86q23 -11 47 -11q35 0 74 23q37 23 61.5 58.5t35.5 78.5q4 23 8 41t8 45q6 -18 6 -41.5t-4 -44.5q-18 -102 -104 -154q-50 -31 -105 -31q-17 0 -37 4q-76 14 -125 73q-45 55 -55 125 q-5 32 -5 64q0 37 7 73q23 123 105 210t198 128q120 38 245 38q16 -1 32 -1q142 -6 282 -17l-38 -215l-232 -1034q51 129 108.5 247.5t120 233.5t132 226.5t143.5 226.5q59 92 137 172t182 123q59 23 129 32q24 3 48 3q44 0 86 -11q29 -9 51 -27q12 -10 12 -26q0 -13 -8 -29 q-10 -20 -21.5 -26.5t-26 -4t-27.5 11.5t-26 21q-41 41 -95 51q-16 3 -31 2q-38 0 -76 -16q-49 -20 -90 -57t-76 -81t-62.5 -94t-50.5 -96q-41 -82 -70.5 -169t-52.5 -177q-16 -59 -33.5 -132.5t-27.5 -150.5q-9 -70 -9 -136v-13q1 -72 23 -131q18 -45 48 -69.5t65 -30.5 q12 -2 24 -2q24 0 48 8q38 12 69 43q23 20 40.5 44t31.5 46q-4 -27 -20.5 -54.5t-41.5 -49.5q-33 -32 -75 -48q-39 -16 -81 -15h-5q-45 1 -87 18.5t-73 52.5q-46 55 -54 138q-3 28 -3 57q-1 56 9 116q14 90 40 177t45 151q31 100 68.5 195.5t88.5 185.5 q-170 -256 -316 -525.5t-245 -562.5l-39 4l269 1352q-96 -123 -151.5 -265.5t-100.5 -288.5t-96.5 -290.5t-139.5 -271.5q-63 -90 -157 -148t-198 -82q-69 -16 -140 -16q-36 0 -74 4q-110 12 -205 64q-78 45 -123 116.5t-54 152.5z" />
<glyph unicode="N" horiz-adv-x="1435" d="M16 202q-6 31 -5 61q1 38 9 77q16 70 66 127q41 45 98.5 71.5t119.5 31.5q14 1 29 1q48 0 95 -13q61 -17 111 -58q70 -61 79 -150q27 12 55.5 19.5t56.5 7.5t53.5 -10.5t45.5 -36.5q14 -20 21.5 -46t4.5 -52.5t-15.5 -51t-34.5 -43.5q-44 -39 -95 -39q-10 0 -22 2 q-64 10 -115 52q-31 27 -62.5 72.5t-67 86.5t-77.5 63q-23 12 -50 13q-22 0 -46 -8q-35 -12 -45 -32.5t-3 -40t27.5 -33t47.5 -13.5q20 4 31.5 -9t11.5 -29.5t-10.5 -31t-34.5 -10.5q-18 2 -34.5 12.5t-29.5 22.5q-18 20 -25 48t-3 54.5t18.5 48t40.5 31.5q28 10 53 10 q27 0 49 -11q44 -21 80.5 -61t70.5 -88t71 -81q43 -41 101 -49q9 -1 19 -1q47 0 87 34q44 36 44 81q0 42 -32 68q-25 18 -53.5 22.5t-58 -2t-59.5 -20.5t-54 -31q-6 55 -32 104.5t-69 84.5q-41 33 -92 51t-103 20h-10q-46 0 -89 -15q-48 -17 -85 -58q-47 -53 -61 -120 q-8 -36 -7 -71q0 -30 5 -60q12 -64 48 -122.5t91 -95.5q94 -70 202 -77q17 -1 33 -1q91 0 177 32q102 38 190 110.5t142 164.5q41 61 88 157.5t86 207.5q38 112 62 232q20 101 20 194v36q-4 110 -44 199.5t-131 142.5q-53 35 -117 36h-5q-61 0 -117 -21q-66 -23 -122 -67 t-96 -102.5t-63.5 -126t-23.5 -136.5q0 -94 41 -183q37 -74 97 -110q53 -31 107 -31q8 0 16 1q62 5 118.5 48t87.5 127q10 33 15 67t5 68q11 -32 11 -65v-5q-1 -36 -11 -71q-31 -84 -91 -132q-60 -49 -131 -61q-25 -4 -49 -4q-47 0 -95 16q-72 24 -129 85q-51 55 -73 125 q-19 59 -19 120q0 11 1 23q8 76 44 144.5t88.5 125t118 98.5t134.5 64q65 23 137 27q10 1 20 1q61 0 118 -22q92 -29 149.5 -102.5t91 -167.5t52 -194.5t30.5 -184.5q10 -72 19.5 -143.5t15.5 -145.5q51 145 122 302t167 292t225 232.5t299 128.5q28 5 56 5t55 -5 q32 -6 58 -26q16 -13 17 -34q0 -12 -5 -26q-8 -25 -21.5 -33t-29 -7t-31 10t-29.5 22q-55 45 -115 48h-13q-51 0 -103 -20q-58 -22 -110 -62t-95 -81q-92 -88 -159 -190.5t-117 -214t-89 -228.5t-76 -236v-24q0 -35 1 -77v-21q0 -32 -2 -64q-3 -43 -13 -83t-31 -70 q-23 -29 -49 -21t-31 55q0 49 10.5 96.5t26 93.5t31.5 91t29 92q-6 141 -25.5 298t-60.5 296q0 -102 -23.5 -215t-64.5 -222.5t-93.5 -210t-109.5 -179.5q-68 -96 -164 -170q-95 -74 -205 -110q-87 -28 -177 -28q-24 -1 -48 1q-115 10 -219 81q-57 39 -96.5 101t-51.5 130z M1298 51q0 -17 6 -25q2 -2 4 -2q6 0 15 17q16 27 23.5 57.5t10.5 62.5q2 24 2 48v15q-1 32 -1 61q-16 -53 -39 -116q-21 -58 -21 -109v-9z" />
<glyph unicode="O" horiz-adv-x="811" d="M16 464q8 108 39 213t78 205.5t100 186.5q47 80 105.5 154.5t134.5 130.5q53 38 119 62q61 22 123 22h10q66 -2 122 -32t89 -97q41 -83 52 -175q6 -50 6 -101q0 -41 -4 -83q-9 -92 -33.5 -182t-55.5 -174q-25 -72 -58.5 -144.5t-75.5 -141t-93 -129t-115 -105.5 q-51 -35 -110.5 -53.5t-120 -18.5t-116.5 22.5t-101 71.5q-29 33 -48.5 73t-29.5 85q-19 76 -19 155q0 28 2 55zM128 370q9 -116 58 -220q27 -59 69 -89q42 -29 91 -35q12 -1 25 -2q37 0 77 12q54 16 101 52q121 94 191.5 232.5t109.5 293.5q18 80 32.5 166t15.5 172v9 q0 81 -16 160q-18 83 -61 159q-29 47 -66.5 74.5t-81.5 35.5q-18 3 -36 4q-27 0 -55 -8q-47 -12 -90 -45q-76 -53 -126.5 -132.5t-89.5 -159.5q-47 -98 -85.5 -212t-54.5 -232q-11 -76 -12 -152q1 -42 4 -83z" />
<glyph unicode="P" horiz-adv-x="1300" d="M33 92q0 35 17.5 60.5t43 41t57 23.5t62.5 10q45 0 88 -14t84 -37.5t77 -52.5t64 -60q92 86 161 219.5t130 290.5q-39 20 -71.5 47t-55.5 68q-50 -18 -100 -18l-88 14q-94 29 -150 115q-29 45 -41 105q-7 33 -7 68q0 29 5 60q14 88 61.5 155.5t114 118t146.5 81t162 45.5 q77 13 156 12h39q99 -4 183 -27q61 104 141.5 179t190.5 104q33 8 71 11q10 1 19 1q27 0 51 -7q32 -9 57 -30.5t36 -60.5q5 -24 5 -47q0 -43 -18 -83q-26 -60 -76.5 -109.5t-112.5 -84.5t-118 -49q59 -86 69 -179q3 -24 3 -48q1 -67 -21 -131q-30 -86 -91.5 -160 t-141.5 -121q-80 -48 -174 -64q-33 -6 -65 -5q-62 0 -124 20q-66 -160 -142.5 -295t-186.5 -217q43 -53 97 -107.5t114 -87.5q62 -34 126 -36q3 0 5 -1q62 0 125 54h24q-58 -70 -128 -82q-21 -4 -43 -4q-49 -1 -98 19q-71 28 -139.5 86.5t-125.5 129.5q-61 -42 -136 -66 q-53 -17 -108 -17q-22 0 -45 3q-31 2 -62.5 14.5t-57 33t-42 48t-16.5 64.5zM51 92q0 -33 14.5 -57.5t38 -42t52 -28.5t57.5 -13q15 -1 30 -1q53 0 113 16q78 20 133 63q-25 31 -54 62.5t-64 58t-74 42t-84 15.5q-27 0 -54.5 -6t-51 -20.5t-40 -36t-16.5 -52.5zM366 1040 q-4 -24 -5 -51q0 -74 34 -158q39 -83 117 -119q43 -20 90 -20q39 0 80 13q-27 49 -32 102q-1 15 -1 30q1 39 9 75q12 52 40.5 96.5t71.5 78.5q-43 29 -91 30h-4q-45 -1 -83 -21q-38 -22 -60 -61q-13 -24 -14 -54q0 -19 6 -41h-24q-5 21 -5 40q-1 40 19 74q28 52 79 80 q47 26 102 25h9q60 -2 109 -43q53 35 117.5 53.5t130.5 28.5q23 49 48.5 97t47.5 98q-87 35 -191 38h-23q-92 0 -180 -22q-99 -25 -186.5 -76t-141 -124t-69.5 -169zM668 807q4 -51 30 -96q53 20 92 63q38 44 54 96q8 28 9 56q-1 25 -7 50q-14 54 -64 97q-39 -31 -66.5 -74 t-39.5 -92q-9 -37 -9 -75q0 -12 1 -25zM711 696q39 -70 112 -104q57 145 112.5 297.5t117.5 290.5q-59 -10 -117.5 -27.5t-112.5 -48.5q19 -18 29 -43q27 -53 27 -109.5t-21.5 -106.5t-59.5 -90t-87 -59zM881 569q53 -15 105 -14q37 0 72 7q85 18 154.5 66t118.5 118.5 t71 151.5q14 52 13 106q0 30 -4 60q-12 85 -63 161q-57 -12 -113.5 -19.5t-116.5 -15.5q-66 -147 -121 -307t-116 -314zM1126 1208q53 8 106.5 15.5t106.5 19.5q-45 70 -135 121q-23 -35 -40.5 -74t-37.5 -82zM1221 1397q113 -47 188 -142q47 16 98.5 48t92.5 77 q40 44 62 98q14 34 13 71q0 20 -4 42q-14 63 -57 85q-30 15 -63 15q-15 0 -31 -3q-51 -10 -94.5 -42t-80 -74t-67 -89t-57.5 -86z" />
<glyph unicode="Q" horiz-adv-x="1269" d="M-9 52q5 28 30.5 53.5t68.5 35.5q35 9 74 9q23 0 46 -3q66 -8 129.5 -24.5t121 -35.5t94.5 -30q104 49 194.5 123t164 164t130 192.5t93.5 211.5q37 111 45 230q1 17 1 34q0 100 -40 194q-35 86 -102.5 136.5t-166.5 52.5h-7q-147 0 -241 -83q-96 -85 -134 -222 q-19 -61 -19 -127q0 -63 21 -119q20 -56 63 -99t111 -59q32 -8 61 -8q23 0 45 5q49 11 86 43t60.5 79t29.5 104q1 12 1 24q0 35 -9 73q-12 49 -59 77q-35 20 -78 23h-17q-33 0 -63 -8q39 20 84 24q9 1 18 1q35 0 68 -13q63 -25 86 -88q17 -46 17 -90q0 -18 -3 -35 q-8 -61 -38.5 -110.5t-75.5 -81t-101 -41.5q-24 -5 -47 -5q-33 0 -67 9q-74 18 -119 64t-67.5 105.5t-22.5 128t18 132.5q39 133 138.5 227t244.5 109q21 2 41 2q36 0 71 -6q56 -11 105 -34.5t90 -62.5t68 -92q29 -59 37 -125q4 -34 4 -70q0 -32 -3 -64q-7 -69 -25.5 -135.5 t-43.5 -123.5q-43 -109 -107.5 -208t-144.5 -185t-173 -157t-195 -122q72 -27 162 -49q82 -20 164 -20h15q89 2 166.5 35.5t120.5 117.5q35 72 39 156q10 -26 10 -53q0 -15 -3 -30q-9 -42 -27 -81q-57 -100 -148.5 -144t-196.5 -51q-24 -1 -48 -1q-82 0 -166 17 q-107 23 -197 56q-92 -35 -195 -54q-45 -7 -88 -7q-58 0 -114 14q-49 12 -70 39q-16 22 -16 44q0 6 1 12zM31 20q6 -18 30.5 -33.5t55.5 -19.5q33 -4 67 -4q49 0 99 9q84 14 161 42q-78 25 -166 50q-58 16 -114 16q-28 0 -55 -4q-51 -6 -67 -22q-13 -13 -13 -25q0 -5 2 -9z " />
<glyph unicode="R" horiz-adv-x="1579" d="M32 304q-1 9 -1 18q0 57 28 114q29 59 81.5 101.5t117.5 60.5q40 11 80 11q18 0 36 -2q58 -7 106 -36.5t79 -77t31 -110.5q0 -29 -11.5 -58.5t-31.5 -52.5q-20 -25 -46 -34t-50.5 -4.5t-46 20.5t-33.5 47q-10 23 -6 50.5t22 47.5q14 16 30.5 14.5t26 -13t9.5 -27 t-19 -25.5q-12 -8 -29.5 -23.5t-7.5 -29.5q19 -41 59 -44h6q36 0 60 36q14 23 19.5 48t1.5 48q-10 43 -35 77t-59.5 58.5t-75.5 38.5t-82 14q-66 0 -122 -33.5t-79 -105.5q-11 -38 -11 -74q0 -22 4 -44q11 -56 44 -102t82 -81t104 -53q51 -16 109 -22q28 -3 54 -2q30 0 58 3 q56 6 107 22.5t92 43.5q72 47 117 121.5t78 163.5q33 92 59.5 188t55 191.5t65.5 187.5t92 174q35 53 83 98t97 88q-80 47 -192 57q-37 3 -73 4q-75 0 -151 -14q-114 -22 -215.5 -72t-158.5 -126q-33 -45 -53.5 -95.5t-22.5 -107.5q-1 -9 0 -18q0 -49 18 -93q22 -52 82 -77 q32 -15 64 -15h6q35 2 66.5 17.5t57.5 42t42 59.5q11 27 11 57q0 20 -5 40q-12 52 -68 67q-33 8 -62.5 -3t-39.5 -46q-4 -10 -3 -24.5t7 -24.5q10 -16 31 -13q14 2 29.5 1.5t26.5 -7t14.5 -19t-5.5 -30.5q-8 -14 -28.5 -17.5t-36.5 7.5q-18 10 -32.5 24.5t-20.5 34.5 q-7 22 -7 44q0 14 3 28q10 40 49 58q24 11 49 11q16 0 31 -4q33 -8 53 -30.5t29.5 -51t6.5 -59.5t-16 -57q-16 -37 -45.5 -63.5t-65.5 -42t-76 -16.5h-5q-37 0 -72 13q-68 29 -101.5 84t-37.5 121v11q1 60 21 113q22 58 63 105q66 76 177 128q110 52 236 74q80 14 161 14 q47 0 93 -4q127 -12 226 -68q59 -33 104 -84t70.5 -112.5t31.5 -129.5q1 -15 0 -30q0 -52 -14 -103q-27 -92 -92 -174t-158 -121q43 -37 70 -86t42 -104.5t23.5 -112.5t14.5 -109q10 -80 14 -190.5t15 -228.5q6 -68 14 -147t26.5 -156.5t48 -149.5t79.5 -125 q57 -66 142 -100.5t176 -37.5h17q82 1 159 27q85 30 144 95q67 72 83 168q4 23 3 46q0 74 -40 148q-29 53 -83 83q-35 19 -78 19q-24 0 -52 -6q-45 -8 -86 -31.5t-72 -57.5q-32 -34 -50 -77q-17 -39 -16 -81v-9l-2 -2q-20 12 -48 23.5t-56.5 14.5t-56 -3t-46.5 -24 q-22 -21 -22 -51q1 -6 1 -13q6 -39 46 -70q33 -24 65 -24q10 0 19 2q41 10 77 38.5t64.5 69.5t48.5 74q14 25 33 48.5t41.5 41t49 24.5t57.5 -5q39 -14 55 -51q10 -22 10 -45t-10 -45q-20 -46 -66 -56q-23 -6 -33 6.5t-11 27.5t8.5 27.5t27.5 10.5q31 -4 52.5 12t5.5 55 q-12 29 -45 41q-27 10 -51.5 3t-44 -23.5t-36 -39t-28.5 -42.5q-23 -39 -53.5 -81t-69.5 -70.5t-83 -36.5q-9 -1 -17 -1q-36 0 -76 25q-42 31 -52 82q-3 14 -3 27q0 35 18 65q23 38 61 50q20 7 40 6q18 0 38 -5q12 -4 24.5 -8t24.5 -8q0 53 22.5 94t58.5 70t82 44t93 17h15 q70 0 126 -34q62 -38 101 -97q59 -92 59 -189v-22q-8 -110 -73 -194q-68 -90 -161 -122q-67 -23 -137 -23q-27 -1 -55 3q-98 12 -192 61.5t-162 123.5q-49 55 -86 121.5t-61.5 140.5t-41 152.5t-24.5 158.5q-14 113 -19 221.5t-12 202.5q-4 51 -10 106.5t-19.5 109.5 t-36 104.5t-57.5 91.5q-35 -14 -81 -22q-17 -3 -32 -4q-26 0 -48 9q-39 16 -33 42t41 40q18 6 41 6q20 0 44 -5q50 -11 81 -34q98 49 147 129t60 173q2 22 2 45q1 35 -5 71q-10 60 -32.5 113t-55 98t-75.5 76q-106 -90 -163.5 -206t-95.5 -242.5t-71 -256t-90 -245.5 q-41 -82 -99.5 -150.5t-134.5 -120.5q-47 -33 -105 -56q-58 -22 -120 -34q-57 -11 -113 -11h-9q-62 1 -120 17q-68 18 -122 61.5t-85.5 101t-36.5 123.5zM1170 608q0 -13 22 -22q17 -9 36 -9q14 0 30 5q38 12 67 22q-23 18 -63 30q-20 6 -37 7q-17 0 -31 -6q-24 -9 -24 -27z " />
<glyph unicode="S" horiz-adv-x="933" d="M78 426q23 125 115 215q37 33 81 55q42 23 90 31q27 5 55 5q20 0 41 -3q48 -6 93 -29q41 -20 69 -54t42 -75q13 -38 13 -79v-6q-1 -44 -20 -85q-27 -59 -79 -89q-39 -22 -83 -22q-15 0 -30 3q-55 10 -88 39q18 -8 40.5 -14.5t47.5 -8.5q11 -1 21 -2q42 -1 82 19 q50 24 67 82q6 24 6 49q1 42 -17 85q-28 68 -85 107q-77 52 -167 52h-4q-92 -1 -161 -72q-37 -41 -56.5 -93.5t-23.5 -109.5q-1 -12 -1 -24q0 -80 35 -149q40 -79 111 -132q86 -67 188 -85q34 -6 68 -6q68 0 134 25q92 39 161.5 117t91.5 174q10 40 10 78q-1 48 -17 91 q-30 77 -83 142.5t-118.5 126t-116.5 121.5q-29 37 -52.5 77t-34.5 83q-10 39 -10 81v7q1 45 21 90q39 96 129 152q29 16 62.5 29.5t68.5 19.5q29 6 59 6q37 0 73 -10q66 -18 102 -74q28 -41 30 -93q0 -3 1 -6q0 -49 -25 -89q-20 -34 -57 -60q-27 -18 -58 -19q-12 0 -25 3 q-23 4 -48 23.5t-29 48.5q0 14 11 23t25.5 11t26.5 -5t14 -25q0 -18 7 -31q12 -23 33.5 -22t37.5 12q29 16 39 45q13 30 13 62q0 8 -1 17q-4 42 -24 78q-29 49 -85 75q-40 19 -82 19q-16 0 -32 -3q-70 -14 -121 -50q-80 -57 -96 -153q-5 -24 -5 -48q0 -47 18 -91 q28 -66 71 -125q51 -68 116.5 -134.5t118 -140.5t76.5 -156q10 -34 9 -72q0 -52 -19 -110q-35 -100 -106.5 -183t-167.5 -128q-92 -42 -195 -42q-13 0 -26 1q-117 6 -215 70q-92 62 -134 158q-30 69 -31 141q0 29 5 59z" />
<glyph unicode="T" horiz-adv-x="1005" d="M66 396q10 74 57 136q27 37 64.5 66t81.5 45q43 15 91 19l18 2q38 0 73 -13q51 -14 90 -51t49 -92q3 -16 2 -32q0 -46 -22 -90q-30 -58 -87 -83q-31 -13 -66 -13q-17 0 -35 3q-54 10 -75 59q-8 23 2 37t25.5 17.5t30 -4t16.5 -27.5q0 -23 2 -33q8 -29 38 -29t50 9 q51 18 65 69q7 24 7 48q0 26 -8 50q-25 72 -93 111q-39 25 -82 28q-8 1 -17 1q-33 -1 -65 -11q-40 -12 -76 -38.5t-61 -59.5q-43 -58 -52 -128q-3 -22 -3 -44q0 -46 14 -90q20 -64 65.5 -119t113.5 -84q59 -27 123 -35q27 -3 55 -3q37 0 75 6q92 18 163 71t126.5 127t95 159 t68.5 165q39 106 69.5 214.5t63.5 216t71 212t93 205.5q-96 23 -207.5 49t-223.5 32q-22 1 -43 2q-88 0 -174 -22q-106 -27 -188 -108q-43 -45 -70.5 -102.5t-37.5 -119.5q-5 -27 -5 -54q1 -43 13 -82q20 -64 61.5 -113.5t101.5 -78t130 -28.5q63 0 115.5 34t81 84 t28.5 109.5t-43 110.5q-31 35 -79 50q-17 5 -33 5q-30 0 -56 -18q-29 -16 -36 -49l-2 -10q0 -26 34 -42q18 -10 17.5 -25.5t-13 -27.5t-30 -13t-31.5 17q-14 20 -15.5 44t7 46.5t25 43t34.5 32.5q45 30 97 30q10 0 18 -1q62 -6 108 -47q40 -39 50 -91q4 -21 4 -41 q0 -30 -9 -59q-12 -43 -39.5 -78.5t-64.5 -61.5t-80 -42t-86 -18h-17q-64 0 -122 26q-64 30 -108 84.5t-64 123.5q-13 42 -13 86q0 28 5 56q10 66 37.5 126.5t74.5 107.5q84 88 192.5 122t225.5 34t234.5 -24t220.5 -54q82 -25 172 -62q90 -38 181 -62q84 -23 167 -22h13 q89 2 169 60q27 18 40 45.5t5 60.5q-10 37 -39 51q-29 16 -51 1t-22 -54q0 -20 -14.5 -28.5t-30 -5.5t-25.5 15.5t-4 35.5q10 29 32.5 46t51.5 21q9 2 19 2q9 0 17 -1q20 -3 33 -13q41 -23 52 -62q4 -15 4 -29q1 -23 -11 -45q-18 -34 -49 -57q-78 -53 -168 -60 q-26 -2 -52 -2q-65 1 -132 13q-94 18 -187.5 47t-177.5 51v-2q-47 -104 -77.5 -209.5t-58 -212t-56.5 -213t-72 -212.5q-33 -86 -78 -172.5t-106 -160t-139 -128t-174 -72.5q-37 -5 -73 -5q-34 0 -66 4q-68 9 -130 36q-70 31 -119 88t-71 127q-16 49 -16 101q-1 21 2 43z " />
<glyph unicode="U" horiz-adv-x="1064" d="M-141 1199q12 56 37 99q47 78 133 111q39 15 79 19q12 1 23 1q27 1 52 -7q36 -10 65 -35t45 -68q18 -47 19 -103v-12q0 -51 -8 -101q-9 -56 -23.5 -111.5t-24.5 -100.5q-25 -90 -49.5 -176t-46.5 -176q-24 -85 -44 -179q-11 -51 -11 -102q0 -42 8 -84q6 -33 18 -62.5 t41 -52.5q25 -18 54.5 -27t61 -8t63.5 11t57 26q59 39 104 94.5t80 119t61.5 130t48.5 130.5q39 104 80 216.5t69 228.5t37 232q3 32 3 64q0 82 -17 162q37 -35 52.5 -87.5t17.5 -110.5q0 -12 1 -23q0 -47 -7 -93q-8 -58 -16 -98q-12 -57 -27.5 -111.5t-28.5 -101.5 q-35 -117 -67.5 -236.5t-48.5 -242.5q-6 -39 -10 -84q-1 -13 0 -26q0 -31 6 -62q8 -43 29.5 -78t66.5 -53q37 -14 72 -14q32 -1 62 11q64 24 118 72q-16 -31 -47 -53t-67 -35.5t-75 -18.5q-22 -3 -41 -3q-15 0 -28 2q-61 8 -97.5 44t-53.5 84t-20 104q-1 24 -1 46q0 31 2 60 q4 29 7 53.5t9 52.5q-25 -53 -50.5 -108.5t-56 -105.5t-69.5 -95t-90 -78q-57 -35 -131 -49q-26 -5 -51 -5q-46 0 -89 17q-47 18 -72.5 54t-37.5 77q-15 49 -15 101v7q0 49 8 98q8 52 19.5 102.5t24.5 97.5q25 92 54.5 182t53.5 180q12 41 26.5 90.5t27 100.5t16.5 101 q1 17 1 33q0 32 -5 62q-18 78 -78 98q-27 9 -57 10q-35 0 -74 -13q-37 -16 -70 -41t-55 -60q-12 -18 -24.5 -52t-16.5 -68q-1 -11 -1 -21q0 -23 6 -44q9 -30 40 -44q23 -10 37 2t24 29q10 16 25.5 15t28 -12.5t14.5 -26.5t-16 -28q-25 -18 -56 -18h-6q-31 0 -59 18 q-30 20 -43 52q-11 29 -11 61q0 22 5 44z" />
<glyph unicode="V" horiz-adv-x="520" d="M-301 1110v19q1 65 25 119q28 62 80 106q52 42 120 64q50 16 103 16q20 0 41 -2q63 -8 123.5 -36t107.5 -71q88 -85 121 -193q30 -97 30 -200v-22q-4 -114 -32.5 -227.5t-63.5 -215.5q-31 -90 -66.5 -179t-76.5 -182h4q78 57 150.5 117t140.5 123q88 86 162.5 169 t134 172t102.5 188.5t70 220.5q8 41 13 81q2 15 2 30q0 23 -5 45q-8 36 -30.5 66t-67.5 52q-25 12 -42.5 31.5t5.5 48.5q16 18 31 18q7 0 15 -4q22 -12 38 -30q66 -82 73 -163q2 -19 2 -39q0 -65 -18 -140q-27 -121 -70.5 -222.5t-103 -191.5t-135.5 -174t-164 -170 q-66 -63 -136.5 -122.5t-145.5 -113.5l-152 -104h-4l209 500q33 94 69 204q36 108 50 218q5 39 5 77q1 69 -15 135q-24 102 -111 183q-47 43 -104.5 69.5t-116.5 34.5q-17 1 -33 1q-51 0 -99 -14q-64 -18 -114 -58q-49 -40 -78 -100q-25 -53 -25 -116v-18q2 -41 18.5 -79 t43 -68.5t62.5 -50t79 -21.5h11q66 0 122 45q35 29 47 77q4 14 4 28q0 32 -20 63q-18 27 -48 33t-48 -31q-10 -18 -25.5 -17t-28 12t-14.5 28.5t17 29.5q20 14 43.5 16.5t46 -5t43 -24t32.5 -34.5q31 -45 30 -97v-15q-5 -62 -46 -107q-35 -41 -85 -51q-21 -4 -41 -5 q-29 0 -58 9q-43 12 -79 38.5t-62.5 62.5t-43 78t-18.5 85z" />
<glyph unicode="W" horiz-adv-x="2283" d="M18 537q2 164 72 311t180 260q78 80 167 140.5t190 103.5q88 39 194.5 65.5t214.5 30.5q15 1 30 1q94 -1 182 -23q102 -26 184 -91q86 -67 124 -183q26 -79 26 -185q0 -49 -5 -105q-33 -211 -101.5 -400.5t-154.5 -357.5q100 76 204.5 163t200 185.5t173 208t126 229.5 t59.5 250q2 29 2 58q0 103 -30 211h8q100 -109 140 -255q26 -93 26 -183q0 -52 -8 -103q-29 -213 -98.5 -401t-155.5 -361q129 98 251 205t223.5 227.5t176 258t109.5 297.5q18 78 18 141q0 41 -8 76q-6 27 -23.5 58.5t-52.5 31.5q-18 0 -27 -12.5t-14 -30.5 q-4 -20 -20 -23.5t-29.5 4t-20.5 21.5t7 33q16 23 46 31t58 1q41 -10 61.5 -40.5t31.5 -71.5q8 -36 8 -77q0 -12 -1 -26q-3 -56 -16 -118q-45 -184 -134 -338t-208.5 -286t-265 -248t-305.5 -226q59 131 117.5 267t100.5 277q43 142 61 286q9 68 8 136q0 77 -11 156 q-35 -180 -124 -339t-213.5 -298t-275 -261t-308.5 -228q47 106 93 211.5t84 214t65.5 219t39.5 225.5q5 50 5 95q0 75 -14 137q-23 100 -79 170q-63 82 -155 118q-93 35 -195 36h-8q-98 0 -196 -24q-102 -24 -183 -61q-98 -45 -182 -106.5t-154 -141.5 q-94 -111 -153.5 -251t-59.5 -287v-17q0 -126 56 -238q60 -120 196 -198q94 -54 205 -66q33 -4 67 -3q79 0 160 20q94 27 185.5 81t158.5 132q49 57 81 128q32 70 40 144q3 24 3 47q0 50 -12 100q-17 73 -67 134q-49 61 -117 94t-140 39q-16 1 -31 1q-57 -1 -114 -17 q-73 -22 -134 -70q-53 -45 -92 -110.5t-62 -141.5q29 -33 49 -76q13 -28 12 -60q0 -16 -3 -34q-8 -41 -37 -50t-45 26q-11 30 -11 68q0 11 1 22q4 51 14 94q-29 25 -63 37t-68 14v17q80 0 137 -46v5q25 72 64.5 135t93.5 108q59 51 133.5 79t152.5 31h18q69 0 137 -20 q77 -24 138 -77q74 -66 98 -151q16 -55 17 -112q1 -31 -5 -63q-14 -90 -58 -175t-109 -147q-76 -72 -168 -124t-184 -78q-103 -28 -199 -28q-25 0 -49 2q-119 9 -223 56q-162 76 -234 204q-70 125 -70 268v8zM462 499q-1 -8 -1 -15q0 -35 12 -64q8 -20 19 -20q2 0 6 2 q16 6 20 34q2 13 2 26q0 28 -9 54q-13 39 -38 64q-8 -37 -11 -81z" />
<glyph unicode="X" horiz-adv-x="1742" d="M8 142q-1 6 -1 13q1 38 21 75q24 44 76 75q59 31 129 31h16q79 -4 140 -39q59 -33 95 -95q32 -56 32 -118v-14q129 63 231.5 183t172.5 263t102 297q23 112 23 211q0 38 -3 74q-16 156 -110 242q-84 77 -216 76q-15 0 -32 -1q-74 -4 -145.5 -39t-124 -90t-76.5 -128 q-12 -37 -11 -75q0 -37 11 -75q24 -86 94 -124q63 -34 135 -35q8 0 15 1q80 4 152.5 48t101.5 122q12 32 12 61q0 17 -4 33q-10 45 -41 79t-76 49q-29 10 -60 10q-17 0 -34 -3q-43 -9 -71 -37q-24 -24 -24 -69q0 -6 1 -13q16 -4 29.5 -12t23.5 -18q18 -18 8 -32.5t-33 -4.5 q-16 8 -28.5 22.5t-18.5 30.5q-11 3 -22 3q-22 0 -44 -11q-34 -16 -71 -74v13q14 41 51 67q30 21 68 20q9 0 18 -1q-1 10 -1 19q-1 47 25 79q30 39 83 55q30 9 59 9q30 0 60 -10q58 -19 96.5 -62t47.5 -103q2 -12 2 -23q0 -48 -30 -98q-45 -76 -124 -119q-80 -42 -162 -46 h-13q-75 0 -142 37q-73 40 -104 130q-11 39 -11 77q0 41 13 82q25 77 79.5 136.5t130 97.5t155.5 42q21 1 41 1q66 -1 126 -15q79 -20 140.5 -62.5t101.5 -109t50 -154.5q4 -29 4 -58.5t-2 -62.5q39 76 90 146.5t114.5 129t138.5 101.5t163 65q46 12 99 13q8 0 16 -1 q62 -2 116 -22q63 -25 106.5 -74t58.5 -107q7 -26 7 -53q0 -33 -10 -66q-18 -60 -76 -106q-23 -18 -49.5 -31.5t-54.5 -17.5q25 10 49 26t45 34q41 39 50 92q4 22 4 43q0 31 -8 63q-13 52 -47 97t-79 69q-44 25 -100 32q-20 3 -41 3q-35 0 -70 -8q-86 -20 -156.5 -70.5 t-128.5 -115.5q-94 -102 -163.5 -235.5t-110.5 -270.5q-35 -119 -45 -234q-4 -41 -3 -79q0 -69 11 -128q10 -53 31.5 -100t54.5 -81q33 -33 78 -53q37 -16 83 -17q9 0 19 1q86 4 169 50.5t139 111.5q53 66 77 142v-8q0 -37 -16 -72q-18 -39 -43 -70q-57 -72 -140 -118 t-173 -56q-20 -2 -40 -2q-43 0 -84 9q-61 13 -110 46t-85 83t-50 116q-12 54 -13 110v12q0 50 7 103q-80 -131 -199 -247.5t-264 -180.5q-6 -25 -19.5 -53.5t-32 -55t-43 -46t-50.5 -25.5q45 27 76.5 74t35.5 94q-37 -14 -82 -26.5t-91 -18.5q-39 -5 -79 -5h-13 q-46 1 -87 15q-53 18 -84 57t-35 83zM41 131q2 -35 25.5 -65.5t66.5 -47.5q39 -14 84 -16h20q35 0 71 5q46 7 90 19.5t81 26.5l2 2q-2 59 -36 101t-87 69q-48 25 -110 34q-21 3 -40 3q-40 0 -75 -12q-49 -18 -71 -51q-21 -30 -22 -62q1 -3 1 -6zM541 1114q4 -10 13 -20.5 t19 -14.5q7 -3 10 -3t3 1q1 0 0 1q0 3 -6 9q-8 8 -18.5 15.5t-20.5 11.5z" />
<glyph unicode="Y" horiz-adv-x="471" d="M-1662 -52q-1 16 -1 33q0 56 13 113q16 74 51 137q49 86 134 144.5t183 81.5v-19q-100 -18 -179 -72.5t-122 -146.5q-29 -61 -40 -127q-6 -37 -6 -73q0 -29 4 -59q9 -64 39 -122.5t81 -103.5q63 -57 148 -90t176 -46q79 -12 158 -12h23q91 2 166 15q227 47 446.5 155.5 t401 267t306 363.5t165.5 444q10 61 17.5 120t7.5 118q0 57 -12.5 118.5t-40 112t-75.5 80.5q-42 27 -102 27h-16q-59 -6 -105 -39t-83 -80q-31 -37 -46 -91q-10 -37 -10 -74q0 -17 2 -33q7 -54 35.5 -98t83.5 -58q31 -8 60.5 0t51 27.5t33 48t7.5 59.5t-21.5 57.5 t-48.5 32.5q-25 4 -41 -10t-32 -31q10 29 28.5 45.5t40.5 20.5q13 3 25 3q22 0 38 -11q25 -15 37.5 -42.5t11.5 -61.5t-14 -60q-23 -51 -75 -79q-32 -17 -65 -17q-20 0 -40 6q-57 16 -87 60t-37 98q-2 19 -2 38q0 36 9 74q13 57 43 100q35 51 86.5 87t110.5 53q33 8 63 8 q41 0 77 -16q63 -27 106 -82.5t64 -125.5q17 -56 17 -109q0 -15 -1 -30q-10 -141 -44 -270t-69 -248l684 819q8 10 19.5 20.5t21.5 16.5q35 18 52.5 -5.5t17.5 -51.5q0 -16 -5.5 -30.5t-11.5 -27.5q4 12 6.5 29t2.5 33q-10 27 -23.5 30t-28 -6.5t-29 -24.5t-22.5 -24 l-659 -794q-104 -125 -207 -250t-215 -240q-96 -92 -200.5 -176t-217.5 -153.5t-230.5 -119.5t-240.5 -77q-90 -23 -195 -28q-24 -1 -48 -1q-80 0 -158 12q-101 17 -192 59t-153 114q-47 55 -72.5 123.5t-30.5 141.5z" />
<glyph unicode="Z" horiz-adv-x="1499" d="M57 156q16 29 53 52t103 32q31 4 62 3q58 1 117 -11q91 -18 175 -44q123 106 243 254t235.5 306.5t227 315.5t220.5 279h-868h-53.5t-61.5 -3t-59.5 -11t-47.5 -24q-18 -16 -23 -35t-3 -35q2 -18 13 -35.5t27.5 -29t36.5 -15.5t38 6q23 10 28.5 34t-16.5 48 q-14 16 -9 31.5t19 24t30.5 5t24.5 -23.5q12 -29 5 -55.5t-25 -48.5q-18 -23 -41 -31q-25 -10 -51.5 -7t-50 15t-41 31.5t-25.5 44.5q-10 31 -3 62.5t25.5 59t46 47t58.5 27.5q42 11 87 11h11q51 -2 105 -2h964q-84 -68 -171 -168.5t-175 -216t-176 -240.5t-176 -240.5 t-175 -216t-173 -168.5q63 -18 126.5 -36.5t127.5 -33.5q66 -14 132 -21q36 -4 72 -4q31 0 62 3q70 6 134.5 25.5t116.5 55.5t90 88t54 124q9 38 9 78q0 33 -6 67q-13 76 -70 123q-51 41 -115 41q-15 0 -31 -2q-29 -4 -52.5 -22.5t-34.5 -44t-9 -53t25 -52.5 q16 -18 36.5 -21t38 5t24.5 26.5t-3 44.5q-8 18 2 32t25.5 18t31 -4.5t15.5 -32.5q2 -27 -13.5 -51.5t-40.5 -40.5q-28 -16 -62 -16h-3q-36 0 -62 24q-27 22 -32 56q-1 10 -1 20q1 24 9 46q12 32 38.5 56.5t63.5 28.5q15 2 29 1q70 0 127 -40q33 -25 52 -58q18 -34 28 -73 q9 -35 9 -71v-8q-1 -40 -9 -79q-35 -150 -147.5 -250t-260.5 -131q-60 -12 -119 -12q-22 0 -44 2q-81 6 -161.5 22.5t-159.5 40t-159 41.5q-33 -23 -73 -45t-83 -36.5t-86 -19.5q-13 -1 -25 -1q-30 0 -59 8q-53 16 -85 55q-17 21 -16 47q0 24 13 52zM108 80q-2 -5 -2 -11 q0 -11 8 -22q12 -16 40 -24q29 -10 61 -9h13q40 2 79 15.5t75 33t67 39.5q-41 8 -110 20q-45 8 -88 7q-22 0 -44 -2q-47 -4 -70 -17.5t-29 -29.5z" />
<glyph unicode="[" horiz-adv-x="743" d="M80 487q8 23 12 39.5t12 40.5q51 6 101.5 15.5t85.5 31.5q33 23 66.5 60t50.5 90q16 43 24 91t25 93q29 78 63.5 128t85.5 79q47 29 106.5 42t145.5 13q-10 -8 -13 -12t-7 -8t-10.5 -9t-20.5 -16q-33 -2 -72 -8t-67 -16q-35 -16 -65 -53t-46 -91l-55 -166 q-29 -76 -67 -130t-79 -80q-45 -31 -98 -49.5t-111 -30.5l-12 -33q43 -10 82 -22.5t62 -32.5q20 -18 34.5 -51t5.5 -80q-16 -94 -33.5 -153.5t-30.5 -95.5t-22.5 -55.5t-11.5 -31.5q-4 -41 8.5 -62.5t36.5 -34.5q20 -10 48 -14t65 -6q6 -23 6 -25t8 -18q-137 2 -193.5 45 t-45.5 129q4 35 16 80t33 96q18 53 34.5 101.5t20.5 70.5q6 66 -32 99.5t-146 39.5z" />
<glyph unicode="\" horiz-adv-x="466" d="M53 1245l60 -16l417 -1235l-57 16z" />
<glyph unicode="]" horiz-adv-x="743" d="M80 -174l12 12l8 8t10.5 9.5t18.5 15.5q33 2 73 8t68 17q72 35 111 143l55 166q29 76 66 130t78 81q45 31 98 49t110 31l15 32q-45 10 -83 22.5t-61 33.5q-20 18 -34.5 51t-6.5 80q16 94 34 153.5t31 95t22.5 55t9.5 32.5q4 41 -8.5 62.5t-36.5 33.5q-20 10 -47 14t-64 6 q-8 23 -8 25t-6 18q137 -2 193.5 -45t45.5 -129q-4 -35 -17 -80t-32 -96q-18 -53 -34.5 -101t-20.5 -71q-8 -66 30 -99.5t148 -39.5q-8 -23 -12 -39t-12 -41q-53 -6 -102.5 -15.5t-84.5 -31.5q-33 -23 -66.5 -59.5t-50.5 -90.5q-16 -43 -24 -91t-25 -93q-29 -78 -64.5 -128 t-84.5 -79t-108.5 -42t-143.5 -13z" />
<glyph unicode="^" horiz-adv-x="788" d="M86 641q47 82 124 152.5t214 148.5q98 -51 183 -125t149 -176h-234q-16 59 -39.5 108.5t-58.5 88.5q-74 -80 -105 -197h-233z" />
<glyph unicode="_" horiz-adv-x="776" d="M16 -92l17 41h760l-17 -41h-760z" />
<glyph unicode="`" horiz-adv-x="409" d="M86 618h92q35 -124 172 -149q-86 4 -156.5 45t-107.5 104z" />
<glyph unicode="a" horiz-adv-x="399" d="M1 153q7 44 26.5 85t47 76.5t58.5 62.5q41 35 93 57q45 19 94 19h18q2 6 8 6q3 0 8 -2q14 -6 8 -27l-69 -313q-6 -24 -6 -47q-4 -37 19.5 -42t51.5 17q16 12 29.5 28.5t30.5 28.5q-16 -43 -47 -69q-16 -15 -38 -25q-18 -9 -36 -8h-6q-29 4 -39 28.5t-8 59.5 q-20 -29 -53 -50.5t-68 -33.5q-15 -4 -30 -4q-23 0 -44 10q-35 16 -45 58q-6 24 -6 49q0 18 3 36zM49 155q-1 -11 -1 -22q0 -27 7 -53q12 -43 44 -47q7 -1 14 -1q25 0 51 12q33 15 58.5 38.5t29.5 36.5l72 317h-9q-48 0 -86 -20q-42 -22 -79 -62q-25 -25 -46.5 -57.5 t-36 -68t-18.5 -73.5z" />
<glyph unicode="b" horiz-adv-x="342" d="M-2 10l80 348q31 147 64.5 297t68.5 279q23 82 44 164t56 159q23 47 50.5 86t68.5 68q38 25 73 25h5q14 -2 28.5 -7.5t24.5 -15.5q15 -12 15 -26q0 -18 -14 -31q-11 -10 -27.5 -10t-26.5 16q-12 20 -24.5 33.5t-41.5 -0.5q-39 -20 -64.5 -58.5t-41.5 -83.5 q-31 -78 -49.5 -161.5t-34.5 -167.5q-47 -227 -98.5 -452t-102.5 -452q53 6 100.5 30t81 60.5t53 86t19.5 106.5q0 25 -6 52.5t-20.5 47t-36 27.5t-52.5 -8q-12 -6 -24 -14.5t-23 -14.5q16 27 41 45q29 17 61 17q15 0 31 -4q47 -13 68 -59q17 -37 17 -75q0 -9 -1 -18 q-6 -63 -34 -115q-20 -41 -54 -75.5t-77 -60.5q-43 -24 -91 -38q-37 -10 -74 -11q-11 0 -22 1q-12 4 -10 10z" />
<glyph unicode="c" horiz-adv-x="290" d="M1 100q-1 11 -1 24q0 20 3 41q5 34 15 60q14 41 35 81t49 73q31 29 70 50.5t80 21.5q31 0 58.5 -13.5t37.5 -44.5q1 -6 1 -10q0 -11 -6 -19q-9 -10 -21.5 -12t-22.5 6.5t-10 24.5q2 20 -2 33.5t-27 15.5q-7 1 -13 1q-33 1 -61 -17q-34 -20 -61 -54q-27 -35 -43.5 -73.5 t-26.5 -79.5q-8 -34 -8 -76v-17q2 -52 37 -83q16 -16 38.5 -14.5t45.5 12.5q29 14 51.5 35.5t44.5 46.5q-16 -57 -76 -90q-40 -22 -79 -22q-19 0 -39 5q-35 12 -50.5 38t-18.5 56z" />
<glyph unicode="d" horiz-adv-x="421" d="M10 152q4 68 40 137t91 112q43 35 97 43q15 2 30 3q39 0 76 -17q29 131 58.5 260t58.5 244q23 80 43 162t55 159q23 45 51.5 85t65.5 67q38 25 75 25h5q31 -4 53 -23q16 -13 16 -26q0 -17 -14 -29q-12 -10 -28.5 -11.5t-26.5 17.5q-12 18 -24.5 31.5t-41.5 -0.5 q-37 -18 -62.5 -58.5t-43.5 -83.5q-29 -78 -47.5 -160.5t-34.5 -166.5q-33 -141 -61.5 -283.5t-61.5 -284.5l-39 -164q-8 -31 -16.5 -62.5t-12.5 -64.5q-2 -14 2 -27t23 -11q25 4 42 19t34 32q6 6 11 12t9 10q-2 -8 -4 -15t-6 -15q-27 -41 -70 -60q-19 -8 -34 -8 q-18 0 -32 12q-22 19 -23 51q0 5 1 11q2 16 6 36.5t12.5 56.5t21.5 95.5t36 153.5q-32 14 -66 14q-15 0 -31 -3q-50 -9 -85 -44q-41 -43 -68 -110.5t-27 -127.5q0 -25 9.5 -52t27.5 -45q16 -19 42 -21h4q24 0 55 24q12 10 23.5 24.5t25.5 24.5q-6 -16 -13.5 -29.5 t-23.5 -31.5q-18 -16 -40.5 -27.5t-49.5 -11.5q-35 0 -63.5 21.5t-41.5 54.5q-9 23 -9 54q0 11 1 22z" />
<glyph unicode="e" horiz-adv-x="262" d="M8 129v10q0 45 16 91q18 50 39 92q23 35 51.5 66.5t65.5 49.5q24 13 45 13q3 -1 5 -1q22 -2 34 -15t12 -34.5t-18 -46.5q-29 -35 -79 -53q-45 -16 -83 -16h-8q-27 -76 -27 -140q0 -25 5.5 -49t21.5 -45q16 -23 41 -27t47 9q23 10 41.5 30.5t34.5 36.5q-10 -31 -27.5 -46 t-40.5 -38q-30 -16 -62 -17h-3q-31 0 -58 19q-29 20 -40 49t-13 62zM98 303q37 0 78 17.5t60 48.5q10 17 10 29q0 15 -12 21q-7 3 -15 3q-5 0 -11 -1q-15 -3 -32 -15q-25 -16 -45.5 -45t-32.5 -58z" />
<glyph unicode="f" horiz-adv-x="135" d="M-508 -877q31 0 75 12.5t91 37.5q43 29 73.5 71.5t54.5 94t41 108.5t32 117q8 37 24.5 98.5t37 135t41 153.5t41 153.5t35.5 136t25 101.5q27 109 50.5 224.5t49 230t59.5 226.5t83 214q23 49 53.5 94t75.5 76q29 18 72 25q8 1 15 1q33 0 57 -24q18 -15 18 -31 q0 -20 -14 -34q-13 -13 -30 -13t-30 21q-25 40 -52 40h-4q-28 -3 -54.5 -30t-47 -66t-32.5 -67q-35 -86 -60.5 -178.5t-47 -189.5t-42 -199.5t-45.5 -210.5h47l-2 -15h-47l-22 -90q-10 -39 -25.5 -102.5t-35 -138t-42 -154.5t-43 -153.5t-38 -136t-29.5 -101.5 q-35 -117 -85.5 -223.5t-127.5 -167.5q-53 -33 -98.5 -49.5t-96.5 -16.5v20z" />
<glyph unicode="g" horiz-adv-x="339" d="M-537 -565q0 47 9.5 96t27.5 92q35 88 103.5 156.5t156.5 103.5q27 12 61 20.5t66 8.5q29 0 53.5 -8t41.5 -25q12 -16 18 -34.5t-4 -30.5q-12 -16 -35.5 -12.5t-23.5 28.5q-2 41 -22.5 55.5t-49.5 14.5t-54.5 -7.5t-43.5 -15.5q-82 -35 -138.5 -101.5t-87.5 -152.5 q-14 -41 -22 -92t-8 -104q0 -78 23.5 -152t82.5 -119q27 -18 57.5 -29.5t65.5 -11.5q49 0 100 20.5t99 61.5q49 45 86.5 105.5t62.5 124.5q14 37 27.5 84t28 111.5t32 151.5t39.5 206q4 14 6 32.5t6 34.5q-23 -23 -49 -35t-55 -12q-37 0 -61.5 16.5t-37 43t-15.5 60.5 q-1 11 -1 22q0 23 4 44q10 57 43 104.5t79 82.5t102.5 54t111.5 22q18 0 19 -19q-43 -188 -76 -329.5t-58.5 -246t-43 -177t-33 -123t-27.5 -85t-25 -61.5q-29 -61 -66.5 -115.5t-86.5 -97.5q-51 -43 -108.5 -65.5t-110.5 -22.5q-33 0 -67 9.5t-62 27.5q-74 47 -107 126 t-33 165zM67 134v-7q0 -21 5 -41q6 -23 20 -42t43 -26q7 -1 13 -1q23 0 46 15q31 21 39 50l82 350q-49 -4 -91 -26.5t-73.5 -58.5t-53 -80t-27.5 -91q-2 -18 -3 -42z" />
<glyph unicode="h" horiz-adv-x="346" d="M-12 0l213 899q14 57 34.5 136t52 155t78 139.5t111.5 93.5q20 8 39 8q25 0 49 -14q20 -10 20 -25q-1 -16 -13 -26t-26 -12t-22 14q-10 20 -24.5 25.5t-30.5 0.5t-31.5 -17.5t-25.5 -24.5q-37 -41 -65 -97.5t-49.5 -120t-36.5 -127t-28 -114.5l-112 -508q20 16 47 32.5 t51 26.5q16 4 31 4q18 0 36 -7q23 -10 23 -39q0 -10 -2 -21q-16 -68 -30.5 -135.5t-30.5 -132.5q-4 -14 -6 -28.5t-2 -31.5q2 -25 14 -30t27.5 1.5t31 18.5t23.5 23q8 8 15 17t18 15q-4 -23 -21 -45q-14 -16 -32.5 -31.5t-41.5 -19.5q-13 -4 -24 -4q-17 0 -29 10 q-20 16 -22 45q0 6 1 17.5t8 43t21.5 93t38.5 168.5q8 35 -2 46t-33 7q-31 -6 -61.5 -27.5t-54.5 -42.5l-82 -358h-45z" />
<glyph unicode="i" horiz-adv-x="153" d="M16 414v18l25 12q16 4 31 4q20 0 38 -8q23 -11 23 -40q0 -10 -2 -21q-10 -41 -21.5 -90t-22.5 -94t-17.5 -82t-6.5 -56q2 -25 15.5 -29.5t29 1.5t31 18t23.5 23q10 8 17 17t18 15q-4 -23 -21 -45q-16 -18 -34.5 -33.5t-41.5 -19.5q-14 -4 -25 -4q-18 0 -30 10 q-20 16 -22 47q0 6 1 17.5t7 43.5t20.5 91t38.5 164q8 35 -3 47t-34 8q-10 -4 -18 -7t-19 -7zM119 548q-1 5 -1 11q0 12 5 27q10 23 26.5 39t32.5 16q16 -1 20 -17q2 -6 2 -12q0 -12 -5 -26q-10 -23 -26.5 -38.5t-33.5 -15.5q-16 0 -20 16z" />
<glyph unicode="j" horiz-adv-x="116" d="M-1044 -795q61 -21 122 -21q17 0 34 2q79 7 157 40q-59 41 -92 101.5t-39 129.5q-1 14 -1 28q0 73 35 139q42 79 119 130q39 27 83 32q13 1 25 1q30 0 58 -8q39 -12 70 -43t43 -78q10 -35 10 -71q0 -27 -6 -55q-14 -62 -49 -117.5t-85 -100.5t-106 -76q71 -39 143 -39 q21 0 43 3q95 16 179 73q86 59 130 148.5t79 199.5q14 45 35.5 131t48 190.5t54.5 216t52 212.5q8 35 -3 47t-34 8q-10 -2 -18 -6t-18 -8v18l24 12q18 8 35.5 8.5t32 -8t21.5 -25t1 -40.5q-41 -186 -84 -371.5t-112 -394.5q-35 -104 -86.5 -192.5t-137.5 -153.5 q-45 -35 -99 -58.5t-112 -31.5q-28 -4 -57 -4l-57 4q-58 8 -107 39q-76 -33 -166 -46q-24 -3 -46 -3q-64 0 -119 26v12zM-807 -528q6 -66 37 -125.5t88 -98.5q51 25 101.5 67t86 96t50.5 115q8 29 8 58q0 35 -10 70q-12 41 -40 69.5t-64 40.5q-22 8 -47 8q-14 0 -29 -2 q-40 -8 -76 -34q-61 -47 -86 -119q-20 -58 -20 -117q0 -14 1 -28zM127 548q-1 5 -1 11q0 12 5 27q10 23 26.5 39t32.5 16t20 -17q2 -5 2 -12q0 -12 -5 -26q-10 -23 -26.5 -38.5t-33.5 -15.5q-16 0 -20 16z" />
<glyph unicode="k" horiz-adv-x="397" d="M6 0q41 207 85 419t89 423q23 96 43.5 190t61.5 187q25 59 64.5 117.5t101.5 88.5q27 13 55 13h3q27 0 51 -12q26 -12 43.5 -36t19.5 -55q0 -39 -23 -67q-16 -23 -40.5 -34t-51.5 -7q-23 4 -30 20.5t-2 30.5t17.5 23t30.5 -3q35 -16 57.5 -9t22.5 48q-2 29 -16.5 46.5 t-35 26.5t-45 8t-46.5 -9q-59 -25 -96 -83t-60 -118q-35 -86 -53.5 -180t-36.5 -186q-27 -129 -51.5 -256t-50.5 -256q33 45 73 92q16 18 45 36.5t58.5 26t54.5 -2t31 -46.5q1 -6 1 -12q0 -28 -22 -50q-28 -26 -67 -45.5t-80 -32.5t-66 -20q45 -23 72.5 -57.5t50.5 -93.5 q8 -20 16.5 -41t20.5 -36t26.5 -21.5t34.5 6.5q18 10 38 31.5t36 41.5q-6 -29 -24.5 -52t-40.5 -38q-31 -18 -53.5 -15t-41 19.5t-31 42t-20.5 50.5q-14 47 -43.5 93t-77.5 70q-16 -66 -30.5 -138t-26.5 -138h-41zM111 291q41 10 81.5 22.5t79.5 30.5q44 20 52 48q2 9 3 16 q1 16 -11 28q-16 16 -45 16h-3q-32 -1 -65 -36q-25 -29 -47 -59.5t-45 -65.5z" />
<glyph unicode="l" horiz-adv-x="169" d="M-4 57q23 119 47.5 236t52.5 233q18 84 37 170t40.5 172t49 170t64.5 164q16 37 37.5 73t50.5 66q33 39 69.5 67t87.5 28q40 0 56 -20q11 -14 12 -28q0 -6 -2 -12q-6 -20 -29.5 -32t-60.5 4q-31 12 -59.5 6t-51.5 -23q-29 -23 -50 -59.5t-38 -75.5q-35 -80 -57.5 -164 t-40.5 -170t-32.5 -172t-33.5 -170q-23 -109 -45 -215t-45 -217q-4 -16 -4 -35q0 -23 10.5 -28t23.5 0.5t26.5 15.5t21.5 16l20.5 20.5t22.5 20.5q-10 -27 -31 -51q-16 -20 -40.5 -34.5t-53.5 -14.5h-6q-24 0 -36 14q-13 16 -13 45z" />
<glyph unicode="m" horiz-adv-x="540" d="M2 0l86 410l-29 2q14 4 32 22.5t36 18.5q12 0 13 -7.5t-1 -17.5q-4 -25 -8 -39q20 16 45 31.5t53 25.5q18 5 34 5t31 -5q30 -10 28 -49q18 14 43.5 29.5t50.5 24.5q20 6 36 6q26 1 40 -15q16 -18 15 -46q0 -12 -3 -27l-62 -254q-4 -14 -7 -28.5t-1 -31.5q2 -25 14.5 -30 t28 1.5t30.5 17.5t25 22q8 10 15.5 18t17.5 14q-6 -18 -20 -45q-14 -16 -33.5 -31.5t-42.5 -19.5q-15 -4 -26 -4q-47 0 -52 57q0 27 6 51l66 275q3 14 3 24q0 31 -27 30q-6 0 -13 -1q-29 -8 -57.5 -26.5t-53.5 -36.5l-82 -371h-40l79 358q2 10 5.5 24.5t1 26t-10.5 17.5 t-26 2q-33 -8 -62.5 -28t-52.5 -40q-20 -90 -39.5 -179t-38.5 -181h-47z" />
<glyph unicode="n" horiz-adv-x="331" d="M-25 0l95 406l-31 2q10 8 19.5 15t21.5 15q4 4 12 8.5t12 4.5q14 0 14.5 -7.5t-1.5 -17.5q0 -4 -1 -10t-5 -23q20 14 46.5 30.5t55.5 27.5q15 5 30 5h5q18 -1 31.5 -9.5t20.5 -22.5t1 -39q-16 -68 -31.5 -136.5t-31.5 -137.5q-2 -10 -5.5 -25.5t-1.5 -32.5 q2 -25 14.5 -31t29 0.5t32 18.5t23.5 25q10 16 30 32q-6 -20 -22 -45q-23 -39 -74 -53q-13 -4 -25 -4q-17 0 -31 9q-22 15 -22 48q0 6 2 17.5t9.5 43t21.5 94t39 171.5q8 35 -2 46t-33 7q-33 -6 -63.5 -25.5t-55.5 -41.5l-79 -365h-50z" />
<glyph unicode="o" horiz-adv-x="317" d="M8 161q8 48 25 91q16 47 42.5 90t65.5 78q35 33 87 39q7 1 13 1q41 0 66 -32q19 -24 23 -56q3 -22 3 -43q0 -9 -1 -18q-4 -37 -14.5 -79t-28 -82.5t-42 -75.5t-54.5 -56q-36 -25 -76 -25q-13 1 -25 3q-54 10 -78 70q-9 29 -9 59q0 18 3 36zM56 162q0 -9 -1 -17 q0 -34 8 -65q12 -44 47 -60q13 -6 26 -5q23 0 46 18q29 20 49.5 53t34 71t19.5 76.5t6 71.5q-2 27 -6 55.5t-21 51.5q-17 24 -46 24h-4q-32 -2 -60 -30q-35 -31 -55.5 -75t-30.5 -89q-10 -37 -12 -80z" />
<glyph unicode="p" horiz-adv-x="401" d="M-662 -514q11 76 45.5 143.5t92 121.5t133.5 89q51 23 109 28q11 1 21 1q47 0 91 -19q29 -14 51.5 -36.5t22.5 -57.5q0 -25 -15.5 -34t-32 -6t-26.5 15.5t-4 30.5q8 21 8 36q0 21 -14 32q-20 14 -46 19.5t-53.5 3t-54 -9.5t-47.5 -17q-72 -33 -127 -84t-89 -114.5 t-46 -135.5q-6 -33 -6 -67q0 -39 8 -78q14 -80 60 -134.5t107 -76.5q40 -15 82 -15q21 0 44 3q65 12 121 63q57 55 84 127.5t47 146.5q20 84 35.5 169t31.5 157q4 27 18.5 93.5t35 151.5t42 178t37.5 175q4 31 -11 39t-40 -4q-18 -10 -34.5 -29.5t-38.5 -40.5q8 18 25.5 42 t41.5 40q16 10 36.5 16.5t39.5 0.5q23 -8 28 -29t3 -39q18 20 34 33q37 27 84 38q13 3 25 3q33 0 63 -21q31 -23 42 -60q10 -32 10 -64v-11q-4 -70 -41 -139.5t-92 -112.5q-45 -35 -99 -45q-18 -3 -34 -3q-38 0 -74 15q-14 -59 -26.5 -120.5t-27.5 -120.5 q-18 -78 -35.5 -162t-43.5 -168q-23 -76 -62 -152.5t-104 -128.5q-59 -47 -128 -57q-20 -3 -39 -3q-48 0 -92 18q-61 24 -107 78t-64 136q-9 45 -9 90q0 31 4 62zM76 31q33 -16 69 -16q14 0 29 3q51 9 90 45q41 43 68.5 112t27.5 128q0 27 -6 51.5t-22 44.5q-25 31 -55 31 q-5 0 -9 -1q-35 -5 -63 -26q-14 -10 -25.5 -21t-23.5 -26q-2 -2 -4.5 -5t-4.5 -5q-2 -14 -6 -31.5t-11 -49.5t-19.5 -85t-32.5 -139z" />
<glyph unicode="q" horiz-adv-x="358" d="M-60 -996q3 13 7 23l252 848q-29 0 -65 5t-58 26q-23 18 -15.5 38.5t37.5 20.5q29 0 62 -14t53 -33l133 496q-31 14 -65 14q-14 0 -28 -2q-50 -8 -87 -43q-43 -43 -73 -110.5t-34 -127.5q-2 -25 5.5 -50t21.5 -43.5t34.5 -26t47.5 9.5q23 14 40 31.5t38 33.5 q-16 -25 -28.5 -44t-41.5 -38q-29 -16 -62 -17h-3q-31 0 -58 17q-29 23 -39 59q-7 26 -7 53q0 11 1 22q10 70 48 137t94 108q43 33 95 45q17 3 35 3q35 0 72 -15q4 6 12 10q7 3 13 3h3q7 -1 11 -7q2 -3 2 -8t-2 -12l-133 -508q39 20 63.5 59t40.5 78q8 16 13 23 q0 -53 -37 -107.5t-88 -75.5l-8 -30q4 -18 4 -40q0 -27 -6 -59q-9 -61 -37 -155l-189 -596q-4 -12 -8 -23.5t-12 -17.5q-11 -10 -24 -10q-3 0 -6 1q-17 3 -23 23q-2 7 -2 14q0 6 1 12zM-16 -1024q8 0 18 33l184 596q23 66 32 115t9 85l-241 -792q-6 -21 -6 -30q0 -7 4 -7z M76 -66q0 -10 14 -20q23 -16 56 -20q22 -4 42 -4q9 0 17 1v5q-16 23 -45 36t-58 15h-6q-20 0 -20 -13z" />
<glyph unicode="r" horiz-adv-x="247" d="M-10 0l92 406l-29 2q10 8 28.5 25.5t41.5 17.5q12 0 12 -7.5t-2 -17.5l-18 -84q14 16 30.5 35.5t32.5 34.5q20 18 46 34q13 8 26 9q14 0 29 -9q16 -10 21 -28q2 -6 2 -11q0 -10 -7 -18q-10 -14 -24.5 -15t-26 6t-16.5 21.5t3 28.5q-10 -4 -20 -12t-21 -19 q-25 -23 -46 -50t-38 -50l-63 -299h-53z" />
<glyph unicode="s" horiz-adv-x="256" d="M10 113q4 29 18.5 53t43.5 35q20 8 32.5 -1.5t16.5 -24.5t-3 -29.5t-28 -16.5q-16 0 -27 -2q-29 -6 -30.5 -30.5t10.5 -43.5q18 -29 54 -35q7 -1 15 -2q27 0 48 19q18 14 25.5 36.5t7.5 46t-5.5 47t-11.5 42.5q-12 37 -19 73q-4 23 -4 44q0 13 1 26q4 27 16 53.5t35 40.5 q15 10 33 12h6q14 0 26 -6q14 -8 24 -22q7 -11 7 -28v-7q-4 -25 -20 -48.5t-39 -33.5q16 16 28.5 41t14.5 47q0 31 -26 38t-48 -9q-16 -14 -23.5 -35.5t-7.5 -42.5q0 -37 14.5 -68.5t28.5 -66.5q11 -30 11 -64q0 -19 -4 -41q-11 -56 -58 -92q-28 -19 -62 -19q-8 -1 -16 1 q-43 6 -67 45q-17 27 -17 58v10z" />
<glyph unicode="t" horiz-adv-x="159" d="M-496 752q2 39 18.5 76.5t43 70.5t60.5 60.5t73 46.5q65 33 133 42q37 5 75 5q31 1 63 -3q70 -8 139 -29.5t137 -49.5q61 166 152 286.5t253 206.5q111 59 232 87q85 20 172 19q37 0 75 -3q76 -8 140.5 -35t109.5 -73q46 -45 64 -109q10 -34 10 -73q0 -34 -8 -71 q-23 -106 -87.5 -188t-152.5 -141q-154 -104 -328 -123q-42 -5 -84 -5q-134 0 -272 46q-72 23 -141.5 53.5t-138.5 58.5q-41 -117 -64.5 -236.5t-46.5 -240.5h43l-8 -18h-39q-14 -68 -28.5 -141.5t-39.5 -188.5q-8 -33 6.5 -48.5t51.5 9.5q23 14 37 31.5t24 25.5 q-10 -33 -37.5 -63.5t-66.5 -34.5q-6 -1 -11 -1q-43 0 -53 42q-4 12 -2 29.5t9.5 55.5t22.5 104.5t40 179.5h-41l6 18h39q29 129 63.5 245t77.5 240q-59 25 -123.5 49.5t-130 38t-131 13.5t-127.5 -25q-78 -33 -127 -97.5t-49 -137.5q0 -49 26.5 -93.5t66.5 -73t90 -37.5 q15 -3 30 -3q35 0 68 16q54 25 76 76q16 35 15 72q0 16 -3 32q-6 37 -31 64q-29 35 -76 43q-8 1 -16 1q-37 0 -66 -32q-23 -35 -9.5 -54t50.5 -26q23 -2 29 -16t0 -28.5t-21.5 -23.5t-35.5 1q-23 12 -36 35.5t-13 50.5q0 35 20 69q32 36 78 35h14q55 -6 90 -45 q33 -31 43 -71q3 -16 3 -33q-1 -41 -21 -81q-30 -56 -82 -85q-47 -27 -97 -27q-9 0 -17 1q-58 5 -106 35t-78 81q-25 42 -25 93q0 10 1 20zM262 965q109 -55 226 -101q118 -44 238 -62q60 -9 120 -10q58 0 118 10q118 18 230 89q82 51 143.5 127t69.5 178q1 11 1 21 q0 54 -18 99q-20 54 -59 96t-92 69.5t-115 38.5q-57 9 -117 9q-57 -1 -119 -9q-124 -18 -224 -70q-160 -86 -251 -205t-151 -280z" />
<glyph unicode="u" horiz-adv-x="378" d="M4 76q2 16 6 30l72 297l-31 3q10 6 19.5 14t21.5 14q4 4 12.5 8t14.5 4q12 0 13 -7t-1 -15q-10 -49 -19.5 -96t-19.5 -95l-18 -86q-16 -45 -21 -86q-2 -23 13.5 -28.5t33.5 -1.5q41 12 77 48t61 68q4 12 6 23.5t4 22.5l53 229q2 14 11.5 21.5t18.5 7.5t14 -6.5t3 -20.5 l-53 -242q-4 -20 -9 -45.5t-10 -48.5q-4 -31 13.5 -48t52.5 5q16 10 30.5 26.5t26.5 32.5q-6 -16 -18 -35.5t-29 -35.5q-12 -12 -28.5 -20.5t-34.5 -10.5q-5 -1 -9 -1q-10 0 -22 4q-16 5 -27 22q-12 27 -6 61q0 8 4 21q-27 -29 -58.5 -56.5t-66.5 -42.5q-19 -8 -35 -8h-6 q-20 0 -36.5 10.5t-20.5 30.5q-3 11 -3 22q0 5 1 11z" />
<glyph unicode="v" horiz-adv-x="370" d="M34 375q10 47 44 69q18 12 38 12q10 0 20 -3q30 -9 46 -35q20 -35 24 -85q1 -15 0 -31q0 -36 -5 -72q-8 -54 -24.5 -105t-35.5 -88q66 51 124.5 106.5t99.5 128.5q10 18 19 48t-9 53q-8 10 -21.5 10t-29.5 -2q-18 -2 -28.5 9t-10.5 25.5t10 25t33 8.5q25 -4 44 -23.5 t27 -42.5q6 -19 6 -39q0 -12 -2 -22q-6 -30 -20 -60q-47 -82 -118.5 -145.5t-143.5 -116.5h-29q20 37 36.5 85t27 99.5t11.5 100.5v9q0 44 -9 79q-6 18 -18.5 31.5t-28 18.5t-29.5 -2t-25 -32q-8 -18 -9 -39.5t13 -38.5q10 -10 22.5 -8t22.5 10q14 10 25.5 5t15 -15 t-2 -21.5t-23.5 -13.5q-25 -4 -43.5 3.5t-30.5 23.5q-16 23 -16 54q0 12 3 26z" />
<glyph unicode="w" horiz-adv-x="614" d="M35 352q4 27 24.5 50.5t49.5 37.5q23 10 49 9.5t37 -29.5q8 -16 5 -42t-7 -48q-16 -66 -29.5 -129.5t-30.5 -128.5q-3 -14 -3 -25q0 -30 24 -29q7 0 16 2q27 6 54.5 22.5t49.5 33.5l86 375h41l-84 -361q-4 -12 -6 -25.5t1 -24.5t11.5 -17.5t26.5 -2.5q31 6 59.5 26 t53.5 40l84 365h43l-82 -371q-2 -10 -2 -23.5t4 -22.5t13 -12.5t28 5.5q14 6 28.5 17t22.5 22q6 6 13.5 15t17.5 17q-4 -14 -9.5 -24.5t-13.5 -20.5q-14 -25 -49 -41q-23 -11 -45 -11q-10 0 -18 2q-30 7 -35 52v6q-25 -16 -50.5 -31.5t-52.5 -23.5q-18 -5 -34 -5t-30 5 q-30 10 -26 47q-39 -33 -90 -47q-21 -6 -37 -6q-25 0 -37 14q-15 17 -15 44q0 13 3 28l58 248q4 16 6 38.5t-6 35.5q-14 23 -37 10.5t-31 -29.5q-16 -35 12 -57q14 -10 12 -23.5t-13 -20.5t-25.5 -4t-26.5 23q-8 19 -8 38v7z" />
<glyph unicode="x" horiz-adv-x="587" d="M18 59q-1 5 -1 10q-1 9 5 15q8 10 20.5 12t24 -5t9.5 -23q-2 -18 2 -34t26 -16q43 0 78 20.5t60.5 52.5t42 72t24.5 77q4 20 7 43.5t1 48t-10 46t-26 36.5q-16 14 -35 15t-36 -5t-33.5 -17.5t-29.5 -21.5q-27 -20 -47 -51q12 29 35 55.5t55 42.5q26 12 52 18q9 2 17 1 q18 0 36 -7q41 -16 55.5 -47.5t16.5 -68.5q29 49 78 86t108 37q31 0 57.5 -13.5t36.5 -44.5q1 -6 1 -10q0 -11 -6 -17q-9 -10 -21.5 -12t-22.5 6.5t-8 24.5q2 18 -2 30.5t-27 16.5q-7 1 -13 1q-34 -1 -62 -19q-32 -22 -60 -52q-27 -33 -43 -71.5t-27 -79.5q-4 -18 -7 -44 t-1 -50.5t10.5 -46t24.5 -35.5q20 -17 42 -17q13 0 27 6q36 16 64 39q14 12 26.5 25.5t22.5 28.5q-12 -35 -41 -64q-28 -31 -70 -47q-21 -8 -41.5 -8t-41.5 8q-41 14 -55.5 47t-14.5 70q-10 -14 -20.5 -26.5t-22.5 -26.5q-27 -29 -65.5 -48.5t-79.5 -21.5q-29 0 -57.5 13.5 t-37.5 45.5z" />
<glyph unicode="y" horiz-adv-x="487" d="M-274 -152q-2 8 -2 15q0 21 10 43q20 37 68 52q17 5 32 5q29 0 53 -18q18 -16 16.5 -33.5t-12 -28t-27 -11.5t-26.5 17q-20 33 -44.5 37t-43.5 -30q-12 -27 -9 -49.5t17.5 -40t34.5 -29t45 -15.5q12 -1 23 -1q36 0 75 13q50 19 98 50t89 68.5t67 72.5q37 45 60.5 97.5 t33.5 106.5q5 29 5 57q0 26 -5 52q-8 54 -36 103q-18 31 -53 38q-14 3 -28 3q-21 0 -40 -6q-43 -14 -65 -53q-17 -29 -17 -60q0 -11 2 -22q4 -33 22.5 -42.5t47.5 15.5q12 10 23.5 6t17.5 -15.5t3 -24.5t-20 -19q-14 -6 -27 -6q-23 0 -44 17q-33 26 -39 62q-2 12 -2 23 q0 35 19 69q24 44 65 66q32 17 71 17h12q46 -3 74 -35q25 -27 36 -68t14 -84q2 -19 2 -37q0 -24 -2 -48q-5 -42 -11 -71l269 345h16l-268 -357q-88 -119 -201 -221q-59 -53 -131 -96q-63 -38 -136 -38q-10 0 -20 1q-29 0 -53.5 16.5t-39.5 40t-19 51.5z" />
<glyph unicode="z" horiz-adv-x="573" d="M11 28q-1 5 -1 11q0 20 23 37q28 21 62 21q14 1 28 -3q51 -12 94 -24q80 76 159 159.5t177 184.5h-330q-37 0 -61 -11q-25 -12 -32 -38.5t11 -49.5q14 -18 38 -21t40 19q18 20 34.5 15.5t22 -20t-7 -34t-49.5 -22.5q-31 -4 -56.5 10t-41.5 39q-14 23 -14 51q0 8 1 16 q5 38 31 60q23 16 48.5 19.5t54.5 3.5h376l-380 -388q31 -8 65.5 -16t70.5 -11q14 -1 27 -1q23 0 43 3q34 5 64 25q16 10 27.5 30t14.5 39.5t-4 37.5t-28 29q-18 10 -35.5 -0.5t-25.5 -36.5q-6 -18 -21.5 -20.5t-30 5t-19.5 21.5t9 33q25 35 61 38q4 0 8 1q31 0 58 -21 q41 -27 47 -65q4 -31 -11 -58.5t-38 -48.5q-34 -29 -74 -38q-32 -7 -67 -7h-15q-42 2 -84 12.5t-81 20.5q-29 -21 -71 -35q-25 -9 -49 -8q-16 0 -32 4q-29 6 -36 32zM51 12q11 -2 23 -2q21 0 43 6q35 10 57 25q-28 8 -62 11q-8 1 -16 1q-25 0 -47 -8q-19 -8 -19 -17 q0 -10 21 -16z" />
<glyph unicode="{" horiz-adv-x="466" d="M-80 -217q0 47 14 96l62 211q4 10 6 19.5t6 19.5q12 47 19.5 80.5t1.5 56.5q-10 41 -58 41l6 21q41 20 69 49t47.5 63.5t33.5 74.5t29 83q4 20 8 29q10 39 23.5 80t23.5 77q14 47 30.5 89t41 77t60.5 60.5t89 40.5q4 2 8 2t9 2q10 0 14 2q-4 -12 -4 -19 q-37 -10 -64.5 -39.5t-50 -73.5t-41 -98.5t-33.5 -111.5l-47 -148q-8 -35 -17 -66.5t-24.5 -60t-39 -54.5t-60.5 -48q20 -10 31 -37q6 -29 1 -67.5t-14.5 -78.5t-20.5 -76t-20 -59q-2 -6 -3 -10t-3 -8q-6 -23 -14 -49.5t-16 -48.5q-10 -29 -13.5 -56.5t-3.5 -52.5 q0 -51 8 -76q6 -20 17.5 -38.5t34.5 -22.5q-2 -4 -2.5 -8t-2.5 -8q-66 -6 -94 17.5t-39 61.5q-8 23 -8 62zM-23 328v2v-2z" />
<glyph unicode="|" horiz-adv-x="104" d="M23 1292h51l2 -1220h-51z" />
<glyph unicode="}" horiz-adv-x="466" d="M-80 -358q2 4 2 9t2 9q37 10 64.5 40t49 74t39 98t34.5 112l47 145q16 70 41.5 129t97.5 102q-10 6 -17.5 16.5t-11.5 20.5q-6 29 -1 68t14.5 79t21.5 76.5t21 59.5q0 6 4 18q8 23 16 48.5t14 48.5q18 57 19 110q0 23 -2 40.5t-6 33.5q-6 18 -18.5 37.5t-37.5 23.5l6 17 q68 4 96.5 -18.5t39.5 -61.5q6 -29 6 -62q0 -23 -2 -46t-13 -50l-61 -211q-2 -18 -10 -41q-14 -47 -21.5 -79.5t-1.5 -55.5q14 -37 60 -41l-9 -22q-41 -18 -68.5 -48t-48 -65t-33.5 -75t-28 -83q-4 -8 -8 -28q-10 -35 -23.5 -77t-23.5 -77q-16 -47 -32.5 -89t-41 -78 t-59.5 -61.5t-88 -39.5q-8 -4 -17 -4q-2 -2 -6 -2h-6zM403 369q0 2 3 2z" />
<glyph unicode="~" horiz-adv-x="518" d="M8 881q6 20 23 37q18 25 46.5 37t59.5 14q49 2 97.5 -13.5t93.5 -25.5q29 -4 56.5 -2t49.5 18q31 20 27 46t-27 36t-40 -2t-27 -31q-6 -10 -9.5 -19t-7.5 -20q-2 23 4 48q10 27 33 40t51 9q25 -6 34 -21.5t9 -35t-9 -39t-21 -31.5q-27 -25 -61 -36t-68 -9 q-49 2 -94.5 26.5t-92.5 30.5q-29 4 -50.5 -4t-43.5 -25l-17.5 -14t-15.5 -14z" />
<glyph unicode="&#xa1;" horiz-adv-x="604" d="M-43.5 64.5q16.5 62.5 100.5 175.5q23 33 68 99.5t99.5 149t114.5 175t114.5 176.5t99.5 151.5t70 100.5h2l-488 -893q-51 -98 -96 -147.5t-74 -49.5q-27 0 -10.5 62.5zM674 1260.5q-6 15.5 6 35.5q8 20 29.5 33.5t44.5 13.5q16 0 23 -13t-3 -34q-10 -20 -31.5 -35.5 t-44.5 -15.5q-18 0 -24 15.5z" />
<glyph unicode="&#xa2;" horiz-adv-x="290" d="M-18 -51l329 573l25 -14l-328 -574zM1 100.5q-3 30.5 2 64.5t15 60q14 41 35 81t49 73q31 29 70 50.5t80 21.5q31 0 58.5 -13.5t37.5 -44.5q4 -18 -5 -28.5t-21.5 -12.5t-22.5 6.5t-10 24.5q2 20 -2 33.5t-27 15.5q-41 4 -74.5 -16.5t-60.5 -53.5q-27 -35 -43.5 -73.5 t-26.5 -79.5t-8 -93.5t37 -82.5q16 -16 38.5 -14.5t45.5 12.5q29 14 51.5 35.5t44.5 46.5q-16 -57 -75.5 -90t-118.5 -17q-35 12 -50.5 38t-18.5 56.5z" />
<glyph unicode="&#xa3;" horiz-adv-x="1572" d="M17.5 143.5q15.5 53.5 56.5 87.5q47 41 108.5 44.5t118.5 -19.5q37 31 81 39t91 3t93 -20.5t85 -33.5q68 90 121 189t102.5 199.5t101.5 199t118 190.5q84 117 192.5 214t243.5 146q59 20 123.5 31.5t130 8.5t127 -22.5t114.5 -56.5q86 -61 129.5 -147t46.5 -179 t-33 -183.5t-108 -157.5q-63 -59 -151 -92t-177.5 -32t-169 40t-126.5 123q-20 41 -24.5 87t8 91t40 83t68.5 62q45 27 98 22t93 -33t56.5 -73t-8.5 -100q-16 -35 -46.5 -55.5t-69.5 -18.5q-35 2 -67 20.5t-40 53.5q-4 20 8.5 30.5t26.5 11.5t25.5 -7t7.5 -27q-6 -33 6 -45 t33 -12q29 0 51 19.5t29 47.5q8 43 -4.5 80t-39 59.5t-64.5 27.5t-79 -15q-39 -20 -64.5 -55t-36.5 -76t-8 -85t21 -83q43 -76 119 -113t161 -38t165.5 31t134.5 93q55 63 80.5 146.5t20.5 169.5t-40 166t-98 137q-45 39 -102.5 59.5t-120 23.5t-124 -8.5t-116.5 -33.5 q-145 -59 -247.5 -177t-178.5 -255q-49 -88 -94 -181.5t-91 -184.5t-98.5 -179t-119.5 -166q12 -6 20 -11t18 -9q41 41 86.5 79.5t102.5 55.5q59 16 113.5 -10.5t70.5 -86.5q16 -55 -7.5 -108t-63.5 -88q76 -27 152.5 -26t147 23.5t134 65.5t116.5 103l25 -10 q-57 -68 -131 -115t-157 -71.5t-170 -25.5t-173 21q-43 -23 -96 -32t-106.5 -7t-106.5 14.5t-96 34.5q-27 -18 -59.5 -35.5t-68.5 -26.5t-72 -8t-69 17q-35 -10 -77.5 -11t-84.5 8t-76 29.5t-52 55.5q-25 49 -9.5 102.5zM39 135q-10 -43 8 -82q14 -29 41 -45t60.5 -23.5 t68.5 -7t64 6.5q-25 20 -38.5 47.5t-15.5 56.5t5.5 58.5t23.5 56.5q-39 16 -86 21t-86 -21q-35 -25 -45 -68zM251 85q3 -28 17.5 -53.5t40.5 -43.5q47 12 90 34.5t82 51.5q-49 33 -99 65.5t-103 55.5q-16 -25 -23.5 -53.5t-4.5 -56.5zM326 246q55 -27 106 -63t98 -70 q23 20 42.5 40.5t39.5 43.5q-29 16 -65.5 34.5t-75.5 28.5t-76.5 9.5t-68.5 -23.5zM360 -31q53 -10 106.5 7.5t96.5 48.5q-10 6 -22.5 12t-22.5 12q-37 -23 -77 -43.5t-81 -36.5zM569 84q10 -6 19.5 -12t19.5 -13q23 20 45.5 41t40.5 43q-6 6 -14 11.5t-18 11.5 q-23 -23 -45.5 -43.5t-47.5 -38.5zM627 47q78 -49 160.5 -59.5t168.5 24.5q-66 18 -124 50t-115 69q-23 -23 -44 -43.5t-46 -40.5zM645 547l17 41h397l-17 -41h-397zM766 182q61 -37 122.5 -73.5t131.5 -61.5q39 29 64.5 78t11.5 102q-14 49 -59.5 72t-94.5 8 q-53 -16 -96 -51t-80 -74z" />
<glyph unicode="&#xa4;" horiz-adv-x="618" d="M-8 995l12 31l113 -133q35 23 79 37t93 14q88 0 160 -49q27 31 57.5 65.5t56.5 65.5l12 -29l-100 -116q43 -37 67.5 -89.5t24.5 -117.5q0 -59 -23.5 -110.5t-64.5 -86.5q20 -23 40 -48.5t40 -45.5l-10 -29l-92 105q-37 -25 -79 -39t-89 -14q-49 0 -94 16t-84 43 q-23 -27 -47.5 -56.5t-47.5 -52.5l-8 27l82 98q-82 76 -82 193q0 55 25.5 109.5t62.5 90.5q-27 29 -53.5 60t-50.5 61zM37 674q0 -51 20.5 -96.5t55.5 -75.5l14 -15v2q35 -29 76 -44t86 -15q41 0 80 13.5t71 39.5v-2q4 4 8.5 6t8.5 7q35 35 57.5 81t22.5 99t-22.5 101 t-61.5 83q-4 4 -9.5 6t-9.5 6q-66 49 -145 50q-43 0 -82 -14.5t-74 -37.5v2q-4 -4 -8 -7t-8 -7q-37 -35 -58.5 -82t-21.5 -100z" />
<glyph unicode="&#xa5;" horiz-adv-x="471" d="M-1662 -52.5q-5 72.5 11.5 146.5t51.5 137q49 86 134 144.5t183 81.5q31 6 76 12t76 -12q-31 4 -72 -1.5t-76 -15.5q-102 -18 -182 -73.5t-123 -147.5q-29 -61 -40 -127.5t-2 -131t37.5 -123t82.5 -103.5q63 -57 148 -90t175 -46.5t181.5 -11.5t166.5 15q121 20 241 65 t234.5 106.5t221 137.5t200.5 160q68 66 130.5 136t111.5 144q74 111 116 231.5t64 249.5q10 61 17.5 120t7.5 118q0 61 -11.5 121.5t-41.5 109.5q-29 55 -80 81t-113 26q-59 -6 -106 -38t-82 -81q-27 -35 -41.5 -77t-18.5 -85q0 -55 32 -114.5t93 -77.5q49 -10 90 13.5 t54 76.5q6 10 7 21.5t1 23.5q-6 31 -22.5 57.5t-47.5 32.5q-25 4 -41 -10t-32 -31q10 29 28.5 44.5t40.5 21.5q27 4 48.5 -3t35.5 -22.5t21.5 -37t5.5 -44.5q-4 -18 -6 -33.5t-7 -31.5q-25 -49 -76 -76t-104 -14q-33 8 -57.5 30.5t-40.5 50t-24.5 60.5t-6.5 63q0 88 55 166 q31 53 84.5 90t112.5 50q72 18 137.5 -3.5t112.5 -82.5q45 -55 60.5 -128t15.5 -141q-4 -111 -31 -225.5t-57 -206.5q-4 -23 -11.5 -45t-13.5 -41l684 819q10 6 20.5 18.5t20.5 18.5q35 18 52.5 -5.5t17.5 -51.5q0 -16 -5.5 -30.5t-11.5 -27.5q4 12 6.5 29t2.5 33 q-10 27 -23.5 30t-28 -6.5t-29 -24.5t-22.5 -24l-659 -794q-43 -53 -87 -104.5t-85 -104.5q-123 -147 -250 -281q-96 -92 -200.5 -176t-217.5 -153.5t-230.5 -119.5t-240.5 -77q-90 -23 -194.5 -28t-206 11.5t-192.5 58.5t-153 114q-47 55 -72.5 123.5t-30.5 141zM-45 119 l16 41h455l-16 -41h-455zM45 332l16 41h455l-16 -41h-455z" />
<glyph unicode="&#xa6;" horiz-adv-x="71" d="M23 651h51l2 -579h-51zM23 752v540h51v-540h-51z" />
<glyph unicode="&#xa7;" horiz-adv-x="366" d="M10 113q4 29 18.5 53t43.5 35q20 8 32.5 -1.5t16.5 -24.5t-3 -29.5t-28 -16.5q-16 0 -27 -2q-29 -6 -30.5 -30.5t10.5 -43.5q18 -29 54 -35t63 17q18 14 25.5 36.5t7.5 46t-5.5 47t-11.5 42.5q-12 37 -19 72.5t-3 70.5q4 25 15 51.5t34 40.5v-22q-12 -16 -17.5 -34.5 t-5.5 -35.5q0 -31 10.5 -56.5t22.5 -53.5v16q23 33 17.5 78t-15.5 80q-12 37 -19.5 72.5t-2.5 70.5q4 27 16 53.5t35 40.5q14 10 32.5 11.5t33 -6t23.5 -21.5t7 -35q-4 -25 -20 -48.5t-39 -33.5q16 16 28.5 41t14.5 47q0 31 -26 38t-48 -9q-16 -14 -23.5 -35.5t-7.5 -42.5 q0 -37 14.5 -68.5t28.5 -66.5q16 -47 6 -102.5t-51 -90.5q2 -6 6 -14q18 -49 7 -105.5t-58 -91.5q-35 -23 -78 -17.5t-67 44.5q-20 31 -17 68z" />
<glyph unicode="&#xa8;" horiz-adv-x="206" d="M122.5 526.5q-7.5 16.5 2.5 38.5q12 23 36.5 40.5t49.5 17.5q23 0 30 -17.5t-8 -40.5q-10 -23 -33.5 -39t-49.5 -16q-20 0 -27.5 16.5zM263.5 526.5q-7.5 16.5 2.5 38.5q12 23 36.5 40.5t49.5 17.5q23 0 30 -17.5t-7 -40.5q-10 -23 -34 -39t-50 -16q-20 0 -27.5 16.5z " />
<glyph unicode="&#xa9;" horiz-adv-x="1163" d="M92 506q0 111 42 204t113.5 160.5t168 106.5t207.5 39t207 -39t167.5 -106.5t112.5 -161t41 -203.5q0 -111 -41 -204t-112.5 -160.5t-168 -105.5t-206.5 -38q-111 0 -207.5 38t-168 105.5t-113.5 160.5t-42 204zM133 506q0 -98 40 -185.5t107.5 -153t155.5 -103 t187 -37.5q98 0 186 37.5t154.5 103t106.5 153t40 185.5t-40 186t-106.5 152.5t-154.5 102.5t-186 38t-186.5 -38t-156 -102.5t-107.5 -152.5t-40 -186zM433 395.5q-3 30.5 2 64.5t16 60q14 41 34.5 81t49.5 73q31 29 69.5 50t79.5 21q31 0 58.5 -13t37.5 -44 q4 -18 -5 -28.5t-21.5 -12.5t-22.5 6.5t-10 24.5q2 20 -2 33.5t-27 15.5q-41 4 -74.5 -16.5t-60.5 -53.5q-27 -35 -43.5 -73.5t-26.5 -79.5t-8 -93.5t37 -82.5q16 -16 39 -14.5t45 12.5q29 14 51.5 35.5t44.5 46.5q-16 -57 -75.5 -90t-118.5 -17q-35 12 -50.5 38t-18.5 56.5 z" />
<glyph unicode="&#xaa;" horiz-adv-x="593" d="M210 968q7 44 26.5 85t47 76.5t58.5 62.5q41 35 93 57.5t112 18.5q4 10 16 4q14 -6 8 -27l-69 -313q-6 -24 -6 -47q-4 -37 19.5 -42t51.5 17q16 12 29.5 28.5t30.5 29.5q-16 -43 -47 -70q-16 -14 -38 -24.5t-42 -8.5q-29 4 -39 28.5t-8 59.5q-20 -29 -53 -50.5t-68 -33.5 q-39 -10 -74 5.5t-45 58.5q-10 41 -3 85zM258 970q-4 -38 6 -75q12 -43 44 -47t65 11t58.5 39t29.5 36l71 317q-53 2 -95 -20.5t-79 -61.5q-25 -25 -46 -57.5t-35.5 -68t-18.5 -73.5z" />
<glyph unicode="&#xab;" horiz-adv-x="788" d="M29 455l8 45l469 198l-8 -43l-422 -178l344 -180l-6 -39zM262 455l10 45l469 198l-10 -43l-422 -178l344 -180l-6 -39z" />
<glyph unicode="&#xac;" horiz-adv-x="520" d="M14 762l15 37h432l-15 -37l-20 -57h-43l23 57h-392z" />
<glyph unicode="&#xad;" horiz-adv-x="395" d="M14 199l15 34h350l-14 -34h-351z" />
<glyph unicode="&#xae;" horiz-adv-x="1163" d="M92 506q0 111 42 204t113.5 160.5t168 106.5t207.5 39t207 -39t167.5 -106.5t112.5 -161t41 -203.5q0 -111 -41 -204t-112.5 -160.5t-168 -105.5t-206.5 -38q-111 0 -207.5 38t-168 105.5t-113.5 160.5t-42 204zM133 506q0 -98 40 -185.5t107.5 -153t155.5 -103 t187 -37.5q98 0 186 37.5t154.5 103t106.5 153t40 185.5t-40 186t-106.5 152.5t-154.5 102.5t-186 38t-186.5 -38t-156 -102.5t-107.5 -152.5t-40 -186zM489 264l93 406l-29 2q10 8 28.5 25.5t41.5 17.5q12 0 12 -7.5t-2 -17.5l-19 -84q14 16 31 36t33 34q20 18 46 34.5 t54 0.5q16 -10 21.5 -27.5t-4.5 -30.5q-10 -14 -24.5 -15t-26 6t-16.5 21.5t3 28.5q-10 -4 -20.5 -12t-20.5 -18q-25 -23 -46 -50.5t-38 -50.5l-63 -299h-54z" />
<glyph unicode="&#xaf;" horiz-adv-x="253" d="M238 612v7.5t2 9.5q0 6 2 12v-2q4 12 20 12h178q10 0 11.5 -8t-2.5 -16q-2 -2 -11.5 -6.5t-15.5 -6.5h-178h-4q-2 0 -2 -2z" />
<glyph unicode="&#xb0;" horiz-adv-x="243" d="M44 988.5q-9 19.5 5 47.5q16 29 46 50.5t61 21.5q27 0 35 -21.5t-9 -50.5q-10 -29 -39.5 -48t-64.5 -19q-25 0 -34 19.5zM68 1003.5q6 -12.5 22 -12.5q20 0 38.5 12.5t27.5 30.5q10 18 3.5 31.5t-22.5 13.5q-18 0 -37.5 -13t-29.5 -32q-8 -18 -2 -30.5z" />
<glyph unicode="&#xb1;" horiz-adv-x="497" d="M-68 37l15 35h432l-14 -35h-433zM14 307l15 35h198l86 199h37l-88 -199h199l-15 -35h-198l-82 -198h-37l84 198h-199z" />
<glyph unicode="&#xb2;" horiz-adv-x="692" d="M43 698q281 193 375 285q41 47 76.5 85t56.5 71q49 72 39 104q-6 39 -58 39q-98 0 -223 -131q-66 -72 -61 -104q2 -10 20 -23q8 -10 31 -10q41 0 123 65q43 33 74.5 68t52.5 63l4 -6q-41 -68 -125 -133q-84 -63 -135 -63q-29 0 -45 14q-18 14 -27 45q-4 31 10 63 q16 35 45 66q57 47 125 72q63 25 131 24q33 0 60 -24q25 -25 37 -58q18 -104 -125 -217q-74 -55 -223 -145q-25 -14 -48.5 -30.5t-42.5 -24.5v-7q68 27 103 27q57 0 63 -43q2 -20 -8 -39q-8 -14 -8 -18q2 -12 22 -13q72 0 211 134l9 -9q-6 -6 -10.5 -8t-6.5 -8 q-141 -119 -203 -119q-25 0 -47 10q-20 12 -22 31q-4 14 16 39q8 16 6 25q0 6 -22 6q-90 0 -240 -111z" />
<glyph unicode="&#xb3;" horiz-adv-x="761" d="M51 698q-6 33 10 54q14 25 43 24q43 0 56 -41q0 -16 -8 -33q-10 -10 -27 -10q-25 0 -37 19q-10 8 -12 8q-14 0 -10 -21q18 -82 135 -82q137 0 301 170q92 92 84 142q-6 18 -29 35q-25 12 -51 12q-29 0 -78 -12l-59 -21l-9 8q133 35 207 76q72 37 111 94q29 59 20 99 q-4 16 -24 32q-20 14 -45 15q-98 0 -193 -97q-4 -6 -11 -17t-13 -24q-10 -25 -11 -28q0 -14 17 -23q10 -4 31 -4q39 0 118 57q37 29 64 74l4 -2q-45 -70 -92 -106q-53 -39 -101 -39q-57 0 -69 57q-6 49 22 78q35 35 97.5 59.5t125.5 24.5q47 0 82 -29q37 -25 48 -67 q25 -117 -228 -189v-6q78 -20 96 -90q27 -121 -116 -209q-131 -80 -291 -80q-68 0 -98 21q-49 25 -60 71z" />
<glyph unicode="&#xb4;" horiz-adv-x="329" d="M86 469q137 25 172 149h92q-37 -63 -107.5 -104t-156.5 -45z" />
<glyph unicode="&#xb5;" horiz-adv-x="380" d="M-29 -55l33 125q0 10 2 18t4 18l72 297l-31 3q10 6 19.5 14t21.5 14q4 4 12.5 8t14.5 4q12 0 13 -7t-1 -15q-10 -49 -19.5 -96t-19.5 -95l-18 -86q-16 -45 -21 -86q-2 -23 13.5 -28.5t33.5 -1.5q41 12 77 48t61 68q4 12 6 23.5t4 22.5l53 229q2 14 11.5 21.5t18.5 7.5 t14 -6.5t3 -20.5l-53 -242q-4 -20 -9 -45.5t-10 -48.5q-4 -31 13.5 -48t52.5 5q16 10 30.5 26.5t26.5 32.5q-6 -16 -18 -35.5t-29 -35.5q-12 -12 -28.5 -20.5t-34.5 -10.5q-16 -2 -31.5 3t-26.5 22q-12 27 -6 61q0 8 4 21q-27 -29 -58.5 -56.5t-66.5 -42.5q-23 -10 -41 -8 q-10 0 -26 4l-17 -72z" />
<glyph unicode="&#xb6;" horiz-adv-x="610" d="M10 1135q6 41 25 75q23 33 55.5 54.5t67.5 21.5q27 0 46 -11t36 -28q12 -18 15 -31.5t7 -29.5q-12 10 -20.5 24.5t-18.5 24.5q-25 27 -51.5 24.5t-48 -20.5t-37.5 -46t-23 -52q-14 -59 -3.5 -127t40.5 -111q29 -35 77 -44t99 11v153.5v95.5t1.5 56.5t5.5 36.5 q6 41 36.5 62.5t65.5 3.5q14 -8 26.5 -18.5t20.5 -24.5q10 33 39 48t61 -1q39 -18 56 -59q6 -14 2 -31q-4 4 -7 10t-8 12q-12 16 -26 32t-37 20q-18 2 -24.5 -11.5t-10.5 -27.5q-4 -33 -3 -65t3 -62l-14 -731q-6 -80 -8 -159t8 -155h-29q-12 72 -12 149t-4 152l8 854 q-10 16 -24.5 31.5t-36.5 20.5q-16 2 -23.5 -11.5t-9.5 -27.5q-4 -33 -3 -65t1 -62v-164q-2 -141 -7.5 -283.5t-7.5 -283.5q-4 -84 -5 -167t9 -161q8 -43 23.5 -83t48.5 -58q25 -14 41.5 -1t32.5 31q14 18 30.5 17.5t25.5 -11t7 -26t-22 -29.5q-25 -18 -57 -22 q-23 -2 -41.5 5t-34.5 19q-29 27 -49.5 67t-30.5 85q-16 78 -16.5 159.5t-4.5 161.5q-2 115 0 244t4 260q-57 -23 -109 -14.5t-87 43.5q-45 43 -63.5 112.5t-6.5 137.5z" />
<glyph unicode="&#xb7;" horiz-adv-x="141" d="M-54 518.5q-7 16.5 3 38.5q12 23 36.5 40t49.5 17q23 0 30 -17t-8 -40q-10 -23 -33.5 -39t-50.5 -16q-20 0 -27 16.5z" />
<glyph unicode="&#xb8;" horiz-adv-x="184" d="M20 -195q16 2 35 8.5t33 14.5q18 10 27.5 31.5t-9.5 38.5q-12 12 -20 18q-16 12 -14 28.5t14 27t28.5 10.5t28.5 -19q16 -25 14.5 -54.5t-16.5 -51.5q-14 -27 -41 -41q-16 -10 -36.5 -14.5t-43.5 3.5z" />
<glyph unicode="&#xb9;" horiz-adv-x="587" d="M37 684l483 555l-436 -246l-2 13l485 274l6 -8l-413 -551q-16 -20 -17 -37h-106z" />
<glyph unicode="&#xba;" horiz-adv-x="540" d="M225.5 980q8.5 48 24.5 91q16 47 42.5 90t65.5 78q35 33 86.5 39t79.5 -31q18 -23 22.5 -55.5t2.5 -61.5q-4 -37 -14.5 -78.5t-28 -82.5t-42 -76t-54.5 -55q-47 -33 -101.5 -23t-77.5 70q-14 47 -5.5 95zM272.5 981q-2.5 -43 8.5 -82q12 -43 46.5 -59.5t71.5 12.5 q29 20 49.5 53t34 71t19.5 77t6 71q-2 27 -6 55.5t-21 51.5q-18 25 -50 23.5t-60 -29.5q-35 -31 -55.5 -75t-30.5 -89q-10 -37 -12.5 -80z" />
<glyph unicode="&#xbb;" horiz-adv-x="788" d="M29 258l8 41l422 178l-344 180l8 41l383 -196l-8 -45zM262 258l10 41l422 178l-344 180l6 41l385 -196l-10 -45z" />
<glyph unicode="&#xbc;" horiz-adv-x="1067" d="M90 680l475 547l-428 -242l-4 12l479 271l6 -8l-407 -543q-16 -20 -16 -37h-105zM201 -6l420 1235l57 16l-418 -1235zM444 172q70 70 138.5 141.5t140.5 151.5q145 156 184 215l117 -2l-105.5 -105.5t-77 -74t-81.5 -70.5t-123 -98q-33 -25 -62.5 -52.5t-64.5 -58.5v-6 q72 23 137 23q72 0 137 -23l152 180h59l-145 -194q31 -8 68 -9q70 0 118 29l4 -6q-80 -47 -157 -47q-16 0 -54 6l-104 -139q-10 -12 -15 -22.5t-8 -22.5l-106 8q10 14 49 57l115 137q-90 29 -158 29q-66 0 -156 -49z" />
<glyph unicode="&#xbd;" horiz-adv-x="1114" d="M109 702l473 545l-426 -239l-4 10l477 270l6 -8l-406 -541q-16 -23 -16 -37h-104zM260 -6l420 1235l57 16l-418 -1235zM451 8q276 190 370 283q41 45 76 83t55 70q49 72 39 105q-6 37 -55 37q-100 0 -221 -129q-66 -72 -62 -105q2 -10 21 -22q8 -10 28 -11q43 0 123 66 q43 33 74 66.5t51 64.5l4 -6q-41 -68 -123 -133q-84 -61 -133 -62q-29 0 -45 13q-18 14 -26 47q-6 29 10 61q14 35 43 64q57 47 125 71q63 25 129 25q33 0 59 -23q25 -25 35 -59q20 -102 -123 -215q-72 -55 -219 -143q-25 -14 -48.5 -29.5t-41.5 -26.5v-6q66 27 100 27 q57 0 66 -41q0 -23 -10 -39q-6 -14 -7 -18q0 -12 23 -13q70 0 209 131l6 -8q-6 -6 -10 -7t-6 -9q-139 -117 -201 -117q-23 0 -45 10q-23 12 -23 31q-6 14 17 39q6 14 6 24q-2 6 -23 7q-90 0 -239 -111z" />
<glyph unicode="&#xbe;" horiz-adv-x="1095" d="M-20 707q-6 35 10 55q14 25 43 24q43 0 57 -43q0 -14 -10 -30q-8 -12 -27 -13q-23 0 -37 19q-10 10 -12 10q-14 0 -8 -22q18 -82 135 -82q139 0 303 170q94 94 84 143q-4 20 -29 37q-25 10 -51 10q-29 0 -78 -10l-61 -23l-8 11q135 35 211 73q70 39 108 97q31 61 23 98 q-4 18 -25 35q-20 14 -45 14q-100 0 -194 -96q-4 -8 -11.5 -19.5t-13.5 -23.5q-12 -23 -12 -27q2 -16 18 -24q10 -4 31 -5q39 0 119 58q39 29 63 76l6 -2q-45 -72 -92 -109q-55 -39 -102 -39q-57 0 -70 57q-6 49 23 78q35 35 97 60.5t126 25.5q47 0 84 -30q37 -25 47 -66 q25 -119 -229 -193v-4q80 -20 98 -90q27 -123 -119 -213q-131 -80 -293 -80q-68 0 -100 21q-49 25 -59 72zM291 -6l420 1235l57 16l-418 -1235zM549 162q61 61 120.5 122.5t121.5 131.5q125 133 157 184l99 -2q-49 -51 -88 -91t-66 -63.5t-71 -60.5t-107 -84 q-27 -23 -52.5 -46.5t-54.5 -49.5v-4q59 18 117 18q61 0 119 -20l129 157h51l-125 -170q27 -6 57 -6q59 0 103 25l2 -6q-66 -39 -135 -39q-12 0 -45 4l-90 -121q-8 -8 -12.5 -17.5t-6.5 -19.5l-92 8q10 12 43 49l98 117q-78 25 -135 25q-55 0 -133 -41h-4z" />
<glyph unicode="&#xbf;" horiz-adv-x="604" d="M-6 258q0 86 43 176q43 92 119 162q33 25 80 58.5t110 72.5q70 43 121 78t78 51q127 98 213 201q80 109 86 108l4 -6l6 -6q0 -37 -72 -123q-63 -82 -180 -201q-31 -27 -74 -62.5t-90 -72.5q-59 -49 -98 -78.5t-53 -46.5q-47 -43 -85 -91t-65 -97q-57 -102 -57 -195 q0 -57 49 -100q43 -45 121 -45q139 0 282.5 132t143.5 261q0 49 -29 76q-27 33 -69 33q-76 0 -166 -97q-95 -91 -142 -243l-12 37q-4 18 -4 22q0 125 98 230q96 104 209 104q68 0 115 -47q39 -39 39 -115q0 -47 -35 -123q-35 -72 -86 -131q-43 -49 -86 -78.5t-86 -50.5 q-92 -49 -182 -49q-117 0 -179 70q-68 59 -67 186zM884 1253.5q-7 14.5 5 34.5q10 23 30.5 36t43.5 13q18 0 25 -13t-3 -36q-10 -20 -31.5 -34.5t-44.5 -14.5q-18 0 -25 14.5z" />
<glyph unicode="&#xc0;" d="M86 119q2 23 17.5 30t31 1.5t24.5 -18.5t1 -32q-10 -23 -14.5 -40t22.5 -33q29 -12 59.5 -16.5t59.5 -0.5q88 8 160.5 55.5t132 115t106.5 148.5t86 156q66 127 124 252t124 252q74 145 149.5 264t159.5 183q-143 12 -291.5 13t-316.5 -34q-166 -41 -301 -143.5 t-201 -265.5q-39 -96 -44 -207t36 -209q20 -49 56 -90t80 -66.5t97.5 -33t108.5 11.5q61 23 103 68.5t77 107.5q-6 -68 -59 -120t-117 -75q-59 -18 -114.5 -11t-102.5 34.5t-85 69.5t-60 96q-43 102 -38 216.5t46 215.5q66 166 205 271.5t309 146.5q150 35 303.5 36.5 t312.5 -16.5q12 0 21.5 -4.5t3.5 -20.5q-55 -125 -111.5 -247.5t-109.5 -249.5q-47 -117 -94.5 -233.5t-86.5 -237.5q-29 -78 -54 -159t-36 -167q-4 -25 -2 -49.5t11.5 -41.5t29 -21.5t53.5 10.5q35 16 65 42.5t56 57.5q-8 -35 -38.5 -64.5t-69.5 -48.5q-78 -37 -119 1 t-37 112q6 84 32.5 164t55.5 164h-123q-41 -76 -88 -155t-107.5 -145.5t-133 -112.5t-162.5 -54q-20 -2 -48 -1t-54.5 9t-50 21.5t-36.5 35.5q-16 31 -14 62zM788 479h121q45 117 87 230.5t94 228.5q53 123 111.5 240.5t123.5 232.5q-78 -68 -149.5 -183.5t-143.5 -256.5 q-61 -123 -119.5 -246t-124.5 -246zM983 1544h92q35 -124 172 -149q-86 4 -156.5 45t-107.5 104z" />
<glyph unicode="&#xc1;" d="M86 119q2 23 17.5 30t31 1.5t24.5 -18.5t1 -32q-10 -23 -14.5 -40t22.5 -33q29 -12 59.5 -16.5t59.5 -0.5q88 8 160.5 55.5t132 115t106.5 148.5t86 156q66 127 124 252t124 252q74 145 149.5 264t159.5 183q-143 12 -291.5 13t-316.5 -34q-166 -41 -301 -143.5 t-201 -265.5q-39 -96 -44 -207t36 -209q20 -49 56 -90t80 -66.5t97.5 -33t108.5 11.5q61 23 103 68.5t77 107.5q-6 -68 -59 -120t-117 -75q-59 -18 -114.5 -11t-102.5 34.5t-85 69.5t-60 96q-43 102 -38 216.5t46 215.5q66 166 205 271.5t309 146.5q150 35 303.5 36.5 t312.5 -16.5q12 0 21.5 -4.5t3.5 -20.5q-55 -125 -111.5 -247.5t-109.5 -249.5q-47 -117 -94.5 -233.5t-86.5 -237.5q-29 -78 -54 -159t-36 -167q-4 -25 -2 -49.5t11.5 -41.5t29 -21.5t53.5 10.5q35 16 65 42.5t56 57.5q-8 -35 -38.5 -64.5t-69.5 -48.5q-78 -37 -119 1 t-37 112q6 84 32.5 164t55.5 164h-123q-41 -76 -88 -155t-107.5 -145.5t-133 -112.5t-162.5 -54q-20 -2 -48 -1t-54.5 9t-50 21.5t-36.5 35.5q-16 31 -14 62zM788 479h121q45 117 87 230.5t94 228.5q53 123 111.5 240.5t123.5 232.5q-78 -68 -149.5 -183.5t-143.5 -256.5 q-61 -123 -119.5 -246t-124.5 -246zM1122 1386q137 25 172 150h92q-37 -63 -107.5 -104.5t-156.5 -45.5z" />
<glyph unicode="&#xc2;" d="M86 119q2 23 17.5 30t31 1.5t24.5 -18.5t1 -32q-10 -23 -14.5 -40t22.5 -33q29 -12 59.5 -16.5t59.5 -0.5q88 8 160.5 55.5t132 115t106.5 148.5t86 156q66 127 124 252t124 252q74 145 149.5 264t159.5 183q-143 12 -291.5 13t-316.5 -34q-166 -41 -301 -143.5 t-201 -265.5q-39 -96 -44 -207t36 -209q20 -49 56 -90t80 -66.5t97.5 -33t108.5 11.5q61 23 103 68.5t77 107.5q-6 -68 -59 -120t-117 -75q-59 -18 -114.5 -11t-102.5 34.5t-85 69.5t-60 96q-43 102 -38 216.5t46 215.5q66 166 205 271.5t309 146.5q150 35 303.5 36.5 t312.5 -16.5q12 0 21.5 -4.5t3.5 -20.5q-55 -125 -111.5 -247.5t-109.5 -249.5q-47 -117 -94.5 -233.5t-86.5 -237.5q-29 -78 -54 -159t-36 -167q-4 -25 -2 -49.5t11.5 -41.5t29 -21.5t53.5 10.5q35 16 65 42.5t56 57.5q-8 -35 -38.5 -64.5t-69.5 -48.5q-78 -37 -119 1 t-37 112q6 84 32.5 164t55.5 164h-123q-41 -76 -88 -155t-107.5 -145.5t-133 -112.5t-162.5 -54q-20 -2 -48 -1t-54.5 9t-50 21.5t-36.5 35.5q-16 31 -14 62zM788 479h121q45 117 87 230.5t94 228.5q53 123 111.5 240.5t123.5 232.5q-78 -68 -149.5 -183.5t-143.5 -256.5 q-61 -123 -119.5 -246t-124.5 -246zM1057 1530l133 107l131 -107h-49l-82 66l-82 -66h-51z" />
<glyph unicode="&#xc3;" d="M86 119q2 23 17.5 30t31 1.5t24.5 -18.5t1 -32q-10 -23 -14.5 -40t22.5 -33q29 -12 59.5 -16.5t59.5 -0.5q88 8 160.5 55.5t132 115t106.5 148.5t86 156q66 127 124 252t124 252q74 145 149.5 264t159.5 183q-143 12 -291.5 13t-316.5 -34q-166 -41 -301 -143.5 t-201 -265.5q-39 -96 -44 -207t36 -209q20 -49 56 -90t80 -66.5t97.5 -33t108.5 11.5q61 23 103 68.5t77 107.5q-6 -68 -59 -120t-117 -75q-59 -18 -114.5 -11t-102.5 34.5t-85 69.5t-60 96q-43 102 -38 216.5t46 215.5q66 166 205 271.5t309 146.5q150 35 303.5 36.5 t312.5 -16.5q12 0 21.5 -4.5t3.5 -20.5q-55 -125 -111.5 -247.5t-109.5 -249.5q-47 -117 -94.5 -233.5t-86.5 -237.5q-29 -78 -54 -159t-36 -167q-4 -25 -2 -49.5t11.5 -41.5t29 -21.5t53.5 10.5q35 16 65 42.5t56 57.5q-8 -35 -38.5 -64.5t-69.5 -48.5q-78 -37 -119 1 t-37 112q6 84 32.5 164t55.5 164h-123q-41 -76 -88 -155t-107.5 -145.5t-133 -112.5t-162.5 -54q-20 -2 -48 -1t-54.5 9t-50 21.5t-36.5 35.5q-16 31 -14 62zM788 479h121q45 117 87 230.5t94 228.5q53 123 111.5 240.5t123.5 232.5q-78 -68 -149.5 -183.5t-143.5 -256.5 q-61 -123 -119.5 -246t-124.5 -246zM948 1495q6 20 23 37q18 25 47 37t59 14q49 2 97.5 -13.5t93.5 -25.5q29 -4 56.5 -2t49.5 19q31 20 27 45.5t-27 35.5t-40 -2t-27 -30q-6 -10 -9.5 -19.5t-7.5 -19.5q-2 23 4 47q10 27 33 40t51 9q25 -6 34 -21.5t9 -35t-9 -39t-21 -31.5 q-27 -25 -61 -36t-68 -9q-49 2 -94.5 26.5t-92.5 30.5q-29 4 -50 -4t-44 -24q-10 -8 -17.5 -14.5t-15.5 -14.5z" />
<glyph unicode="&#xc4;" d="M86 119q2 23 17.5 30t31 1.5t24.5 -18.5t1 -32q-10 -23 -14.5 -40t22.5 -33q29 -12 59.5 -16.5t59.5 -0.5q88 8 160.5 55.5t132 115t106.5 148.5t86 156q66 127 124 252t124 252q74 145 149.5 264t159.5 183q-143 12 -291.5 13t-316.5 -34q-166 -41 -301 -143.5 t-201 -265.5q-39 -96 -44 -207t36 -209q20 -49 56 -90t80 -66.5t97.5 -33t108.5 11.5q61 23 103 68.5t77 107.5q-6 -68 -59 -120t-117 -75q-59 -18 -114.5 -11t-102.5 34.5t-85 69.5t-60 96q-43 102 -38 216.5t46 215.5q66 166 205 271.5t309 146.5q150 35 303.5 36.5 t312.5 -16.5q12 0 21.5 -4.5t3.5 -20.5q-55 -125 -111.5 -247.5t-109.5 -249.5q-47 -117 -94.5 -233.5t-86.5 -237.5q-29 -78 -54 -159t-36 -167q-4 -25 -2 -49.5t11.5 -41.5t29 -21.5t53.5 10.5q35 16 65 42.5t56 57.5q-8 -35 -38.5 -64.5t-69.5 -48.5q-78 -37 -119 1 t-37 112q6 84 32.5 164t55.5 164h-123q-41 -76 -88 -155t-107.5 -145.5t-133 -112.5t-162.5 -54q-20 -2 -48 -1t-54.5 9t-50 21.5t-36.5 35.5q-16 31 -14 62zM788 479h121q45 117 87 230.5t94 228.5q53 123 111.5 240.5t123.5 232.5q-78 -68 -149.5 -183.5t-143.5 -256.5 q-61 -123 -119.5 -246t-124.5 -246zM1219.5 1505.5q-7.5 16.5 3.5 38.5q12 23 36.5 40.5t49.5 17.5q23 0 30 -17.5t-8 -40.5q-10 -23 -33.5 -39t-50.5 -16q-20 0 -27.5 16.5zM1361.5 1505.5q-7.5 16.5 2.5 38.5q12 23 36.5 40.5t49.5 17.5q23 0 30 -17.5t-7 -40.5 q-10 -23 -34 -39t-50 -16q-20 0 -27.5 16.5z" />
<glyph unicode="&#xc5;" d="M86 119q2 23 17.5 30t31 1.5t24.5 -18.5t1 -32q-10 -23 -14.5 -40t22.5 -33q29 -12 59.5 -16.5t59.5 -0.5q88 8 160.5 55.5t132 115t106.5 148.5t86 156q66 127 124 252t124 252q74 145 149.5 264t159.5 183q-143 12 -291.5 13t-316.5 -34q-166 -41 -301 -143.5 t-201 -265.5q-39 -96 -44 -207t36 -209q20 -49 56 -90t80 -66.5t97.5 -33t108.5 11.5q61 23 103 68.5t77 107.5q-6 -68 -59 -120t-117 -75q-59 -18 -114.5 -11t-102.5 34.5t-85 69.5t-60 96q-43 102 -38 216.5t46 215.5q66 166 205 271.5t309 146.5q150 35 303.5 36.5 t312.5 -16.5q12 0 21.5 -4.5t3.5 -20.5q-55 -125 -111.5 -247.5t-109.5 -249.5q-47 -117 -94.5 -233.5t-86.5 -237.5q-29 -78 -54 -159t-36 -167q-4 -25 -2 -49.5t11.5 -41.5t29 -21.5t53.5 10.5q35 16 65 42.5t56 57.5q-8 -35 -38.5 -64.5t-69.5 -48.5q-78 -37 -119 1 t-37 112q6 84 32.5 164t55.5 164h-123q-41 -76 -88 -155t-107.5 -145.5t-133 -112.5t-162.5 -54q-20 -2 -48 -1t-54.5 9t-50 21.5t-36.5 35.5q-16 31 -14 62zM788 479h121q45 117 87 230.5t94 228.5q53 123 111.5 240.5t123.5 232.5q-78 -68 -149.5 -183.5t-143.5 -256.5 q-61 -123 -119.5 -246t-124.5 -246zM1285 1512.5q-9 19.5 5 48.5q16 29 46 50t61 21q27 0 35 -21.5t-9 -49.5q-10 -29 -39.5 -48.5t-64.5 -19.5q-25 0 -34 19.5zM1309 1528.5q6 -12.5 22 -12.5q20 0 39 12t27 31q10 18 3.5 31.5t-22.5 13.5q-18 0 -37.5 -13.5t-29.5 -31.5 q-8 -18 -2 -30.5z" />
<glyph unicode="&#xc6;" horiz-adv-x="2029" d="M86 119q2 23 17.5 30t31 1.5t24.5 -18.5t1 -32q-10 -23 -14.5 -40t22.5 -33q29 -12 59.5 -16.5t59.5 -0.5q88 8 160.5 55.5t132 115t106.5 148.5t86 156q66 127 124 252t124 252q74 145 149.5 264t159.5 183q-143 12 -291.5 13t-316.5 -34q-166 -41 -301 -143.5 t-201 -265.5q-39 -96 -44 -207t36 -209q20 -49 56 -90t80 -66.5t97.5 -33t108.5 11.5q61 23 103 68.5t77 107.5q-6 -68 -59 -120t-117 -75q-59 -18 -114.5 -11t-102.5 34.5t-85 69.5t-60 96q-43 102 -38 216.5t46 215.5q66 166 205 271.5t309 146.5q150 35 303.5 36.5 t312.5 -16.5q12 0 21.5 -4.5t3.5 -20.5q-55 -125 -111.5 -247.5t-109.5 -249.5q-47 -117 -94.5 -233.5t-86.5 -237.5q-29 -78 -54 -159t-36 -167q-4 -25 -2 -49.5t11.5 -41.5t29 -21.5t53.5 10.5q35 16 65 42.5t56 57.5q-8 -35 -38.5 -64.5t-69.5 -48.5q-78 -37 -119 1 t-37 112q6 84 32.5 164t55.5 164h-123q-41 -76 -88 -155t-107.5 -145.5t-133 -112.5t-162.5 -54q-20 -2 -48 -1t-54.5 9t-50 21.5t-36.5 35.5q-16 31 -14 62zM788 479h121q45 117 87 230.5t94 228.5q53 123 111.5 240.5t123.5 232.5q-78 -68 -149.5 -183.5t-143.5 -256.5 q-61 -123 -119.5 -246t-124.5 -246zM1103 396.5q-9 70.5 3 142t47 137.5q37 59 91 108.5t120 79.5q-20 66 -17 133.5t26.5 131t63.5 119t93 98.5q47 39 103.5 61.5t115.5 22.5q51 2 103.5 -19.5t90 -58.5t53 -88.5t-6.5 -110.5q-16 -47 -60.5 -78t-92.5 -36t-89 20.5 t-53 89.5q-2 14 1 34.5t17 30.5q12 12 26.5 9.5t25 -14t12.5 -26t-13 -26.5q-14 -10 -23 -20.5t-9 -20.5q6 -29 30.5 -43t54 -16t59.5 6t48 24q29 27 47.5 75t7.5 89q-18 80 -84.5 122t-144.5 42q-55 -4 -106.5 -23.5t-90.5 -50.5q-49 -41 -81.5 -95t-46 -114.5t-9.5 -124 t27 -120.5q96 29 203 0q53 -14 84.5 -46t42.5 -63q8 -31 1.5 -56.5t-22.5 -42.5t-40.5 -26.5t-51.5 -9.5q-43 -4 -88 13.5t-84 46t-68.5 65.5t-44.5 76q-141 -66 -192 -182q-23 -55 -27 -118t9.5 -124.5t42 -118.5t69.5 -102q47 -49 107.5 -85.5t136.5 -52.5 q74 -14 147.5 -4.5t140 37t123 74.5t97.5 111h14q-35 -72 -95.5 -128.5t-134 -92t-155.5 -51t-160 -5.5t-148.5 44t-123.5 91q-51 55 -82 122t-40 137.5zM1446 872q12 -31 33.5 -62.5t50.5 -60t61.5 -48t67.5 -25.5q47 -10 80 17.5t14 74.5q-6 33 -34.5 60.5t-82.5 43.5 q-92 20 -190 0z" />
<glyph unicode="&#xc7;" horiz-adv-x="741" d="M14 338q-10 117 23 248t90 256t128 231.5t138 171.5q41 41 97.5 79t121 64.5t132 38t130 2t116.5 -44t93 -102.5q16 -31 21.5 -65.5t0.5 -69.5t-20.5 -67.5t-40.5 -59.5q-23 -25 -52 -44.5t-64 -21.5q-27 -4 -52.5 5.5t-37.5 35.5q-8 14 -3 27.5t16 21t24.5 5.5t23.5 -17 q29 -45 62.5 -45t66.5 43q37 49 38 105.5t-23.5 109.5t-68.5 96t-100 64q-63 18 -125.5 7t-121 -40t-109.5 -70.5t-90 -87.5q-66 -74 -127 -176t-107.5 -219t-70.5 -238.5t-14 -232.5q4 -55 21 -112.5t48 -104.5t77 -77.5t112 -35.5q68 -4 129 19.5t114.5 65.5t95.5 96.5 t68 115.5q-2 -45 -27.5 -88t-61.5 -80.5t-76 -66.5t-70 -43q-39 -16 -82 -26.5t-86 -10.5q-80 -4 -143.5 20.5t-108.5 69.5t-72 108.5t-33 139.5zM375 -195q16 2 34.5 8.5t32.5 14.5q18 10 27.5 31.5t-8.5 38.5q-12 12 -21 18q-16 12 -14 28.5t14.5 27t28.5 10.5t29 -19 q16 -25 14 -54.5t-16 -51.5q-14 -27 -41 -41q-16 -10 -37 -14.5t-43 3.5z" />
<glyph unicode="&#xc8;" horiz-adv-x="956" d="M29.5 396.5q-9.5 70.5 3 142t47.5 137.5q37 59 91 108.5t120 79.5q-20 66 -17.5 133.5t26.5 131t63.5 119t93.5 98.5q47 39 103 61.5t116 22.5q51 2 103 -19.5t90 -58.5t53.5 -88.5t-7.5 -110.5q-16 -47 -60 -78t-92 -36t-89 20.5t-53 89.5q-2 14 1 34.5t17 30.5 q12 12 26.5 9.5t24.5 -14t12.5 -26t-12.5 -26.5q-14 -10 -23.5 -20.5t-9.5 -20.5q6 -29 31 -43t54.5 -16t59 6t48.5 24q29 27 47 75t8 89q-18 80 -84.5 122t-144.5 42q-55 -4 -106.5 -23.5t-90.5 -50.5q-49 -41 -81.5 -95t-46 -114.5t-9.5 -124t27 -120.5q96 29 202 0 q53 -14 85 -46t42 -63q8 -31 2 -56.5t-22 -42.5t-41 -26.5t-51 -9.5q-43 -4 -88 13.5t-84 46t-69 65.5t-44 76q-141 -66 -192 -182q-23 -55 -27 -118t9 -124.5t42 -118.5t70 -102q47 -49 107 -85.5t136 -52.5q74 -14 148 -4.5t140.5 37t122.5 74.5t97 111h15 q-35 -72 -95.5 -128.5t-134 -92t-155.5 -51t-160 -5.5t-148.5 44t-123.5 91q-51 55 -82 122t-40.5 137.5zM373 872q12 -31 33.5 -62.5t50 -60t61.5 -48t68 -25.5q47 -10 79.5 17.5t14.5 74.5q-6 33 -35 60.5t-82 43.5q-92 20 -190 0zM569 1534h93q35 -125 172 -150 q-86 4 -157 45t-108 105z" />
<glyph unicode="&#xc9;" horiz-adv-x="956" d="M29.5 396.5q-9.5 70.5 3 142t47.5 137.5q37 59 91 108.5t120 79.5q-20 66 -17.5 133.5t26.5 131t63.5 119t93.5 98.5q47 39 103 61.5t116 22.5q51 2 103 -19.5t90 -58.5t53.5 -88.5t-7.5 -110.5q-16 -47 -60 -78t-92 -36t-89 20.5t-53 89.5q-2 14 1 34.5t17 30.5 q12 12 26.5 9.5t24.5 -14t12.5 -26t-12.5 -26.5q-14 -10 -23.5 -20.5t-9.5 -20.5q6 -29 31 -43t54.5 -16t59 6t48.5 24q29 27 47 75t8 89q-18 80 -84.5 122t-144.5 42q-55 -4 -106.5 -23.5t-90.5 -50.5q-49 -41 -81.5 -95t-46 -114.5t-9.5 -124t27 -120.5q96 29 202 0 q53 -14 85 -46t42 -63q8 -31 2 -56.5t-22 -42.5t-41 -26.5t-51 -9.5q-43 -4 -88 13.5t-84 46t-69 65.5t-44 76q-141 -66 -192 -182q-23 -55 -27 -118t9 -124.5t42 -118.5t70 -102q47 -49 107 -85.5t136 -52.5q74 -14 148 -4.5t140.5 37t122.5 74.5t97 111h15 q-35 -72 -95.5 -128.5t-134 -92t-155.5 -51t-160 -5.5t-148.5 44t-123.5 91q-51 55 -82 122t-40.5 137.5zM373 872q12 -31 33.5 -62.5t50 -60t61.5 -48t68 -25.5q47 -10 79.5 17.5t14.5 74.5q-6 33 -35 60.5t-82 43.5q-92 20 -190 0zM668 1372q137 25 172 150h92 q-37 -63 -107.5 -104.5t-156.5 -45.5z" />
<glyph unicode="&#xca;" horiz-adv-x="956" d="M29.5 396.5q-9.5 70.5 3 142t47.5 137.5q37 59 91 108.5t120 79.5q-20 66 -17.5 133.5t26.5 131t63.5 119t93.5 98.5q47 39 103 61.5t116 22.5q51 2 103 -19.5t90 -58.5t53.5 -88.5t-7.5 -110.5q-16 -47 -60 -78t-92 -36t-89 20.5t-53 89.5q-2 14 1 34.5t17 30.5 q12 12 26.5 9.5t24.5 -14t12.5 -26t-12.5 -26.5q-14 -10 -23.5 -20.5t-9.5 -20.5q6 -29 31 -43t54.5 -16t59 6t48.5 24q29 27 47 75t8 89q-18 80 -84.5 122t-144.5 42q-55 -4 -106.5 -23.5t-90.5 -50.5q-49 -41 -81.5 -95t-46 -114.5t-9.5 -124t27 -120.5q96 29 202 0 q53 -14 85 -46t42 -63q8 -31 2 -56.5t-22 -42.5t-41 -26.5t-51 -9.5q-43 -4 -88 13.5t-84 46t-69 65.5t-44 76q-141 -66 -192 -182q-23 -55 -27 -118t9 -124.5t42 -118.5t70 -102q47 -49 107 -85.5t136 -52.5q74 -14 148 -4.5t140.5 37t122.5 74.5t97 111h15 q-35 -72 -95.5 -128.5t-134 -92t-155.5 -51t-160 -5.5t-148.5 44t-123.5 91q-51 55 -82 122t-40.5 137.5zM373 872q12 -31 33.5 -62.5t50 -60t61.5 -48t68 -25.5q47 -10 79.5 17.5t14.5 74.5q-6 33 -35 60.5t-82 43.5q-92 20 -190 0zM559 1487l133 107l131 -107h-49l-82 66 l-82 -66h-51z" />
<glyph unicode="&#xcb;" horiz-adv-x="956" d="M29.5 396.5q-9.5 70.5 3 142t47.5 137.5q37 59 91 108.5t120 79.5q-20 66 -17.5 133.5t26.5 131t63.5 119t93.5 98.5q47 39 103 61.5t116 22.5q51 2 103 -19.5t90 -58.5t53.5 -88.5t-7.5 -110.5q-16 -47 -60 -78t-92 -36t-89 20.5t-53 89.5q-2 14 1 34.5t17 30.5 q12 12 26.5 9.5t24.5 -14t12.5 -26t-12.5 -26.5q-14 -10 -23.5 -20.5t-9.5 -20.5q6 -29 31 -43t54.5 -16t59 6t48.5 24q29 27 47 75t8 89q-18 80 -84.5 122t-144.5 42q-55 -4 -106.5 -23.5t-90.5 -50.5q-49 -41 -81.5 -95t-46 -114.5t-9.5 -124t27 -120.5q96 29 202 0 q53 -14 85 -46t42 -63q8 -31 2 -56.5t-22 -42.5t-41 -26.5t-51 -9.5q-43 -4 -88 13.5t-84 46t-69 65.5t-44 76q-141 -66 -192 -182q-23 -55 -27 -118t9 -124.5t42 -118.5t70 -102q47 -49 107 -85.5t136 -52.5q74 -14 148 -4.5t140.5 37t122.5 74.5t97 111h15 q-35 -72 -95.5 -128.5t-134 -92t-155.5 -51t-160 -5.5t-148.5 44t-123.5 91q-51 55 -82 122t-40.5 137.5zM373 872q12 -31 33.5 -62.5t50 -60t61.5 -48t68 -25.5q47 -10 79.5 17.5t14.5 74.5q-6 33 -35 60.5t-82 43.5q-92 20 -190 0zM689.5 1509.5q-7.5 16.5 2.5 38.5 q12 23 36.5 40.5t49.5 17.5q23 0 30 -17.5t-7 -40.5q-10 -23 -34 -39t-50 -16q-20 0 -27.5 16.5zM830.5 1509.5q-7.5 16.5 3.5 38.5q12 23 36.5 40.5t49.5 17.5q23 0 29.5 -17.5t-7.5 -40.5q-10 -23 -33.5 -39t-50.5 -16q-20 0 -27.5 16.5z" />
<glyph unicode="&#xcc;" horiz-adv-x="806" d="M-38 364.5q-1 79.5 27.5 151.5t87 130t144.5 87q-14 72 -4 142.5t38 136t72 124t97 105.5q76 66 161 103.5t177 56t187 25t190 6.5q61 0 119.5 1t109.5 5h2v-19q-88 -47 -147.5 -127t-100.5 -166q-61 -125 -104 -266t-94.5 -279.5t-124 -263t-191.5 -215.5 q-74 -55 -164 -79.5t-177 -12t-159.5 62.5t-113.5 140q-31 72 -32 151.5zM0 379q8 -70 43 -131q39 -70 106.5 -118t146.5 -68.5t161 -8t147 65.5q70 57 118 135t86 167t66.5 186.5t58.5 192.5t64.5 184t81.5 165q49 78 110.5 143.5t137.5 124.5q-90 -6 -188 -6 q-90 0 -178.5 -10t-171 -35t-158.5 -68t-142 -108q-104 -98 -154 -215t-46 -223q43 8 102.5 3t113.5 -25.5t94 -56.5t46 -91q2 -29 -11 -49.5t-37 -34t-50.5 -18.5t-50.5 -5q-49 2 -93.5 23.5t-81 53.5t-62.5 74t-36 89q-84 -31 -136 -84t-73.5 -117.5t-13.5 -134.5z M291 733q4 -45 18.5 -87t41 -74.5t62.5 -54t83 -23.5q18 -2 42.5 2t46 14t35 27.5t11.5 42.5q-6 49 -45 81.5t-91.5 51t-108.5 22.5t-95 -2zM938 1544h92q35 -124 172 -149q-86 4 -156.5 45t-107.5 104z" />
<glyph unicode="&#xcd;" horiz-adv-x="806" d="M-38 364.5q-1 79.5 27.5 151.5t87 130t144.5 87q-14 72 -4 142.5t38 136t72 124t97 105.5q76 66 161 103.5t177 56t187 25t190 6.5q61 0 119.5 1t109.5 5h2v-19q-88 -47 -147.5 -127t-100.5 -166q-61 -125 -104 -266t-94.5 -279.5t-124 -263t-191.5 -215.5 q-74 -55 -164 -79.5t-177 -12t-159.5 62.5t-113.5 140q-31 72 -32 151.5zM0 379q8 -70 43 -131q39 -70 106.5 -118t146.5 -68.5t161 -8t147 65.5q70 57 118 135t86 167t66.5 186.5t58.5 192.5t64.5 184t81.5 165q49 78 110.5 143.5t137.5 124.5q-90 -6 -188 -6 q-90 0 -178.5 -10t-171 -35t-158.5 -68t-142 -108q-104 -98 -154 -215t-46 -223q43 8 102.5 3t113.5 -25.5t94 -56.5t46 -91q2 -29 -11 -49.5t-37 -34t-50.5 -18.5t-50.5 -5q-49 2 -93.5 23.5t-81 53.5t-62.5 74t-36 89q-84 -31 -136 -84t-73.5 -117.5t-13.5 -134.5z M291 733q4 -45 18.5 -87t41 -74.5t62.5 -54t83 -23.5q18 -2 42.5 2t46 14t35 27.5t11.5 42.5q-6 49 -45 81.5t-91.5 51t-108.5 22.5t-95 -2zM1051 1382q137 25 172 150h92q-37 -63 -107.5 -104.5t-156.5 -45.5z" />
<glyph unicode="&#xce;" horiz-adv-x="806" d="M-38 364.5q-1 79.5 27.5 151.5t87 130t144.5 87q-14 72 -4 142.5t38 136t72 124t97 105.5q76 66 161 103.5t177 56t187 25t190 6.5q61 0 119.5 1t109.5 5h2v-19q-88 -47 -147.5 -127t-100.5 -166q-61 -125 -104 -266t-94.5 -279.5t-124 -263t-191.5 -215.5 q-74 -55 -164 -79.5t-177 -12t-159.5 62.5t-113.5 140q-31 72 -32 151.5zM0 379q8 -70 43 -131q39 -70 106.5 -118t146.5 -68.5t161 -8t147 65.5q70 57 118 135t86 167t66.5 186.5t58.5 192.5t64.5 184t81.5 165q49 78 110.5 143.5t137.5 124.5q-90 -6 -188 -6 q-90 0 -178.5 -10t-171 -35t-158.5 -68t-142 -108q-104 -98 -154 -215t-46 -223q43 8 102.5 3t113.5 -25.5t94 -56.5t46 -91q2 -29 -11 -49.5t-37 -34t-50.5 -18.5t-50.5 -5q-49 2 -93.5 23.5t-81 53.5t-62.5 74t-36 89q-84 -31 -136 -84t-73.5 -117.5t-13.5 -134.5z M291 733q4 -45 18.5 -87t41 -74.5t62.5 -54t83 -23.5q18 -2 42.5 2t46 14t35 27.5t11.5 42.5q-6 49 -45 81.5t-91.5 51t-108.5 22.5t-95 -2zM1012 1509l133 107l131 -107h-49l-82 66l-82 -66h-51z" />
<glyph unicode="&#xcf;" horiz-adv-x="806" d="M-38 364.5q-1 79.5 27.5 151.5t87 130t144.5 87q-14 72 -4 142.5t38 136t72 124t97 105.5q76 66 161 103.5t177 56t187 25t190 6.5q61 0 119.5 1t109.5 5h2v-19q-88 -47 -147.5 -127t-100.5 -166q-61 -125 -104 -266t-94.5 -279.5t-124 -263t-191.5 -215.5 q-74 -55 -164 -79.5t-177 -12t-159.5 62.5t-113.5 140q-31 72 -32 151.5zM0 379q8 -70 43 -131q39 -70 106.5 -118t146.5 -68.5t161 -8t147 65.5q70 57 118 135t86 167t66.5 186.5t58.5 192.5t64.5 184t81.5 165q49 78 110.5 143.5t137.5 124.5q-90 -6 -188 -6 q-90 0 -178.5 -10t-171 -35t-158.5 -68t-142 -108q-104 -98 -154 -215t-46 -223q43 8 102.5 3t113.5 -25.5t94 -56.5t46 -91q2 -29 -11 -49.5t-37 -34t-50.5 -18.5t-50.5 -5q-49 2 -93.5 23.5t-81 53.5t-62.5 74t-36 89q-84 -31 -136 -84t-73.5 -117.5t-13.5 -134.5z M291 733q4 -45 18.5 -87t41 -74.5t62.5 -54t83 -23.5q18 -2 42.5 2t46 14t35 27.5t11.5 42.5q-6 49 -45 81.5t-91.5 51t-108.5 22.5t-95 -2zM968 1509.5q-7 16.5 3 38.5q12 23 36.5 40.5t49.5 17.5q23 0 30 -17.5t-8 -40.5q-10 -23 -33.5 -39t-50.5 -16q-20 0 -27 16.5z M1109.5 1509.5q-7.5 16.5 2.5 38.5q12 23 36.5 40.5t49.5 17.5q23 0 30 -17.5t-7 -40.5q-10 -23 -34 -39t-50 -16q-20 0 -27.5 16.5z" />
<glyph unicode="&#xd0;" horiz-adv-x="1230" d="M8 827q12 119 64.5 223.5t133.5 186.5t186.5 135t223.5 72q88 12 177.5 6t172.5 -33.5t156.5 -77t128.5 -120.5q49 -61 78 -133t41 -148t9 -153.5t-21 -153.5q-23 -100 -70 -195.5t-113.5 -176.5t-150.5 -143.5t-182 -95.5q-104 -37 -209 -33.5t-205 54.5 q-51 -25 -103.5 -41t-109.5 -20q-20 -2 -42.5 -2.5t-45.5 4t-43.5 13.5t-34.5 25q-20 23 -12 49.5t35 45.5q29 23 71.5 25.5t77.5 -3.5q53 -10 106.5 -32.5t100.5 -43.5q94 66 161.5 157t121 194.5t100.5 211t101.5 206t123 180.5t166.5 135q-47 80 -110.5 138t-138 95 t-159.5 49.5t-173 -0.5q-115 -16 -213.5 -69t-171 -133t-115.5 -182.5t-45 -219.5q-4 -125 47 -225q27 -51 70 -89t94 -61.5t107.5 -29.5t111.5 6q47 10 90 37.5t73.5 66.5t46 87.5t9.5 97.5q-6 31 -24.5 33t-43.5 -3q-20 -2 -29.5 11.5t-8 30t13.5 28.5t35 6 q37 -8 56 -38.5t24 -65.5q0 -104 -57.5 -189.5t-166.5 -136.5q-63 -23 -128.5 -23.5t-126 20t-114 59t-92.5 96.5q-37 66 -49 138.5t-6 147.5zM103 63.5q-1 -18.5 13.5 -36t43.5 -25.5q27 -6 59.5 -3t65 10t64.5 18.5t57 23.5q-27 10 -55.5 24.5t-58.5 25t-60.5 16.5 t-61.5 2q-33 -6 -49.5 -21.5t-17.5 -34zM408 225l16 41h397l-16 -41h-397zM446 53q98 -41 193.5 -35.5t181.5 45.5q84 39 156 100.5t129 137.5t97 162t61 174q29 125 19 250.5t-71 238.5q-90 -68 -151.5 -158.5t-108.5 -191t-90 -206t-97 -202t-130 -178t-189 -137.5z" />
<glyph unicode="&#xd1;" horiz-adv-x="1435" d="M16.5 201.5q-12.5 68.5 3 138.5t66.5 127q41 45 98.5 71.5t120 31.5t123.5 -12t111 -58q70 -61 79 -150q27 12 55.5 19.5t56.5 7.5t53.5 -10.5t45.5 -36.5q14 -20 21.5 -46t4.5 -52.5t-15.5 -51t-34.5 -43.5q-53 -47 -116.5 -37.5t-115.5 52.5q-31 27 -62.5 72.5 t-67 86.5t-77.5 63.5t-96 4.5q-35 -12 -45 -32.5t-3 -40t27.5 -33t47.5 -13.5q20 4 31.5 -9t11.5 -29.5t-10.5 -31t-34.5 -10.5q-18 2 -34.5 12.5t-29.5 22.5q-18 20 -25 48t-3 54.5t18.5 48t40.5 31.5q57 20 101.5 -1t81 -61t70.5 -88t71 -81q43 -41 101 -49t106 33 q43 35 44 78.5t-32 70.5q-25 18 -53.5 22.5t-58 -2t-59.5 -20.5t-54 -31q-6 55 -32 104.5t-69 84.5q-41 33 -92 51t-102.5 20t-99.5 -15t-85 -58q-47 -53 -61 -120t-2 -131.5t48 -122.5t91 -95q94 -70 201.5 -77t210 30.5t190.5 110.5t142 165q41 61 88 157.5t86 208 t62.5 231.5t19 229.5t-44 199.5t-130.5 143q-53 35 -116.5 36t-122.5 -21q-66 -23 -122 -67t-96 -102.5t-63.5 -126t-23.5 -136.5q0 -94 41 -183q37 -74 97 -109.5t122.5 -30.5t119 48t87.5 127q10 33 15 67t5 68q12 -35 11 -70.5t-11 -70.5q-31 -84 -91 -132t-131 -60.5 t-143.5 11t-129.5 85.5q-51 55 -73 124.5t-18 143.5q8 76 44 144.5t88.5 125t118 98.5t134.5 64q66 23 137.5 27t137.5 -21q92 -29 149.5 -102.5t91 -167.5t52 -194.5t30.5 -184.5q10 -72 19.5 -143.5t15.5 -145.5q51 145 122 302t167 292t225 232.5t299 128.5q57 10 111 0 q33 -6 58.5 -25.5t11.5 -60.5q-8 -25 -21.5 -33t-29 -7t-31 10t-29.5 22q-55 45 -114.5 48t-117 -19.5t-109.5 -62.5t-95 -81q-92 -88 -159 -190.5t-117 -214t-89 -228.5t-76 -236v-24q0 -35 1 -77t-2 -85t-13 -83t-31 -70q-23 -29 -49 -21t-31 55q0 49 10.5 96.5t26 93.5 t31.5 91t29 92q-6 141 -25.5 298t-60.5 296q0 -102 -23.5 -215t-64.5 -222.5t-93.5 -210t-109.5 -179.5q-68 -96 -164 -170t-205.5 -110t-224.5 -26.5t-219 80.5q-57 39 -96 100.5t-51.5 130zM1268 1360q18 49 69 65q37 16 75 12.5t73 -24.5q27 -16 51 -32.5t53 -26.5 q23 -8 51.5 -3t47.5 23q10 12 13 27.5t-11 28.5q-4 4 -9.5 8t-9.5 8q-16 12 -14 27.5t13 25.5t26.5 11t27.5 -17q18 -31 13 -66q-2 -20 -12.5 -36.5t-26.5 -32.5q-49 -41 -119 -31q-29 4 -56.5 16.5t-54.5 24.5q-29 12 -59.5 24.5t-60.5 8.5q-23 -4 -43.5 -15.5t-36.5 -25.5 zM1298 51q0 -16 6.5 -24.5t18.5 14.5q16 27 23.5 57.5t10.5 62.5t2 63.5t-1 60.5q-16 -53 -39 -116t-21 -118z" />
<glyph unicode="&#xd2;" horiz-adv-x="811" d="M16.5 463.5q8.5 107.5 39 213t77.5 206t100 186.5q47 80 105.5 154.5t134.5 130.5q53 39 119.5 62.5t132.5 21.5t122 -32t89 -97q41 -84 52 -175.5t2 -183.5t-33.5 -182t-55.5 -174q-25 -72 -58.5 -144.5t-75.5 -141t-93 -129t-115 -105.5q-51 -35 -110.5 -53.5 t-120 -18.5t-116.5 22.5t-101 71.5q-29 33 -48.5 73t-29.5 85q-25 102 -16.5 209.5zM128 370.5q9 -116.5 58 -220.5q27 -59 69 -89t91 -35.5t102.5 11t100.5 51.5q121 94 191.5 232.5t109.5 293.5q18 80 32.5 166t15.5 172t-16.5 169t-60.5 159q-29 47 -66.5 74.5t-81.5 36 t-91 -4t-90 -45.5q-76 -53 -126.5 -132.5t-89.5 -159.5q-47 -98 -85.5 -212t-55 -232t-7.5 -234.5zM498 1606h92q35 -125 172 -150q-86 4 -156.5 45t-107.5 105z" />
<glyph unicode="&#xd3;" horiz-adv-x="811" d="M16.5 463.5q8.5 107.5 39 213t77.5 206t100 186.5q47 80 105.5 154.5t134.5 130.5q53 39 119.5 62.5t132.5 21.5t122 -32t89 -97q41 -84 52 -175.5t2 -183.5t-33.5 -182t-55.5 -174q-25 -72 -58.5 -144.5t-75.5 -141t-93 -129t-115 -105.5q-51 -35 -110.5 -53.5 t-120 -18.5t-116.5 22.5t-101 71.5q-29 33 -48.5 73t-29.5 85q-25 102 -16.5 209.5zM128 370.5q9 -116.5 58 -220.5q27 -59 69 -89t91 -35.5t102.5 11t100.5 51.5q121 94 191.5 232.5t109.5 293.5q18 80 32.5 166t15.5 172t-16.5 169t-60.5 159q-29 47 -66.5 74.5t-81.5 36 t-91 -4t-90 -45.5q-76 -53 -126.5 -132.5t-89.5 -159.5q-47 -98 -85.5 -212t-55 -232t-7.5 -234.5zM748 1452q137 25 172 150h92q-37 -63 -107.5 -104.5t-156.5 -45.5z" />
<glyph unicode="&#xd4;" horiz-adv-x="811" d="M16.5 463.5q8.5 107.5 39 213t77.5 206t100 186.5q47 80 105.5 154.5t134.5 130.5q53 39 119.5 62.5t132.5 21.5t122 -32t89 -97q41 -84 52 -175.5t2 -183.5t-33.5 -182t-55.5 -174q-25 -72 -58.5 -144.5t-75.5 -141t-93 -129t-115 -105.5q-51 -35 -110.5 -53.5 t-120 -18.5t-116.5 22.5t-101 71.5q-29 33 -48.5 73t-29.5 85q-25 102 -16.5 209.5zM128 370.5q9 -116.5 58 -220.5q27 -59 69 -89t91 -35.5t102.5 11t100.5 51.5q121 94 191.5 232.5t109.5 293.5q18 80 32.5 166t15.5 172t-16.5 169t-60.5 159q-29 47 -66.5 74.5t-81.5 36 t-91 -4t-90 -45.5q-76 -53 -126.5 -132.5t-89.5 -159.5q-47 -98 -85.5 -212t-55 -232t-7.5 -234.5zM627 1487l133 107l131 -107h-49l-82 66l-82 -66h-51z" />
<glyph unicode="&#xd5;" horiz-adv-x="811" d="M16.5 463.5q8.5 107.5 39 213t77.5 206t100 186.5q47 80 105.5 154.5t134.5 130.5q53 39 119.5 62.5t132.5 21.5t122 -32t89 -97q41 -84 52 -175.5t2 -183.5t-33.5 -182t-55.5 -174q-25 -72 -58.5 -144.5t-75.5 -141t-93 -129t-115 -105.5q-51 -35 -110.5 -53.5 t-120 -18.5t-116.5 22.5t-101 71.5q-29 33 -48.5 73t-29.5 85q-25 102 -16.5 209.5zM128 370.5q9 -116.5 58 -220.5q27 -59 69 -89t91 -35.5t102.5 11t100.5 51.5q121 94 191.5 232.5t109.5 293.5q18 80 32.5 166t15.5 172t-16.5 169t-60.5 159q-29 47 -66.5 74.5t-81.5 36 t-91 -4t-90 -45.5q-76 -53 -126.5 -132.5t-89.5 -159.5q-47 -98 -85.5 -212t-55 -232t-7.5 -234.5zM514 1507q18 49 70 66q37 16 74.5 12t72.5 -24q27 -16 51.5 -33t53.5 -27q23 -8 51 -3t47 24q10 12 13 27.5t-11 27.5q-4 4 -9 8t-9 8q-16 12 -14.5 27.5t13 26t26.5 11.5 t28 -18q18 -31 12 -65q-2 -20 -12 -36.5t-27 -33.5q-49 -41 -119 -30q-29 4 -56.5 16t-53.5 25q-29 12 -59.5 24t-61.5 8q-23 -4 -43.5 -15t-36.5 -26z" />
<glyph unicode="&#xd6;" horiz-adv-x="811" d="M16.5 463.5q8.5 107.5 39 213t77.5 206t100 186.5q47 80 105.5 154.5t134.5 130.5q53 39 119.5 62.5t132.5 21.5t122 -32t89 -97q41 -84 52 -175.5t2 -183.5t-33.5 -182t-55.5 -174q-25 -72 -58.5 -144.5t-75.5 -141t-93 -129t-115 -105.5q-51 -35 -110.5 -53.5 t-120 -18.5t-116.5 22.5t-101 71.5q-29 33 -48.5 73t-29.5 85q-25 102 -16.5 209.5zM128 370.5q9 -116.5 58 -220.5q27 -59 69 -89t91 -35.5t102.5 11t100.5 51.5q121 94 191.5 232.5t109.5 293.5q18 80 32.5 166t15.5 172t-16.5 169t-60.5 159q-29 47 -66.5 74.5t-81.5 36 t-91 -4t-90 -45.5q-76 -53 -126.5 -132.5t-89.5 -159.5q-47 -98 -85.5 -212t-55 -232t-7.5 -234.5zM609.5 1509.5q-7.5 16.5 2.5 38.5q12 23 36.5 40.5t49.5 17.5q23 0 30 -17.5t-7 -40.5q-10 -23 -33.5 -39t-50.5 -16q-20 0 -27.5 16.5zM750.5 1509.5q-7.5 16.5 3.5 38.5 q12 23 36.5 40.5t49.5 17.5q23 0 30 -17.5t-8 -40.5q-10 -23 -33.5 -39t-50.5 -16q-20 0 -27.5 16.5z" />
<glyph unicode="&#xd7;" horiz-adv-x="444" d="M4 145l170 131l-170 99l31 24l170 -98l176 127l31 -16l-176 -129l174 -99l-31 -26l-172 100l-170 -131z" />
<glyph unicode="&#xd8;" horiz-adv-x="811" d="M16.5 463.5q8.5 107.5 39 213t77.5 206t100 186.5q47 80 105.5 154.5t134.5 130.5q53 39 119.5 62.5t132.5 21.5t122 -32t89 -97q41 -84 52 -175.5t2 -183.5t-33.5 -182t-55.5 -174q-25 -72 -58.5 -144.5t-75.5 -141t-93 -129t-115 -105.5q-51 -35 -110.5 -53.5 t-120 -18.5t-116.5 22.5t-101 71.5q-29 33 -48.5 73t-29.5 85q-25 102 -16.5 209.5zM128 370.5q9 -116.5 58 -220.5q27 -59 69 -89t91 -35.5t102.5 11t100.5 51.5q121 94 191.5 232.5t109.5 293.5q18 80 32.5 166t15.5 172t-16.5 169t-60.5 159q-29 47 -66.5 74.5t-81.5 36 t-91 -4t-90 -45.5q-76 -53 -126.5 -132.5t-89.5 -159.5q-47 -98 -85.5 -212t-55 -232t-7.5 -234.5zM213 -113l549 1643l65 18l-546 -1642z" />
<glyph unicode="&#xd9;" horiz-adv-x="1064" d="M-141 1199q12 56 37 99q47 78 133 111q39 14 78.5 18.5t75.5 -6t65 -35t45 -67.5q18 -47 19 -103.5t-8 -112.5t-23.5 -111.5t-24.5 -100.5q-25 -90 -49.5 -176t-46.5 -176q-23 -86 -43.5 -179.5t-3.5 -185.5q6 -33 18 -62.5t41 -52.5q25 -18 54.5 -27t61 -8t63.5 11 t57 26q59 39 104 94.5t80 119t61.5 130t48.5 130.5q39 104 80 216.5t69 228.5t37 231.5t-14 226.5q37 -35 52.5 -87.5t17.5 -110.5t-6 -115.5t-16 -98.5q-12 -57 -27.5 -111.5t-28.5 -101.5q-35 -117 -67.5 -236.5t-48.5 -242.5q-6 -39 -9.5 -84t5 -88t30 -78t66.5 -53 q70 -27 134 -2.5t118 71.5q-16 -31 -47 -53t-67 -35.5t-75 -18.5t-69 -1q-61 8 -97.5 44t-53.5 84t-20 103.5t1 106.5q4 29 7 53.5t9 52.5q-25 -53 -50.5 -108.5t-56 -105.5t-69.5 -95t-90 -78q-57 -35 -131 -49t-140 12q-47 18 -72.5 54t-37.5 77q-14 49 -14.5 101.5 t7 104.5t19.5 102.5t25 97.5q25 92 54.5 182t53.5 180q12 41 26.5 90.5t27 100.5t16.5 101t-4 95q-18 78 -77.5 98.5t-131.5 -3.5q-37 -16 -70 -41t-55 -60q-12 -18 -24.5 -52t-16.5 -68.5t5 -64.5t40 -44q23 -10 37 2t24 29q10 16 25.5 15t28 -12.5t14.5 -26.5t-16 -28 q-25 -18 -56 -18q-35 -2 -64.5 17.5t-43.5 52.5q-18 49 -6 105zM399 1602h93q35 -125 172 -150q-86 4 -157 45t-108 105z" />
<glyph unicode="&#xda;" horiz-adv-x="1064" d="M-141 1199q12 56 37 99q47 78 133 111q39 14 78.5 18.5t75.5 -6t65 -35t45 -67.5q18 -47 19 -103.5t-8 -112.5t-23.5 -111.5t-24.5 -100.5q-25 -90 -49.5 -176t-46.5 -176q-23 -86 -43.5 -179.5t-3.5 -185.5q6 -33 18 -62.5t41 -52.5q25 -18 54.5 -27t61 -8t63.5 11 t57 26q59 39 104 94.5t80 119t61.5 130t48.5 130.5q39 104 80 216.5t69 228.5t37 231.5t-14 226.5q37 -35 52.5 -87.5t17.5 -110.5t-6 -115.5t-16 -98.5q-12 -57 -27.5 -111.5t-28.5 -101.5q-35 -117 -67.5 -236.5t-48.5 -242.5q-6 -39 -9.5 -84t5 -88t30 -78t66.5 -53 q70 -27 134 -2.5t118 71.5q-16 -31 -47 -53t-67 -35.5t-75 -18.5t-69 -1q-61 8 -97.5 44t-53.5 84t-20 103.5t1 106.5q4 29 7 53.5t9 52.5q-25 -53 -50.5 -108.5t-56 -105.5t-69.5 -95t-90 -78q-57 -35 -131 -49t-140 12q-47 18 -72.5 54t-37.5 77q-14 49 -14.5 101.5 t7 104.5t19.5 102.5t25 97.5q25 92 54.5 182t53.5 180q12 41 26.5 90.5t27 100.5t16.5 101t-4 95q-18 78 -77.5 98.5t-131.5 -3.5q-37 -16 -70 -41t-55 -60q-12 -18 -24.5 -52t-16.5 -68.5t5 -64.5t40 -44q23 -10 37 2t24 29q10 16 25.5 15t28 -12.5t14.5 -26.5t-16 -28 q-25 -18 -56 -18q-35 -2 -64.5 17.5t-43.5 52.5q-18 49 -6 105zM399 1452q137 25 172 150h93q-37 -63 -108 -104.5t-157 -45.5z" />
<glyph unicode="&#xdb;" horiz-adv-x="1064" d="M-141 1199q12 56 37 99q47 78 133 111q39 14 78.5 18.5t75.5 -6t65 -35t45 -67.5q18 -47 19 -103.5t-8 -112.5t-23.5 -111.5t-24.5 -100.5q-25 -90 -49.5 -176t-46.5 -176q-23 -86 -43.5 -179.5t-3.5 -185.5q6 -33 18 -62.5t41 -52.5q25 -18 54.5 -27t61 -8t63.5 11 t57 26q59 39 104 94.5t80 119t61.5 130t48.5 130.5q39 104 80 216.5t69 228.5t37 231.5t-14 226.5q37 -35 52.5 -87.5t17.5 -110.5t-6 -115.5t-16 -98.5q-12 -57 -27.5 -111.5t-28.5 -101.5q-35 -117 -67.5 -236.5t-48.5 -242.5q-6 -39 -9.5 -84t5 -88t30 -78t66.5 -53 q70 -27 134 -2.5t118 71.5q-16 -31 -47 -53t-67 -35.5t-75 -18.5t-69 -1q-61 8 -97.5 44t-53.5 84t-20 103.5t1 106.5q4 29 7 53.5t9 52.5q-25 -53 -50.5 -108.5t-56 -105.5t-69.5 -95t-90 -78q-57 -35 -131 -49t-140 12q-47 18 -72.5 54t-37.5 77q-14 49 -14.5 101.5 t7 104.5t19.5 102.5t25 97.5q25 92 54.5 182t53.5 180q12 41 26.5 90.5t27 100.5t16.5 101t-4 95q-18 78 -77.5 98.5t-131.5 -3.5q-37 -16 -70 -41t-55 -60q-12 -18 -24.5 -52t-16.5 -68.5t5 -64.5t40 -44q23 -10 37 2t24 29q10 16 25.5 15t28 -12.5t14.5 -26.5t-16 -28 q-25 -18 -56 -18q-35 -2 -64.5 17.5t-43.5 52.5q-18 49 -6 105zM432 1440l133 107l131 -107h-49l-82 66l-82 -66h-51z" />
<glyph unicode="&#xdc;" horiz-adv-x="1064" d="M-141 1199q12 56 37 99q47 78 133 111q39 14 78.5 18.5t75.5 -6t65 -35t45 -67.5q18 -47 19 -103.5t-8 -112.5t-23.5 -111.5t-24.5 -100.5q-25 -90 -49.5 -176t-46.5 -176q-23 -86 -43.5 -179.5t-3.5 -185.5q6 -33 18 -62.5t41 -52.5q25 -18 54.5 -27t61 -8t63.5 11 t57 26q59 39 104 94.5t80 119t61.5 130t48.5 130.5q39 104 80 216.5t69 228.5t37 231.5t-14 226.5q37 -35 52.5 -87.5t17.5 -110.5t-6 -115.5t-16 -98.5q-12 -57 -27.5 -111.5t-28.5 -101.5q-35 -117 -67.5 -236.5t-48.5 -242.5q-6 -39 -9.5 -84t5 -88t30 -78t66.5 -53 q70 -27 134 -2.5t118 71.5q-16 -31 -47 -53t-67 -35.5t-75 -18.5t-69 -1q-61 8 -97.5 44t-53.5 84t-20 103.5t1 106.5q4 29 7 53.5t9 52.5q-25 -53 -50.5 -108.5t-56 -105.5t-69.5 -95t-90 -78q-57 -35 -131 -49t-140 12q-47 18 -72.5 54t-37.5 77q-14 49 -14.5 101.5 t7 104.5t19.5 102.5t25 97.5q25 92 54.5 182t53.5 180q12 41 26.5 90.5t27 100.5t16.5 101t-4 95q-18 78 -77.5 98.5t-131.5 -3.5q-37 -16 -70 -41t-55 -60q-12 -18 -24.5 -52t-16.5 -68.5t5 -64.5t40 -44q23 -10 37 2t24 29q10 16 25.5 15t28 -12.5t14.5 -26.5t-16 -28 q-25 -18 -56 -18q-35 -2 -64.5 17.5t-43.5 52.5q-18 49 -6 105zM402.5 1509.5q-7.5 16.5 3.5 38.5q12 23 36.5 40.5t49.5 17.5q23 0 29.5 -17.5t-7.5 -40.5q-10 -23 -33.5 -39t-50.5 -16q-20 0 -27.5 16.5zM544 1509.5q-7 16.5 3 38.5q12 23 36.5 40.5t49.5 17.5 q23 0 30 -17.5t-8 -40.5q-10 -23 -33.5 -39t-50.5 -16q-20 0 -27 16.5z" />
<glyph unicode="&#xdd;" horiz-adv-x="471" d="M-1662 -52.5q-5 72.5 11.5 146.5t51.5 137q49 86 134 144.5t183 81.5v-19q-100 -18 -179 -72.5t-122 -146.5q-29 -61 -40 -127.5t-2 -131t39 -123t81 -103.5q63 -57 148 -90t176 -46.5t181.5 -11.5t165.5 15q227 47 446.5 155.5t401 267t306 363.5t165.5 444 q10 61 17.5 120t7.5 118q0 57 -12.5 118.5t-40 112t-75.5 81t-118 26.5q-59 -6 -105 -39t-83 -80q-31 -37 -45.5 -91t-8 -107.5t35 -97.5t83.5 -58q31 -8 60.5 0t51 27.5t33 48t7.5 59.5t-21.5 57.5t-48.5 32.5q-25 4 -41 -10t-32 -31q10 29 28.5 45.5t40.5 20.5 q39 8 63.5 -7.5t37 -43t11.5 -61.5t-14 -60q-23 -51 -75 -79t-105 -11q-57 16 -87 60t-37 98.5t6.5 111.5t43.5 100q35 51 86.5 87t110.5 53q78 20 140.5 -7.5t105.5 -83t64.5 -126t15.5 -138.5q-10 -141 -44 -270t-69 -248l684 819q8 10 19.5 20.5t21.5 16.5 q35 18 52.5 -5.5t17.5 -51.5q0 -16 -5.5 -30.5t-11.5 -27.5q4 12 6.5 29t2.5 33q-10 27 -23.5 30t-28 -6.5t-29 -24.5t-22.5 -24l-659 -794q-104 -125 -207 -250t-215 -240q-96 -92 -200.5 -176t-217.5 -153.5t-230.5 -119.5t-240.5 -77q-90 -23 -194.5 -28t-206 11.5 t-192.5 58.5t-153 114q-47 55 -72.5 123.5t-30.5 141zM664 1378q137 25 172 150h92q-37 -63 -107.5 -104.5t-156.5 -45.5z" />
<glyph unicode="&#xde;" horiz-adv-x="395" d="M-483 -895q31 0 74.5 12.5t91.5 36.5q43 29 73.5 72t54 94t41 108.5t31.5 116.5q10 41 32 124t61.5 241t100 405.5t148.5 618.5q23 82 44.5 164t56.5 159q23 47 50 86t68 68q41 27 78 25q14 -2 28.5 -7.5t24.5 -15.5q18 -14 15.5 -30.5t-14 -26.5t-28 -10t-26.5 16 q-12 20 -24.5 33.5t-40.5 -0.5q-39 -20 -64.5 -58.5t-42.5 -83.5q-31 -78 -49 -161.5t-35 -167.5q-18 -88 -42.5 -200t-51.5 -231.5t-54 -241.5t-52 -231q53 6 100 30t81 60.5t53 86t19 106.5q0 25 -6 52.5t-20 47t-35.5 27.5t-52.5 -8q-12 -6 -24.5 -14.5t-22.5 -14.5 q16 27 41 45q43 25 92 13q47 -14 67.5 -59.5t16.5 -92.5q-6 -63 -35 -115q-18 -37 -49 -69.5t-70 -58t-82 -41t-88 -15.5q-18 -68 -36.5 -135.5t-35 -128t-31 -111.5t-24.5 -84q-35 -117 -85 -223t-128 -168q-53 -33 -98 -49t-96 -16v20z" />
<glyph unicode="&#xdf;" horiz-adv-x="292" d="M-593.5 -1026.5q1.5 18.5 14 31t30 12.5t29.5 -21q27 -43 55.5 -39.5t55 30t47 65.5t32.5 67l219 883q8 39 24.5 102.5t36 138t42 154.5t43 154t38 136.5t29.5 100.5q33 111 81 215.5t122 167.5h33q-82 -59 -125 -164.5t-70 -222.5q-10 -37 -25.5 -98t-36 -135t-41 -154 t-40.5 -153.5t-36.5 -136t-24.5 -101.5q-27 -109 -50.5 -224.5t-49 -230t-59.5 -226t-83 -214.5q-23 -49 -53.5 -94t-75.5 -76q-29 -18 -72 -24.5t-71 22.5q-20 16 -18.5 34.5zM18 154q4 41 23.5 72.5t58.5 45.5q27 12 44.5 0t21.5 -32.5t-5 -41t-36 -22.5h-17.5t-17.5 -2 q-39 -10 -41 -42t14 -56q25 -41 73 -47t83 22q25 20 34 49t9 61t-6 63.5t-14 56.5q-16 49 -26.5 96t-4.5 94q6 35 22.5 72t45.5 55q16 10 40 14v-24q-16 -2 -32 -13q-23 -18 -32 -46.5t-9 -57.5q0 -49 19.5 -91t37.5 -89q25 -66 9.5 -141.5t-76.5 -120.5q-47 -31 -104.5 -24 t-90.5 58q-12 18 -18.5 43t-4.5 48z" />
<glyph unicode="&#xe0;" horiz-adv-x="399" d="M1 153q7 44 26.5 85t47 76.5t58.5 62.5q41 35 93.5 57.5t111.5 18.5q4 10 16 4q14 -6 8 -27l-69 -313q-6 -24 -6 -47q-4 -37 19.5 -42t51.5 17q16 12 29.5 28.5t30.5 28.5q-16 -43 -47 -69q-16 -14 -38 -24.5t-42 -8.5q-29 4 -39 28.5t-8 59.5q-20 -29 -53 -50.5 t-68 -33.5q-39 -10 -74 5.5t-45 58.5q-10 41 -3 85zM49 155q-4 -38 6 -75q12 -43 44 -47t65 11t58.5 38.5t29.5 36.5l72 317q-53 2 -95 -20.5t-79 -61.5q-25 -25 -46.5 -57.5t-36 -68t-18.5 -73.5zM68 618h92q35 -124 172 -149q-86 4 -157 45t-107 104z" />
<glyph unicode="&#xe1;" horiz-adv-x="399" d="M1 153q7 44 26.5 85t47 76.5t58.5 62.5q41 35 93.5 57.5t111.5 18.5q4 10 16 4q14 -6 8 -27l-69 -313q-6 -24 -6 -47q-4 -37 19.5 -42t51.5 17q16 12 29.5 28.5t30.5 28.5q-16 -43 -47 -69q-16 -14 -38 -24.5t-42 -8.5q-29 4 -39 28.5t-8 59.5q-20 -29 -53 -50.5 t-68 -33.5q-39 -10 -74 5.5t-45 58.5q-10 41 -3 85zM49 155q-4 -38 6 -75q12 -43 44 -47t65 11t58.5 38.5t29.5 36.5l72 317q-53 2 -95 -20.5t-79 -61.5q-25 -25 -46.5 -57.5t-36 -68t-18.5 -73.5zM125 469q137 25 172 149h92q-37 -63 -107.5 -104t-156.5 -45z" />
<glyph unicode="&#xe2;" horiz-adv-x="399" d="M1 153q7 44 26.5 85t47 76.5t58.5 62.5q41 35 93.5 57.5t111.5 18.5q4 10 16 4q14 -6 8 -27l-69 -313q-6 -24 -6 -47q-4 -37 19.5 -42t51.5 17q16 12 29.5 28.5t30.5 28.5q-16 -43 -47 -69q-16 -14 -38 -24.5t-42 -8.5q-29 4 -39 28.5t-8 59.5q-20 -29 -53 -50.5 t-68 -33.5q-39 -10 -74 5.5t-45 58.5q-10 41 -3 85zM49 155q-4 -38 6 -75q12 -43 44 -47t65 11t58.5 38.5t29.5 36.5l72 317q-53 2 -95 -20.5t-79 -61.5q-25 -25 -46.5 -57.5t-36 -68t-18.5 -73.5zM131 510l133 107l131 -107h-49l-82 66l-82 -66h-51z" />
<glyph unicode="&#xe3;" horiz-adv-x="399" d="M1 153q7 44 26.5 85t47 76.5t58.5 62.5q41 35 93.5 57.5t111.5 18.5q4 10 16 4q14 -6 8 -27l-69 -313q-6 -24 -6 -47q-4 -37 19.5 -42t51.5 17q16 12 29.5 28.5t30.5 28.5q-16 -43 -47 -69q-16 -14 -38 -24.5t-42 -8.5q-29 4 -39 28.5t-8 59.5q-20 -29 -53 -50.5 t-68 -33.5q-39 -10 -74 5.5t-45 58.5q-10 41 -3 85zM45 487q6 20 23 37q18 25 46.5 37t59.5 14q49 2 97 -13t94 -25q29 -4 56.5 -2t49.5 18q31 20 27 46t-27 36t-40 -2t-28 -31q-6 -10 -9 -19.5t-7 -19.5q-2 23 4 47q10 27 32.5 40.5t51.5 8.5q25 -6 34 -21t9 -34.5t-9 -39 t-22 -32.5q-27 -25 -60.5 -36t-68.5 -9q-49 2 -94 27t-92 31q-29 4 -50.5 -4.5t-43.5 -24.5l-17.5 -14t-15.5 -15zM49 155q-4 -38 6 -75q12 -43 44 -47t65 11t58.5 38.5t29.5 36.5l72 317q-53 2 -95 -20.5t-79 -61.5q-25 -25 -46.5 -57.5t-36 -68t-18.5 -73.5z" />
<glyph unicode="&#xe4;" horiz-adv-x="399" d="M1 153q7 44 26.5 85t47 76.5t58.5 62.5q41 35 93.5 57.5t111.5 18.5q4 10 16 4q14 -6 8 -27l-69 -313q-6 -24 -6 -47q-4 -37 19.5 -42t51.5 17q16 12 29.5 28.5t30.5 28.5q-16 -43 -47 -69q-16 -14 -38 -24.5t-42 -8.5q-29 4 -39 28.5t-8 59.5q-20 -29 -53 -50.5 t-68 -33.5q-39 -10 -74 5.5t-45 58.5q-10 41 -3 85zM49 155q-4 -38 6 -75q12 -43 44 -47t65 11t58.5 38.5t29.5 36.5l72 317q-53 2 -95 -20.5t-79 -61.5q-25 -25 -46.5 -57.5t-36 -68t-18.5 -73.5zM191.5 526.5q-7.5 16.5 3.5 38.5q12 23 36.5 40.5t49.5 17.5 q23 0 29.5 -17.5t-7.5 -40.5q-10 -23 -33.5 -39t-50.5 -16q-20 0 -27.5 16.5zM333 526.5q-7 16.5 3 38.5q12 23 36.5 40.5t49.5 17.5q23 0 30 -17.5t-8 -40.5q-10 -23 -33.5 -39t-50.5 -16q-20 0 -27 16.5z" />
<glyph unicode="&#xe5;" horiz-adv-x="399" d="M1 153q7 44 26.5 85t47 76.5t58.5 62.5q41 35 93.5 57.5t111.5 18.5q4 10 16 4q14 -6 8 -27l-69 -313q-6 -24 -6 -47q-4 -37 19.5 -42t51.5 17q16 12 29.5 28.5t30.5 28.5q-16 -43 -47 -69q-16 -14 -38 -24.5t-42 -8.5q-29 4 -39 28.5t-8 59.5q-20 -29 -53 -50.5 t-68 -33.5q-39 -10 -74 5.5t-45 58.5q-10 41 -3 85zM49 155q-4 -38 6 -75q12 -43 44 -47t65 11t58.5 38.5t29.5 36.5l72 317q-53 2 -95 -20.5t-79 -61.5q-25 -25 -46.5 -57.5t-36 -68t-18.5 -73.5zM214 502.5q-9 19.5 5 48.5q16 29 46 50.5t61 21.5q27 0 35 -21.5t-9 -50.5 q-10 -29 -39.5 -48.5t-64.5 -19.5q-25 0 -34 19.5zM238 518.5q6 -12.5 22 -12.5q20 0 38.5 12t27.5 31q10 18 3.5 31.5t-22.5 13.5q-18 0 -37.5 -13.5t-29.5 -31.5q-8 -18 -2 -30.5z" />
<glyph unicode="&#xe6;" horiz-adv-x="661" d="M1 153q7 44 26.5 85t47 76.5t58.5 62.5q41 35 93.5 57.5t111.5 18.5q4 10 16 4q14 -6 8 -27l-69 -313q-6 -24 -6 -47q-4 -37 19.5 -42t51.5 17q16 12 29.5 28.5t30.5 28.5q-16 -43 -47 -69q-16 -14 -38 -24.5t-42 -8.5q-29 4 -39 28.5t-8 59.5q-20 -29 -53 -50.5 t-68 -33.5q-39 -10 -74 5.5t-45 58.5q-10 41 -3 85zM49 155q-4 -38 6 -75q12 -43 44 -47t65 11t58.5 38.5t29.5 36.5l72 317q-53 2 -95 -20.5t-79 -61.5q-25 -25 -46.5 -57.5t-36 -68t-18.5 -73.5zM408 129q-2 51 15 101.5t40 91.5q23 35 51.5 66.5t65.5 49.5q27 14 49 12.5 t34.5 -15t12.5 -35t-19 -46.5q-29 -35 -79 -53t-91 -16q-27 -76 -26 -140q0 -25 5 -49t21 -45q16 -23 41 -27t47 9q23 10 41.5 30.5t34.5 36.5q-10 -31 -27.5 -46t-39.5 -38q-29 -16 -61.5 -17t-61.5 19t-40 49t-13 62zM498 303q37 0 77.5 17.5t59.5 48.5q12 20 10 32.5 t-12 17.5t-25.5 2t-32.5 -15q-25 -16 -45 -45t-32 -58z" />
<glyph unicode="&#xe7;" horiz-adv-x="290" d="M1 100.5q-3 30.5 2 64.5t15 60q14 41 35 81t49 73q31 29 70 50.5t80 21.5q31 0 58.5 -13.5t37.5 -44.5q4 -18 -5 -28.5t-21.5 -12.5t-22.5 6.5t-10 24.5q2 20 -2 33.5t-27 15.5q-41 4 -74.5 -16.5t-60.5 -53.5q-27 -35 -43.5 -73.5t-26.5 -79.5t-8 -93.5t37 -82.5 q16 -16 38.5 -14.5t45.5 12.5q29 14 51.5 35.5t44.5 46.5q-16 -57 -75.5 -90t-118.5 -17q-35 12 -50.5 38t-18.5 56.5zM43 -195q16 2 34.5 8.5t33.5 14.5q18 10 27 31.5t-9 38.5q-12 12 -20 18q-16 12 -14.5 28.5t14 27t29 10.5t28.5 -19q16 -25 14 -54.5t-16 -51.5 q-14 -27 -41 -41q-16 -10 -36.5 -14.5t-43.5 3.5z" />
<glyph unicode="&#xe8;" horiz-adv-x="262" d="M8 129q-2 51 15.5 101.5t39.5 91.5q23 35 51.5 66.5t65.5 49.5q27 14 49.5 12.5t34.5 -15t12 -35t-18 -46.5q-29 -35 -79 -53t-91 -16q-27 -76 -27 -140q0 -25 5.5 -49t21.5 -45q16 -23 41 -27t47 9q23 10 41.5 30.5t34.5 36.5q-10 -31 -27.5 -46t-40.5 -38 q-29 -16 -61.5 -17t-61.5 19t-40 49t-13 62zM57 618h93q35 -124 172 -149q-86 4 -157 45t-108 104zM98 303q37 0 78 17.5t60 48.5q12 20 10 32.5t-12.5 17.5t-25.5 2t-32 -15q-25 -16 -45.5 -45t-32.5 -58z" />
<glyph unicode="&#xe9;" horiz-adv-x="262" d="M8 129q-2 51 15.5 101.5t39.5 91.5q23 35 51.5 66.5t65.5 49.5q27 14 49.5 12.5t34.5 -15t12 -35t-18 -46.5q-29 -35 -79 -53t-91 -16q-27 -76 -27 -140q0 -25 5.5 -49t21.5 -45q16 -23 41 -27t47 9q23 10 41.5 30.5t34.5 36.5q-10 -31 -27.5 -46t-40.5 -38 q-29 -16 -61.5 -17t-61.5 19t-40 49t-13 62zM61 469q137 25 172 149h93q-37 -63 -108 -104t-157 -45zM98 303q37 0 78 17.5t60 48.5q12 20 10 32.5t-12.5 17.5t-25.5 2t-32 -15q-25 -16 -45.5 -45t-32.5 -58z" />
<glyph unicode="&#xea;" horiz-adv-x="262" d="M8 129q-2 51 15.5 101.5t39.5 91.5q23 35 51.5 66.5t65.5 49.5q27 14 49.5 12.5t34.5 -15t12 -35t-18 -46.5q-29 -35 -79 -53t-91 -16q-27 -76 -27 -140q0 -25 5.5 -49t21.5 -45q16 -23 41 -27t47 9q23 10 41.5 30.5t34.5 36.5q-10 -31 -27.5 -46t-40.5 -38 q-29 -16 -61.5 -17t-61.5 19t-40 49t-13 62zM37 510l133 107l131 -107h-49l-82 66l-82 -66h-51zM98 303q37 0 78 17.5t60 48.5q12 20 10 32.5t-12.5 17.5t-25.5 2t-32 -15q-25 -16 -45.5 -45t-32.5 -58z" />
<glyph unicode="&#xeb;" horiz-adv-x="262" d="M8 129q-2 51 15.5 101.5t39.5 91.5q23 35 51.5 66.5t65.5 49.5q27 14 49.5 12.5t34.5 -15t12 -35t-18 -46.5q-29 -35 -79 -53t-91 -16q-27 -76 -27 -140q0 -25 5.5 -49t21.5 -45q16 -23 41 -27t47 9q23 10 41.5 30.5t34.5 36.5q-10 -31 -27.5 -46t-40.5 -38 q-29 -16 -61.5 -17t-61.5 19t-40 49t-13 62zM98 303q37 0 78 17.5t60 48.5q12 20 10 32.5t-12.5 17.5t-25.5 2t-32 -15q-25 -16 -45.5 -45t-32.5 -58zM120 526.5q-7 16.5 3 38.5q12 23 36.5 40.5t49.5 17.5q23 0 30 -17.5t-8 -40.5q-10 -23 -33.5 -39t-50.5 -16 q-20 0 -27 16.5zM261.5 526.5q-7.5 16.5 2.5 38.5q12 23 36.5 40.5t49.5 17.5q23 0 30 -17.5t-7 -40.5q-10 -23 -34 -39t-50 -16q-20 0 -27.5 16.5z" />
<glyph unicode="&#xec;" horiz-adv-x="153" d="M-55 618h92q35 -124 172 -149q-86 4 -156.5 45t-107.5 104zM16 414v18l25 12q39 10 69.5 -4t20.5 -61q-10 -41 -21.5 -90t-22.5 -94t-17.5 -82t-6.5 -56q2 -25 15.5 -29.5t29 1.5t31 18t23.5 23q10 8 17 17t18 15q-4 -23 -21 -45q-16 -18 -34.5 -33.5t-41.5 -19.5 q-35 -10 -55 5.5t-22 47.5q0 6 1 17.5t7 43.5t20.5 91t38.5 164q8 35 -3 47t-34 8q-10 -4 -18 -7t-19 -7z" />
<glyph unicode="&#xed;" horiz-adv-x="153" d="M-55 469q137 25 172 149h92q-37 -63 -107.5 -104t-156.5 -45zM16 414v18l25 12q39 10 69.5 -4t20.5 -61q-10 -41 -21.5 -90t-22.5 -94t-17.5 -82t-6.5 -56q2 -25 15.5 -29.5t29 1.5t31 18t23.5 23q10 8 17 17t18 15q-4 -23 -21 -45q-16 -18 -34.5 -33.5t-41.5 -19.5 q-35 -10 -55 5.5t-22 47.5q0 6 1 17.5t7 43.5t20.5 91t38.5 164q8 35 -3 47t-34 8q-10 -4 -18 -7t-19 -7z" />
<glyph unicode="&#xee;" horiz-adv-x="153" d="M-41 510l133 106l131 -106h-49l-82 65l-82 -65h-51zM16 414v18l25 12q39 10 69.5 -4t20.5 -61q-10 -41 -21.5 -90t-22.5 -94t-17.5 -82t-6.5 -56q2 -25 15.5 -29.5t29 1.5t31 18t23.5 23q10 8 17 17t18 15q-4 -23 -21 -45q-16 -18 -34.5 -33.5t-41.5 -19.5 q-35 -10 -55 5.5t-22 47.5q0 6 1 17.5t7 43.5t20.5 91t38.5 164q8 35 -3 47t-34 8q-10 -4 -18 -7t-19 -7z" />
<glyph unicode="&#xef;" horiz-adv-x="153" d="M-27.5 526.5q-7.5 16.5 2.5 38.5q12 23 36.5 40.5t49.5 17.5q23 0 30 -17.5t-7 -40.5q-10 -23 -33.5 -39t-50.5 -16q-20 0 -27.5 16.5zM16 414v18l25 12q39 10 69.5 -4t20.5 -61q-10 -41 -21.5 -90t-22.5 -94t-17.5 -82t-6.5 -56q2 -25 15.5 -29.5t29 1.5t31 18t23.5 23 q10 8 17 17t18 15q-4 -23 -21 -45q-16 -18 -34.5 -33.5t-41.5 -19.5q-35 -10 -55 5.5t-22 47.5q0 6 1 17.5t7 43.5t20.5 91t38.5 164q8 35 -3 47t-34 8q-10 -4 -18 -7t-19 -7zM113.5 526.5q-7.5 16.5 3.5 38.5q12 23 36.5 40.5t49.5 17.5q23 0 30 -17.5t-8 -40.5 q-10 -23 -33.5 -39t-50.5 -16q-20 0 -27.5 16.5z" />
<glyph unicode="&#xf0;" horiz-adv-x="970" d="M-10 965v8q55 18 98 18q111 0 262 -80q4 -2 8 -6l109 137l16 -12l-108 -135q131 -74 252 -178q63 -61 117.5 -127t99.5 -125q117 -190 88 -332q-33 -135 -152 -135q-193 0 -415 195q-145 127 -119 272q12 57 53 94q39 37 92 37q84 0 219 -125q63 -66 111.5 -114t73.5 -85 l-7 -12q-47 66 -101 119t-112 102q-121 94 -184 94q-31 0 -57 -14q-27 -16 -31 -43q-23 -96 195 -340q147 -162 295 -162q33 0 63 23q27 20 31 51q16 53 -47 166q-125 225 -262 383q-72 92 -140 156q-45 41 -86 71l-104 -129l-17 13l105 129l-25 16q-113 80 -225 80 q-31 0 -96 -10z" />
<glyph unicode="&#xf1;" horiz-adv-x="331" d="M-25 0l95 406l-31 2q10 8 19.5 15t21.5 15q4 4 12 8.5t12 4.5q14 0 14.5 -7.5t-1.5 -17.5q0 -4 -1 -10t-5 -23q20 14 46.5 30.5t55.5 27.5q18 6 35.5 5t31 -9.5t20.5 -22.5t1 -39q-16 -68 -31.5 -136.5t-31.5 -137.5q-2 -10 -5.5 -25.5t-1.5 -32.5q2 -25 14.5 -31t29 0.5 t32 18.5t23.5 25q10 16 30 32q-6 -20 -22 -45q-23 -39 -74 -53q-33 -10 -55.5 5t-22.5 48q0 6 2 17.5t9.5 43t21.5 94t39 171.5q8 35 -2 46t-33 7q-33 -6 -63.5 -25.5t-55.5 -41.5l-79 -365h-50zM-2 514q18 49 70 66q37 16 74.5 12t72.5 -25q27 -16 51 -32.5t53 -26.5 q23 -8 51.5 -3t47.5 23q10 12 13 27.5t-11 28.5q-4 4 -9 8l-10 8q-16 12 -14 27.5t13.5 26t26.5 11.5t28 -18q18 -31 12 -65q-2 -20 -12.5 -37t-26.5 -33q-49 -41 -119 -31q-29 4 -56.5 16.5t-53.5 24.5q-29 12 -59.5 24.5t-61.5 8.5q-23 -4 -43.5 -15.5t-36.5 -25.5z" />
<glyph unicode="&#xf2;" horiz-adv-x="317" d="M8.5 161q8.5 48 24.5 91q16 47 42.5 90t65.5 78q35 33 86.5 39t79.5 -31q18 -23 22.5 -55.5t2.5 -61.5q-4 -37 -14.5 -79t-28 -82.5t-42 -75.5t-54.5 -56q-47 -33 -101.5 -22.5t-77.5 70.5q-14 47 -5.5 95zM27 618h92q35 -124 172 -149q-86 4 -157 45t-107 104zM55.5 162 q-2.5 -43 7.5 -82q12 -43 47 -59.5t72 12.5q29 20 49.5 53t34 71t19.5 76.5t6 71.5q-2 27 -6 55.5t-21 51.5q-18 25 -50 23.5t-60 -29.5q-35 -31 -55.5 -75t-30.5 -89q-10 -37 -12.5 -80z" />
<glyph unicode="&#xf3;" horiz-adv-x="317" d="M8.5 161q8.5 48 24.5 91q16 47 42.5 90t65.5 78q35 33 86.5 39t79.5 -31q18 -23 22.5 -55.5t2.5 -61.5q-4 -37 -14.5 -79t-28 -82.5t-42 -75.5t-54.5 -56q-47 -33 -101.5 -22.5t-77.5 70.5q-14 47 -5.5 95zM55.5 162q-2.5 -43 7.5 -82q12 -43 47 -59.5t72 12.5 q29 20 49.5 53t34 71t19.5 76.5t6 71.5q-2 27 -6 55.5t-21 51.5q-18 25 -50 23.5t-60 -29.5q-35 -31 -55.5 -75t-30.5 -89q-10 -37 -12.5 -80zM102 469q137 25 172 149h93q-37 -63 -108 -104t-157 -45z" />
<glyph unicode="&#xf4;" horiz-adv-x="317" d="M8.5 161q8.5 48 24.5 91q16 47 42.5 90t65.5 78q35 33 86.5 39t79.5 -31q18 -23 22.5 -55.5t2.5 -61.5q-4 -37 -14.5 -79t-28 -82.5t-42 -75.5t-54.5 -56q-47 -33 -101.5 -22.5t-77.5 70.5q-14 47 -5.5 95zM55.5 162q-2.5 -43 7.5 -82q12 -43 47 -59.5t72 12.5 q29 20 49.5 53t34 71t19.5 76.5t6 71.5q-2 27 -6 55.5t-21 51.5q-18 25 -50 23.5t-60 -29.5q-35 -31 -55.5 -75t-30.5 -89q-10 -37 -12.5 -80zM96 512l133 107l131 -107h-49l-82 66l-82 -66h-51z" />
<glyph unicode="&#xf5;" horiz-adv-x="317" d="M-2 514q18 49 70 66q37 16 74.5 12t72.5 -25q27 -16 51 -32.5t53 -26.5q23 -8 51.5 -3t47.5 23q10 12 13 27.5t-11 28.5q-4 4 -9 8l-10 8q-16 12 -14 27.5t13.5 26t26.5 11.5t28 -18q18 -31 12 -65q-2 -20 -12.5 -37t-26.5 -33q-49 -41 -119 -31q-29 4 -56.5 16.5 t-53.5 24.5q-29 12 -59.5 24.5t-61.5 8.5q-23 -4 -43.5 -15.5t-36.5 -25.5zM8.5 161q8.5 48 24.5 91q16 47 42.5 90t65.5 78q35 33 86.5 39t79.5 -31q18 -23 22.5 -55.5t2.5 -61.5q-4 -37 -14.5 -79t-28 -82.5t-42 -75.5t-54.5 -56q-47 -33 -101.5 -22.5t-77.5 70.5 q-14 47 -5.5 95zM55.5 162q-2.5 -43 7.5 -82q12 -43 47 -59.5t72 12.5q29 20 49.5 53t34 71t19.5 76.5t6 71.5q-2 27 -6 55.5t-21 51.5q-18 25 -50 23.5t-60 -29.5q-35 -31 -55.5 -75t-30.5 -89q-10 -37 -12.5 -80z" />
<glyph unicode="&#xf6;" horiz-adv-x="317" d="M8.5 161q8.5 48 24.5 91q16 47 42.5 90t65.5 78q35 33 86.5 39t79.5 -31q18 -23 22.5 -55.5t2.5 -61.5q-4 -37 -14.5 -79t-28 -82.5t-42 -75.5t-54.5 -56q-47 -33 -101.5 -22.5t-77.5 70.5q-14 47 -5.5 95zM55.5 162q-2.5 -43 7.5 -82q12 -43 47 -59.5t72 12.5 q29 20 49.5 53t34 71t19.5 76.5t6 71.5q-2 27 -6 55.5t-21 51.5q-18 25 -50 23.5t-60 -29.5q-35 -31 -55.5 -75t-30.5 -89q-10 -37 -12.5 -80zM130.5 526.5q-7.5 16.5 2.5 38.5q12 23 36.5 40.5t49.5 17.5q23 0 30 -17.5t-7 -40.5q-10 -23 -34 -39t-50 -16q-20 0 -27.5 16.5 zM271.5 526.5q-7.5 16.5 2.5 38.5q12 23 36.5 40.5t49.5 17.5q23 0 30 -17.5t-7 -40.5q-10 -23 -33.5 -39t-50.5 -16q-20 0 -27.5 16.5z" />
<glyph unicode="&#xf7;" horiz-adv-x="137" d="M-156 199l15 34h434l-14 -34h-435zM-46 15.5q-7 13.5 3 35.5q10 20 31.5 34.5t44.5 14.5q18 0 24 -14t-4 -35q-10 -23 -31.5 -36t-44.5 -13q-16 0 -23 13.5zM73 337q-7 13 3 34q10 20 31.5 35.5t44.5 15.5q18 0 25 -15.5t-5 -35.5q-10 -20 -30.5 -33.5t-43.5 -13.5 q-18 0 -25 13z" />
<glyph unicode="&#xf8;" horiz-adv-x="317" d="M8.5 161q8.5 48 24.5 91q16 47 42.5 90t65.5 78t88 39l45 129h60l-47 -142q4 -4 10 -9t10 -9q18 -23 22.5 -55.5t2.5 -61.5q-4 -37 -14.5 -79t-28 -82.5t-42 -75.5t-54.5 -56q-29 -20 -60 -22l-24 -76l-68 -18l33 100q-18 8 -33.5 23.5t-26.5 40.5q-14 47 -5.5 95z M55.5 162q-2.5 -43 7.5 -82q4 -23 23 -43l135 397q-33 4 -67 -28q-35 -31 -55.5 -75t-30.5 -89q-10 -37 -12.5 -80zM141 14q20 4 41 19q29 20 49.5 53t34 71t19.5 76.5t6 71.5q-2 23 -6 48.5t-15 45.5z" />
<glyph unicode="&#xf9;" horiz-adv-x="378" d="M4 75.5q2 16.5 6 30.5l72 297l-31 3q10 6 19.5 14t21.5 14q4 4 12.5 8t14.5 4q12 0 13 -7t-1 -15q-10 -49 -19.5 -96t-19.5 -95l-18 -86q-16 -45 -21 -86q-2 -23 13.5 -28.5t33.5 -1.5q41 12 77 48t61 68q4 12 6 23.5t4 22.5l53 229q2 14 11.5 21.5t18.5 7.5t14 -6.5 t3 -20.5l-53 -242q-4 -20 -9 -45.5t-10 -48.5q-4 -31 13.5 -48t52.5 5q16 10 30.5 26.5t26.5 32.5q-6 -16 -18 -35.5t-29 -35.5q-12 -12 -28.5 -20.5t-34.5 -10.5q-16 -2 -31.5 3t-26.5 22q-12 27 -6 61q0 8 4 21q-27 -29 -58.5 -56.5t-66.5 -42.5q-23 -10 -41 -8 q-20 0 -36.5 10.5t-20.5 30.5q-4 16 -2 32.5zM57 618h93q35 -124 172 -149q-86 4 -157 45t-108 104z" />
<glyph unicode="&#xfa;" horiz-adv-x="378" d="M4 75.5q2 16.5 6 30.5l72 297l-31 3q10 6 19.5 14t21.5 14q4 4 12.5 8t14.5 4q12 0 13 -7t-1 -15q-10 -49 -19.5 -96t-19.5 -95l-18 -86q-16 -45 -21 -86q-2 -23 13.5 -28.5t33.5 -1.5q41 12 77 48t61 68q4 12 6 23.5t4 22.5l53 229q2 14 11.5 21.5t18.5 7.5t14 -6.5 t3 -20.5l-53 -242q-4 -20 -9 -45.5t-10 -48.5q-4 -31 13.5 -48t52.5 5q16 10 30.5 26.5t26.5 32.5q-6 -16 -18 -35.5t-29 -35.5q-12 -12 -28.5 -20.5t-34.5 -10.5q-16 -2 -31.5 3t-26.5 22q-12 27 -6 61q0 8 4 21q-27 -29 -58.5 -56.5t-66.5 -42.5q-23 -10 -41 -8 q-20 0 -36.5 10.5t-20.5 30.5q-4 16 -2 32.5zM96 469q137 25 172 149h92q-37 -63 -107.5 -104t-156.5 -45z" />
<glyph unicode="&#xfb;" horiz-adv-x="378" d="M4 75.5q2 16.5 6 30.5l72 297l-31 3q10 6 19.5 14t21.5 14q4 4 12.5 8t14.5 4q12 0 13 -7t-1 -15q-10 -49 -19.5 -96t-19.5 -95l-18 -86q-16 -45 -21 -86q-2 -23 13.5 -28.5t33.5 -1.5q41 12 77 48t61 68q4 12 6 23.5t4 22.5l53 229q2 14 11.5 21.5t18.5 7.5t14 -6.5 t3 -20.5l-53 -242q-4 -20 -9 -45.5t-10 -48.5q-4 -31 13.5 -48t52.5 5q16 10 30.5 26.5t26.5 32.5q-6 -16 -18 -35.5t-29 -35.5q-12 -12 -28.5 -20.5t-34.5 -10.5q-16 -2 -31.5 3t-26.5 22q-12 27 -6 61q0 8 4 21q-27 -29 -58.5 -56.5t-66.5 -42.5q-23 -10 -41 -8 q-20 0 -36.5 10.5t-20.5 30.5q-4 16 -2 32.5zM88 508l133 107l131 -107h-49l-82 66l-82 -66h-51z" />
<glyph unicode="&#xfc;" horiz-adv-x="378" d="M4 75.5q2 16.5 6 30.5l72 297l-31 3q10 6 19.5 14t21.5 14q4 4 12.5 8t14.5 4q12 0 13 -7t-1 -15q-10 -49 -19.5 -96t-19.5 -95l-18 -86q-16 -45 -21 -86q-2 -23 13.5 -28.5t33.5 -1.5q41 12 77 48t61 68q4 12 6 23.5t4 22.5l53 229q2 14 11.5 21.5t18.5 7.5t14 -6.5 t3 -20.5l-53 -242q-4 -20 -9 -45.5t-10 -48.5q-4 -31 13.5 -48t52.5 5q16 10 30.5 26.5t26.5 32.5q-6 -16 -18 -35.5t-29 -35.5q-12 -12 -28.5 -20.5t-34.5 -10.5q-16 -2 -31.5 3t-26.5 22q-12 27 -6 61q0 8 4 21q-27 -29 -58.5 -56.5t-66.5 -42.5q-23 -10 -41 -8 q-20 0 -36.5 10.5t-20.5 30.5q-4 16 -2 32.5zM111.5 526.5q-7.5 16.5 3.5 38.5q12 23 36.5 40.5t49.5 17.5q23 0 30 -17.5t-8 -40.5q-10 -23 -33.5 -39t-50.5 -16q-20 0 -27.5 16.5zM253.5 526.5q-7.5 16.5 2.5 38.5q12 23 36.5 40.5t49.5 17.5q23 0 30 -17.5t-7 -40.5 q-10 -23 -34 -39t-50 -16q-20 0 -27.5 16.5z" />
<glyph unicode="&#xfd;" horiz-adv-x="481" d="M-274.5 -150.5q-4.5 27.5 8.5 56.5q20 37 68 52t85 -13q18 -16 16.5 -33.5t-12 -28t-27 -11.5t-26.5 17q-20 33 -44.5 37t-43.5 -30q-12 -27 -9 -49.5t17.5 -40t34.5 -29t45 -15.5q47 -6 97.5 12.5t98.5 49.5t89 68.5t67 72.5q37 45 60.5 97.5t33 106.5t1 108.5 t-36.5 103.5q-18 31 -53 38t-68 -3q-43 -14 -65.5 -53t-14.5 -82q4 -33 22.5 -42.5t47.5 15.5q12 10 23.5 6t17.5 -15.5t3 -24.5t-20 -19q-37 -16 -70.5 10.5t-39.5 62.5q-8 47 16.5 91.5t65.5 66.5q37 20 83 17t74 -35q25 -27 36 -68t14.5 -84t-1 -85t-10.5 -71l273 345h6 l-266 -357q-88 -119 -201 -221q-59 -53 -129 -94t-154 -35q-29 0 -53.5 15.5t-39.5 39t-19.5 51zM285 449q137 25 172 149h92q-37 -63 -107.5 -104t-156.5 -45z" />
<glyph unicode="&#xfe;" horiz-adv-x="118" d="M-381 -510l133 518h4v2l80 348q31 147 64.5 297t68.5 279q23 82 44.5 164t56.5 159q23 47 50 86t68 68q41 27 78 25q14 -2 28.5 -7.5t24.5 -15.5q18 -14 15.5 -30.5t-14 -26.5t-28 -10t-26.5 16q-12 20 -24.5 33.5t-40.5 -0.5q-39 -20 -64.5 -58.5t-42.5 -83.5 q-31 -78 -49 -161.5t-35 -167.5q-47 -227 -98 -451.5t-102 -452.5q53 6 100 30t81 60.5t53 86t19 106.5q0 25 -6 52.5t-20 47t-35.5 27.5t-52.5 -8q-12 -6 -24.5 -14.5t-22.5 -14.5q16 27 41 45q43 25 92 13q47 -14 67.5 -59.5t16.5 -92.5q-6 -63 -35 -115 q-37 -72 -112.5 -126t-164.5 -58l-131 -510h-57z" />
<glyph unicode="&#xff;" horiz-adv-x="481" d="M-274.5 -150.5q-4.5 27.5 8.5 56.5q20 37 68 52t85 -13q18 -16 16.5 -33.5t-12 -28t-27 -11.5t-26.5 17q-20 33 -44.5 37t-43.5 -30q-12 -27 -9 -49.5t17.5 -40t34.5 -29t45 -15.5q47 -6 97.5 12.5t98.5 49.5t89 68.5t67 72.5q37 45 60.5 97.5t33 106.5t1 108.5 t-36.5 103.5q-18 31 -53 38t-68 -3q-43 -14 -65.5 -53t-14.5 -82q4 -33 22.5 -42.5t47.5 15.5q12 10 23.5 6t17.5 -15.5t3 -24.5t-20 -19q-37 -16 -70.5 10.5t-39.5 62.5q-8 47 16.5 91.5t65.5 66.5q37 20 83 17t74 -35q25 -27 36 -68t14.5 -84t-1 -85t-10.5 -71l273 345h6 l-266 -357q-88 -119 -201 -221q-59 -53 -129 -94t-154 -35q-29 0 -53.5 15.5t-39.5 39t-19.5 51zM288 526.5q-7 16.5 3 38.5q12 23 36.5 40.5t49.5 17.5q23 0 30 -17.5t-8 -40.5q-10 -23 -33.5 -39t-50.5 -16q-20 0 -27 16.5zM429.5 526.5q-7.5 16.5 2.5 38.5 q12 23 36.5 40.5t49.5 17.5q23 0 30 -17.5t-7 -40.5q-10 -23 -34 -39t-50 -16q-20 0 -27.5 16.5z" />
<glyph unicode="&#x152;" horiz-adv-x="1845" d="M16.5 463.5q8.5 107.5 39 213t77.5 206t100 186.5q47 80 105.5 154.5t134.5 130.5q53 39 119.5 62.5t132.5 21.5t122 -32t89 -97q41 -84 52 -175.5t2 -183.5t-33.5 -182t-55.5 -174q-25 -72 -58.5 -144.5t-75.5 -141t-93 -129t-115 -105.5q-51 -35 -110.5 -53.5 t-120 -18.5t-116.5 22.5t-101 71.5q-29 33 -48.5 73t-29.5 85q-25 102 -16.5 209.5zM128 370.5q9 -116.5 58 -220.5q27 -59 69 -89t91 -35.5t102.5 11t100.5 51.5q121 94 191.5 232.5t109.5 293.5q18 80 32.5 166t15.5 172t-16.5 169t-60.5 159q-29 47 -66.5 74.5t-81.5 36 t-91 -4t-90 -45.5q-76 -53 -126.5 -132.5t-89.5 -159.5q-47 -98 -85.5 -212t-55 -232t-7.5 -234.5zM918.5 396.5q-9.5 70.5 3 142t47.5 137.5q37 59 91 108.5t120 79.5q-20 66 -17.5 133.5t26 131t63.5 119t94 98.5q47 39 103 61.5t116 22.5q51 2 103 -19.5t90 -58.5 t53.5 -88.5t-7.5 -110.5q-16 -47 -60 -78t-92 -36t-89 20.5t-54 89.5q-2 14 1 34.5t18 30.5q12 12 26.5 9.5t24.5 -14t12 -26t-12 -26.5q-14 -10 -23.5 -20.5t-9.5 -20.5q6 -29 31 -43t54.5 -16t59 6t48.5 24q29 27 47 75t8 89q-18 80 -85 122t-144 42q-55 -4 -106.5 -23.5 t-90.5 -50.5q-49 -41 -82 -95t-46 -114.5t-9 -124t26 -120.5q96 29 203 0q53 -14 85 -46t42 -63q8 -31 2 -56.5t-22.5 -42.5t-41 -26.5t-50.5 -9.5q-43 -4 -88.5 13.5t-84 46t-68.5 65.5t-44 76q-141 -66 -193 -182q-23 -55 -26.5 -118t9.5 -124.5t42 -118.5t70 -102 q47 -49 107 -85.5t136 -52.5q74 -14 147.5 -4.5t140.5 37t123 74.5t97 111h15q-35 -72 -95.5 -128.5t-134.5 -92t-155.5 -51t-159.5 -5.5t-148.5 44t-124.5 91q-51 55 -81.5 122t-40 137.5zM1262 872q12 -31 33.5 -62.5t50 -60t61.5 -48t68 -25.5q47 -10 79.5 17.5 t14.5 74.5q-6 33 -35 60.5t-82 43.5q-92 20 -190 0z" />
<glyph unicode="&#x153;" horiz-adv-x="579" d="M8.5 161q8.5 48 24.5 91q16 47 42.5 90t65.5 78q35 33 86.5 39t79.5 -31q18 -23 22.5 -55.5t2.5 -61.5q-4 -37 -14.5 -79t-28 -82.5t-42 -75.5t-54.5 -56q-47 -33 -101.5 -22.5t-77.5 70.5q-14 47 -5.5 95zM55.5 162q-2.5 -43 7.5 -82q12 -43 47 -59.5t72 12.5 q29 20 49.5 53t34 71t19.5 76.5t6 71.5q-2 27 -6 55.5t-21 51.5q-18 25 -50 23.5t-60 -29.5q-35 -31 -55.5 -75t-30.5 -89q-10 -37 -12.5 -80zM326 129q-2 51 15 101.5t40 91.5q23 35 51.5 66.5t65.5 49.5q27 14 49 12.5t34.5 -15t12.5 -35t-19 -46.5q-29 -35 -79 -53 t-90 -16q-27 -76 -27 -140q0 -25 5 -49t22 -45q16 -23 40.5 -27t47.5 9q23 10 41 30.5t34 36.5q-10 -31 -27.5 -46t-39.5 -38q-29 -16 -61.5 -17t-61.5 19t-40 49t-13 62zM416 303q37 0 78 17.5t59 48.5q12 20 10 32.5t-12 17.5t-25.5 2t-31.5 -15q-25 -16 -45.5 -45 t-32.5 -58z" />
<glyph unicode="&#x178;" horiz-adv-x="471" d="M-1662 -52.5q-5 72.5 11.5 146.5t51.5 137q49 86 134 144.5t183 81.5v-19q-100 -18 -179 -72.5t-122 -146.5q-29 -61 -40 -127.5t-2 -131t39 -123t81 -103.5q63 -57 148 -90t176 -46.5t181.5 -11.5t165.5 15q227 47 446.5 155.5t401 267t306 363.5t165.5 444 q10 61 17.5 120t7.5 118q0 57 -12.5 118.5t-40 112t-75.5 81t-118 26.5q-59 -6 -105 -39t-83 -80q-31 -37 -45.5 -91t-8 -107.5t35 -97.5t83.5 -58q31 -8 60.5 0t51 27.5t33 48t7.5 59.5t-21.5 57.5t-48.5 32.5q-25 4 -41 -10t-32 -31q10 29 28.5 45.5t40.5 20.5 q39 8 63.5 -7.5t37 -43t11.5 -61.5t-14 -60q-23 -51 -75 -79t-105 -11q-57 16 -87 60t-37 98.5t6.5 111.5t43.5 100q35 51 86.5 87t110.5 53q78 20 140.5 -7.5t105.5 -83t64.5 -126t15.5 -138.5q-10 -141 -44 -270t-69 -248l684 819q8 10 19.5 20.5t21.5 16.5 q35 18 52.5 -5.5t17.5 -51.5q0 -16 -5.5 -30.5t-11.5 -27.5q4 12 6.5 29t2.5 33q-10 27 -23.5 30t-28 -6.5t-29 -24.5t-22.5 -24l-659 -794q-104 -125 -207 -250t-215 -240q-96 -92 -200.5 -176t-217.5 -153.5t-230.5 -119.5t-240.5 -77q-90 -23 -194.5 -28t-206 11.5 t-192.5 58.5t-153 114q-47 55 -72.5 123.5t-30.5 141zM679.5 1347.5q-7.5 16.5 2.5 38.5q12 23 36.5 40.5t49.5 17.5q23 0 30 -17.5t-7 -40.5q-10 -23 -34 -39t-50 -16q-20 0 -27.5 16.5zM820.5 1347.5q-7.5 16.5 2.5 38.5q12 23 36.5 40.5t49.5 17.5q23 0 30 -17.5 t-7 -40.5q-10 -23 -34 -39t-50 -16q-20 0 -27.5 16.5z" />
<glyph unicode="&#x2c6;" horiz-adv-x="186" d="M86 641l133 107l131 -107h-49l-82 66l-82 -66h-51z" />
<glyph unicode="&#x2dc;" horiz-adv-x="245" d="M45 487q6 20 23 37q18 25 46.5 37t59.5 14q49 2 97 -13t94 -25q29 -4 56.5 -2t49.5 18q31 20 27 46t-27 36t-40 -2t-28 -31q-6 -10 -9 -19.5t-7 -19.5q-2 23 4 47q10 27 32.5 40.5t51.5 8.5q25 -6 34 -21t9 -34.5t-9 -39t-22 -32.5q-27 -25 -60.5 -36t-68.5 -9 q-49 2 -94 27t-92 31q-29 4 -50.5 -4.5t-43.5 -24.5l-17.5 -14t-15.5 -15z" />
<glyph unicode="&#x2000;" horiz-adv-x="856" />
<glyph unicode="&#x2001;" horiz-adv-x="1712" />
<glyph unicode="&#x2002;" horiz-adv-x="856" />
<glyph unicode="&#x2003;" horiz-adv-x="1712" />
<glyph unicode="&#x2004;" horiz-adv-x="570" />
<glyph unicode="&#x2005;" horiz-adv-x="428" />
<glyph unicode="&#x2006;" horiz-adv-x="285" />
<glyph unicode="&#x2007;" horiz-adv-x="285" />
<glyph unicode="&#x2008;" horiz-adv-x="214" />
<glyph unicode="&#x2009;" horiz-adv-x="342" />
<glyph unicode="&#x200a;" horiz-adv-x="95" />
<glyph unicode="&#x2010;" horiz-adv-x="395" d="M14 199l15 34h350l-14 -34h-351z" />
<glyph unicode="&#x2011;" horiz-adv-x="395" d="M14 199l15 34h350l-14 -34h-351z" />
<glyph unicode="&#x2012;" horiz-adv-x="395" d="M14 199l15 34h350l-14 -34h-351z" />
<glyph unicode="&#x2013;" horiz-adv-x="413" d="M14 383l15 35h356l-14 -35h-357z" />
<glyph unicode="&#x2014;" horiz-adv-x="729" d="M14 276l15 35h669l-14 -35h-670z" />
<glyph unicode="&#x2018;" horiz-adv-x="190" d="M-137 604q37 63 107.5 104.5t156.5 45.5q-137 -25 -172 -150h-92z" />
<glyph unicode="&#x2019;" horiz-adv-x="190" d="M-137 604q137 25 172 150h92q-37 -63 -107.5 -104.5t-156.5 -45.5z" />
<glyph unicode="&#x201a;" horiz-adv-x="155" d="M-137 -33q137 25 172 150h92q-37 -63 -107.5 -104.5t-156.5 -45.5z" />
<glyph unicode="&#x201c;" horiz-adv-x="190" d="M-137 604q37 63 107.5 104.5t156.5 45.5q-137 -25 -172 -150h-92zM6 604q37 63 107.5 104.5t156.5 45.5q-137 -25 -172 -150h-92z" />
<glyph unicode="&#x201d;" horiz-adv-x="190" d="M-137 604q137 25 172 150h92q-37 -63 -107.5 -104.5t-156.5 -45.5zM8 604q137 25 172 150h92q-37 -63 -107.5 -104.5t-156.5 -45.5z" />
<glyph unicode="&#x201e;" horiz-adv-x="245" d="M-121 -29q61 10 98 44t54 87h82q-35 -55 -96.5 -91t-137.5 -40zM-12 -29q59 10 97 44t54 87h80q-33 -55 -94 -91t-137 -40z" />
<glyph unicode="&#x2022;" horiz-adv-x="202" d="M-38 499.5q-13 28.5 5 69.5q23 41 67 72t89 31q39 0 52 -31t-11 -72q-16 -41 -60.5 -69.5t-91.5 -28.5q-37 0 -50 28.5z" />
<glyph unicode="&#x2026;" horiz-adv-x="391" d="M17.5 15.5q-7.5 13.5 2.5 35.5q10 20 31.5 34.5t44.5 14.5q18 0 25.5 -14t-4.5 -35q-8 -23 -29.5 -36t-44.5 -13q-18 0 -25.5 13.5zM136.5 15.5q-7.5 13.5 2.5 35.5q10 20 31.5 34.5t44.5 14.5q18 0 25.5 -14t-4.5 -35q-10 -23 -31 -36t-43 -13q-18 0 -25.5 13.5z M249 15.5q-7 13.5 3 35.5q10 20 31.5 34.5t44.5 14.5q18 0 25 -14t-5 -35q-10 -23 -30.5 -36t-43.5 -13q-18 0 -25 13.5z" />
<glyph unicode="&#x202f;" horiz-adv-x="342" />
<glyph unicode="&#x2039;" horiz-adv-x="567" d="M29 455l8 45l469 198l-8 -43l-422 -178l344 -180l-6 -39z" />
<glyph unicode="&#x203a;" horiz-adv-x="567" d="M29 258l8 41l422 178l-344 180l8 41l383 -196l-8 -45z" />
<glyph unicode="&#x205f;" horiz-adv-x="428" />
<glyph unicode="&#x20ac;" horiz-adv-x="466" d="M-129 422l12 31h135q14 57 43 120h-127l13 29h127q41 86 89 157.5t95 119.5q43 43 109.5 78.5t137 48t135.5 -8t105 -90.5h-40q-39 61 -105 86q-45 12 -89 5t-85 -27.5t-78 -51t-63 -61.5q-41 -49 -82 -114.5t-74 -141.5h139l-10 -29h-141q-23 -57 -39 -120h127l-10 -31 h-125q-18 -92 -13 -180q2 -39 14.5 -79t35 -74t55.5 -56.5t78 -24.5q63 -2 118 27v-15q-53 -25 -114 -24q-113 -4 -179.5 63.5t-74.5 176.5q-4 43 2 91t18 95h-139z" />
<glyph unicode="&#x2122;" horiz-adv-x="2996" d="M66.5 396.5q9.5 74.5 56.5 135.5q27 37 64.5 66t81.5 45t91.5 19.5t90.5 -11.5q51 -14 90 -51t49 -92q10 -63 -19.5 -121.5t-87.5 -83.5q-47 -20 -101 -10t-75 59q-8 23 2 37t25.5 17.5t30 -4t16.5 -27.5q0 -23 2 -33q8 -29 38 -29t50 9q51 18 65.5 69t-1.5 98 q-25 72 -93 111q-39 25 -82 28t-82.5 -9.5t-75.5 -39t-61 -59.5q-43 -59 -52 -128.5t10.5 -134t65.5 -119t114 -83.5q59 -27 123.5 -35t129.5 3q92 18 163 71t126.5 127t95 159t68.5 165q39 106 69.5 214.5t63.5 216t71 212t93 205.5q-96 23 -207.5 49t-223.5 32.5 t-217.5 -20.5t-187.5 -108q-43 -45 -70.5 -102.5t-37.5 -119.5q-12 -72 7.5 -136t61.5 -113.5t102 -78t130 -28.5q63 0 115.5 34t81 84t28.5 109.5t-43 110.5q-31 35 -79 50t-89 -13q-29 -16 -36 -49t32 -52q18 -10 17.5 -25.5t-13 -27.5t-30 -13t-31.5 17q-14 20 -15.5 44 t7 46.5t25 43t34.5 32.5q53 35 114.5 29t108.5 -47q39 -39 49.5 -90.5t-4.5 -100.5q-12 -43 -39.5 -78.5t-64.5 -61.5t-80 -42t-86 -18q-74 -4 -138.5 26.5t-108.5 84.5t-64.5 123t-7.5 142q10 66 37.5 126.5t74.5 107.5q84 88 192.5 122t225.5 34t234.5 -24t220.5 -54 q82 -25 172 -62t181 -61.5t180 -22.5t169 60q27 18 40 45.5t5 60.5q-10 37 -39 51q-29 16 -51 1t-22 -54q0 -20 -14.5 -28.5t-30 -5.5t-25.5 15.5t-4 35.5q10 29 32.5 46t51.5 21q16 4 35.5 1t33.5 -13q41 -23 52 -62q10 -41 -7.5 -74.5t-48.5 -56.5q-78 -53 -168 -60 t-184 10.5t-187.5 47t-177.5 51.5v-2q-47 -104 -77.5 -209.5t-58 -212t-56.5 -213t-72 -212.5q-33 -86 -78 -172.5t-106 -160t-139 -128t-174 -72.5q-70 -10 -138.5 -1t-130.5 36q-70 31 -119 88t-71.5 127t-13 144.5zM1045.5 341q-9.5 81 17.5 162t92 146q53 53 122 81 t144 28q86 2 167 -38t124 -118q41 -72 26.5 -152.5t-77.5 -136.5q-43 -37 -96 -49q29 16 53 34.5t47 41.5q47 49 48 108.5t-38 112.5q-47 66 -115.5 107t-148.5 47q-63 4 -126.5 -16.5t-113.5 -61.5q-68 -57 -86 -129t-0.5 -143.5t63.5 -135t105 -106.5q92 -66 194.5 -84.5 t201 1t186.5 77t152 147.5q55 88 96 183.5t73.5 193.5t63.5 197.5t67.5 197t84.5 188.5t116 175q-119 12 -242.5 12t-238.5 -39q-111 -35 -172 -119t-78 -198q-10 -59 -1 -115.5t36 -103.5q37 -59 93.5 -86t121.5 12q37 23 61.5 58.5t34.5 78.5q4 23 8.5 41t8.5 45 q6 -18 6 -41.5t-4 -44.5q-18 -102 -105 -154q-66 -41 -142.5 -27.5t-123.5 73.5q-45 55 -55 125.5t2 136.5q23 123 104.5 210t198.5 128q135 43 277.5 37.5t281.5 -17.5l-39 -215l-231 -1034q51 129 108.5 247.5t119.5 233.5t132 226.5t143 226.5q59 92 137.5 172t182.5 123 q59 23 129 32t133 -8q29 -10 51.5 -27.5t3.5 -54.5q-10 -20 -21 -26.5t-25.5 -4t-28 11.5t-25.5 21q-41 41 -95 50.5t-108 -13.5q-49 -20 -90 -57t-75.5 -81t-62.5 -94t-50 -96q-41 -82 -71 -169t-52 -177q-16 -59 -33.5 -132.5t-28 -150.5t-9.5 -149.5t24 -130.5 q18 -45 48 -69.5t64.5 -30.5t72.5 6t69 43q23 20 40 44t31 46q-4 -27 -20 -54.5t-41 -49.5q-33 -31 -75 -47.5t-87 -15.5t-87 18.5t-73 52.5q-47 55 -54 138t7.5 173t40 177t43.5 151q31 100 69 195.5t89 185.5q-170 -256 -316.5 -525.5t-244.5 -562.5l-39 4l268 1352 q-96 -123 -151.5 -265.5t-100.5 -288.5t-96 -290.5t-139 -271.5q-63 -90 -156.5 -148.5t-198 -82t-214 -11.5t-205.5 64q-78 45 -123 116.5t-54.5 152.5z" />
<glyph unicode="&#x25fc;" horiz-adv-x="450" d="M0 0v451h451v-451h-451z" />
</font>
</defs>
</svg>
